<svg width="616" height="279" viewBox="0 0 616 279" version="1.1" xmlns="http://www.w3.org/2000/svg" xmlns:xlink="http://www.w3.org/1999/xlink">
<g id="Canvas" fill="none">
<g id="Group 2">
<g id="Vector">
<path d="M 616 0L 0 0L 0 279L 616 279L 616 0Z" fill="white"/>
</g>
<g id="Pages">
<path d="M 2.11523 7.66016L 2.11523 11L 0.990234 11L 0.990234 2.46875L 4.13672 2.46875C 5.07031 2.46875 5.80078 2.70703 6.32812 3.18359C 6.85938 3.66016 7.125 4.29102 7.125 5.07617C 7.125 5.9043 6.86523 6.54297 6.3457 6.99219C 5.83008 7.4375 5.08984 7.66016 4.125 7.66016L 2.11523 7.66016ZM 2.11523 6.74023L 4.13672 6.74023C 4.73828 6.74023 5.19922 6.59961 5.51953 6.31836C 5.83984 6.0332 6 5.62305 6 5.08789C 6 4.58008 5.83984 4.17383 5.51953 3.86914C 5.19922 3.56445 4.75977 3.40625 4.20117 3.39453L 2.11523 3.39453L 2.11523 6.74023ZM 12.2344 11C 12.1719 10.875 12.1211 10.6523 12.082 10.332C 11.5781 10.8555 10.9766 11.1172 10.2773 11.1172C 9.65234 11.1172 9.13867 10.9414 8.73633 10.5898C 8.33789 10.2344 8.13867 9.78516 8.13867 9.24219C 8.13867 8.58203 8.38867 8.07031 8.88867 7.70703C 9.39258 7.33984 10.0996 7.15625 11.0098 7.15625L 12.0645 7.15625L 12.0645 6.6582C 12.0645 6.2793 11.9512 5.97852 11.7246 5.75586C 11.498 5.5293 11.1641 5.41602 10.7227 5.41602C 10.3359 5.41602 10.0117 5.51367 9.75 5.70898C 9.48828 5.9043 9.35742 6.14062 9.35742 6.41797L 8.26758 6.41797C 8.26758 6.10156 8.37891 5.79688 8.60156 5.50391C 8.82812 5.20703 9.13281 4.97266 9.51562 4.80078C 9.90234 4.62891 10.3262 4.54297 10.7871 4.54297C 11.5176 4.54297 12.0898 4.72656 12.5039 5.09375C 12.918 5.45703 13.1328 5.95898 13.1484 6.59961L 13.1484 9.51758C 13.1484 10.0996 13.2227 10.5625 13.3711 10.9062L 13.3711 11L 12.2344 11ZM 10.4355 10.1738C 10.7754 10.1738 11.0977 10.0859 11.4023 9.91016C 11.707 9.73438 11.9277 9.50586 12.0645 9.22461L 12.0645 7.92383L 11.2148 7.92383C 9.88672 7.92383 9.22266 8.3125 9.22266 9.08984C 9.22266 9.42969 9.33594 9.69531 9.5625 9.88672C 9.78906 10.0781 10.0801 10.1738 10.4355 10.1738ZM 14.5898 7.77734C 14.5898 6.78906 14.8184 6.00391 15.2754 5.42188C 15.7324 4.83594 16.3379 4.54297 17.0918 4.54297C 17.8652 4.54297 18.4688 4.81641 18.9023 5.36328L 18.9551 4.66016L 19.9453 4.66016L 19.9453 10.8477C 19.9453 11.668 19.7012 12.3145 19.2129 12.7871C 18.7285 13.2598 18.0762 13.4961 17.2559 13.4961C 16.7988 13.4961 16.3516 13.3984 15.9141 13.2031C 15.4766 13.0078 15.1426 12.7402 14.9121 12.4004L 15.4746 11.75C 15.9395 12.3242 16.5078 12.6113 17.1797 12.6113C 17.707 12.6113 18.1172 12.4629 18.4102 12.166C 18.707 11.8691 18.8555 11.4512 18.8555 10.9121L 18.8555 10.3672C 18.4219 10.8672 17.8301 11.1172 17.0801 11.1172C 16.3379 11.1172 15.7363 10.8184 15.2754 10.2207C 14.8184 9.62305 14.5898 8.80859 14.5898 7.77734ZM 15.6797 7.90039C 15.6797 8.61523 15.8262 9.17773 16.1191 9.58789C 16.4121 9.99414 16.8223 10.1973 17.3496 10.1973C 18.0332 10.1973 18.5352 9.88672 18.8555 9.26562L 18.8555 6.37109C 18.5234 5.76562 18.0254 5.46289 17.3613 5.46289C 16.834 5.46289 16.4219 5.66797 16.125 6.07812C 15.8281 6.48828 15.6797 7.0957 15.6797 7.90039ZM 24.2168 11.1172C 23.3574 11.1172 22.6582 10.8359 22.1191 10.2734C 21.5801 9.70703 21.3105 8.95117 21.3105 8.00586L 21.3105 7.80664C 21.3105 7.17773 21.4297 6.61719 21.668 6.125C 21.9102 5.62891 22.2461 5.24219 22.6758 4.96484C 23.1094 4.68359 23.5781 4.54297 24.082 4.54297C 24.9062 4.54297 25.5469 4.81445 26.0039 5.35742C 26.4609 5.90039 26.6895 6.67773 26.6895 7.68945L 26.6895 8.14062L 22.3945 8.14062C 22.4102 8.76562 22.5918 9.27148 22.9395 9.6582C 23.291 10.041 23.7363 10.2324 24.2754 10.2324C 24.6582 10.2324 24.9824 10.1543 25.248 9.99805C 25.5137 9.8418 25.7461 9.63477 25.9453 9.37695L 26.6074 9.89258C 26.0762 10.709 25.2793 11.1172 24.2168 11.1172ZM 24.082 5.43359C 23.6445 5.43359 23.2773 5.59375 22.9805 5.91406C 22.6836 6.23047 22.5 6.67578 22.4297 7.25L 25.6055 7.25L 25.6055 7.16797C 25.5742 6.61719 25.4258 6.19141 25.1602 5.89062C 24.8945 5.58594 24.5352 5.43359 24.082 5.43359ZM 31.6406 9.31836C 31.6406 9.02539 31.5293 8.79883 31.3066 8.63867C 31.0879 8.47461 30.7031 8.33398 30.1523 8.2168C 29.6055 8.09961 29.1699 7.95898 28.8457 7.79492C 28.5254 7.63086 28.2871 7.43555 28.1309 7.20898C 27.9785 6.98242 27.9023 6.71289 27.9023 6.40039C 27.9023 5.88086 28.1211 5.44141 28.5586 5.08203C 29 4.72266 29.5625 4.54297 30.2461 4.54297C 30.9648 4.54297 31.5469 4.72852 31.9922 5.09961C 32.4414 5.4707 32.666 5.94531 32.666 6.52344L 31.5762 6.52344C 31.5762 6.22656 31.4492 5.9707 31.1953 5.75586C 30.9453 5.54102 30.6289 5.43359 30.2461 5.43359C 29.8516 5.43359 29.543 5.51953 29.3203 5.69141C 29.0977 5.86328 28.9863 6.08789 28.9863 6.36523C 28.9863 6.62695 29.0898 6.82422 29.2969 6.95703C 29.5039 7.08984 29.877 7.2168 30.416 7.33789C 30.959 7.45898 31.3984 7.60352 31.7344 7.77148C 32.0703 7.93945 32.3184 8.14258 32.4785 8.38086C 32.6426 8.61523 32.7246 8.90234 32.7246 9.24219C 32.7246 9.80859 32.498 10.2637 32.0449 10.6074C 31.5918 10.9473 31.0039 11.1172 30.2812 11.1172C 29.7734 11.1172 29.3242 11.0273 28.9336 10.8477C 28.543 10.668 28.2363 10.418 28.0137 10.0977C 27.7949 9.77344 27.6855 9.42383 27.6855 9.04883L 28.7695 9.04883C 28.7891 9.41211 28.9336 9.70117 29.2031 9.91602C 29.4766 10.127 29.8359 10.2324 30.2812 10.2324C 30.6914 10.2324 31.0195 10.1504 31.2656 9.98633C 31.5156 9.81836 31.6406 9.5957 31.6406 9.31836Z" transform="translate(96.8848 182)" fill="#1F3F49"/>
</g>
<g id="Visitors">
<path d="M 3.81445 9.50586L 6.25195 2.46875L 7.48242 2.46875L 4.31836 11L 3.32227 11L 0.164062 2.46875L 1.38867 2.46875L 3.81445 9.50586ZM 9.63867 11L 8.55469 11L 8.55469 4.66016L 9.63867 4.66016L 9.63867 11ZM 8.4668 2.97852C 8.4668 2.80273 8.51953 2.6543 8.625 2.5332C 8.73438 2.41211 8.89453 2.35156 9.10547 2.35156C 9.31641 2.35156 9.47656 2.41211 9.58594 2.5332C 9.69531 2.6543 9.75 2.80273 9.75 2.97852C 9.75 3.1543 9.69531 3.30078 9.58594 3.41797C 9.47656 3.53516 9.31641 3.59375 9.10547 3.59375C 8.89453 3.59375 8.73438 3.53516 8.625 3.41797C 8.51953 3.30078 8.4668 3.1543 8.4668 2.97852ZM 15.0703 9.31836C 15.0703 9.02539 14.959 8.79883 14.7363 8.63867C 14.5176 8.47461 14.1328 8.33398 13.582 8.2168C 13.0352 8.09961 12.5996 7.95898 12.2754 7.79492C 11.9551 7.63086 11.7168 7.43555 11.5605 7.20898C 11.4082 6.98242 11.332 6.71289 11.332 6.40039C 11.332 5.88086 11.5508 5.44141 11.9883 5.08203C 12.4297 4.72266 12.9922 4.54297 13.6758 4.54297C 14.3945 4.54297 14.9766 4.72852 15.4219 5.09961C 15.8711 5.4707 16.0957 5.94531 16.0957 6.52344L 15.0059 6.52344C 15.0059 6.22656 14.8789 5.9707 14.625 5.75586C 14.375 5.54102 14.0586 5.43359 13.6758 5.43359C 13.2812 5.43359 12.9727 5.51953 12.75 5.69141C 12.5273 5.86328 12.416 6.08789 12.416 6.36523C 12.416 6.62695 12.5195 6.82422 12.7266 6.95703C 12.9336 7.08984 13.3066 7.2168 13.8457 7.33789C 14.3887 7.45898 14.8281 7.60352 15.1641 7.77148C 15.5 7.93945 15.748 8.14258 15.9082 8.38086C 16.0723 8.61523 16.1543 8.90234 16.1543 9.24219C 16.1543 9.80859 15.9277 10.2637 15.4746 10.6074C 15.0215 10.9473 14.4336 11.1172 13.7109 11.1172C 13.2031 11.1172 12.7539 11.0273 12.3633 10.8477C 11.9727 10.668 11.666 10.418 11.4434 10.0977C 11.2246 9.77344 11.1152 9.42383 11.1152 9.04883L 12.1992 9.04883C 12.2188 9.41211 12.3633 9.70117 12.6328 9.91602C 12.9062 10.127 13.2656 10.2324 13.7109 10.2324C 14.1211 10.2324 14.4492 10.1504 14.6953 9.98633C 14.9453 9.81836 15.0703 9.5957 15.0703 9.31836ZM 18.7441 11L 17.6602 11L 17.6602 4.66016L 18.7441 4.66016L 18.7441 11ZM 17.5723 2.97852C 17.5723 2.80273 17.625 2.6543 17.7305 2.5332C 17.8398 2.41211 18 2.35156 18.2109 2.35156C 18.4219 2.35156 18.582 2.41211 18.6914 2.5332C 18.8008 2.6543 18.8555 2.80273 18.8555 2.97852C 18.8555 3.1543 18.8008 3.30078 18.6914 3.41797C 18.582 3.53516 18.4219 3.59375 18.2109 3.59375C 18 3.59375 17.8398 3.53516 17.7305 3.41797C 17.625 3.30078 17.5723 3.1543 17.5723 2.97852ZM 21.9551 3.125L 21.9551 4.66016L 23.1387 4.66016L 23.1387 5.49805L 21.9551 5.49805L 21.9551 9.42969C 21.9551 9.68359 22.0078 9.875 22.1133 10.0039C 22.2188 10.1289 22.3984 10.1914 22.6523 10.1914C 22.7773 10.1914 22.9492 10.168 23.168 10.1211L 23.168 11C 22.8828 11.0781 22.6055 11.1172 22.3359 11.1172C 21.8516 11.1172 21.4863 10.9707 21.2402 10.6777C 20.9941 10.3848 20.8711 9.96875 20.8711 9.42969L 20.8711 5.49805L 19.7168 5.49805L 19.7168 4.66016L 20.8711 4.66016L 20.8711 3.125L 21.9551 3.125ZM 24.0059 7.77148C 24.0059 7.15039 24.127 6.5918 24.3691 6.0957C 24.6152 5.59961 24.9551 5.2168 25.3887 4.94727C 25.8262 4.67773 26.3242 4.54297 26.8828 4.54297C 27.7461 4.54297 28.4434 4.8418 28.9746 5.43945C 29.5098 6.03711 29.7773 6.83203 29.7773 7.82422L 29.7773 7.90039C 29.7773 8.51758 29.6582 9.07227 29.4199 9.56445C 29.1855 10.0527 28.8477 10.4336 28.4062 10.707C 27.9688 10.9805 27.4648 11.1172 26.8945 11.1172C 26.0352 11.1172 25.3379 10.8184 24.8027 10.2207C 24.2715 9.62305 24.0059 8.83203 24.0059 7.84766L 24.0059 7.77148ZM 25.0957 7.90039C 25.0957 8.60352 25.2578 9.16797 25.582 9.59375C 25.9102 10.0195 26.3477 10.2324 26.8945 10.2324C 27.4453 10.2324 27.8828 10.0176 28.207 9.58789C 28.5312 9.1543 28.6934 8.54883 28.6934 7.77148C 28.6934 7.07617 28.5273 6.51367 28.1953 6.08398C 27.8672 5.65039 27.4297 5.43359 26.8828 5.43359C 26.3477 5.43359 25.916 5.64648 25.5879 6.07227C 25.2598 6.49805 25.0957 7.10742 25.0957 7.90039ZM 34.2012 5.63281C 34.0371 5.60547 33.8594 5.5918 33.668 5.5918C 32.957 5.5918 32.4746 5.89453 32.2207 6.5L 32.2207 11L 31.1367 11L 31.1367 4.66016L 32.1914 4.66016L 32.209 5.39258C 32.5645 4.82617 33.0684 4.54297 33.7207 4.54297C 33.9316 4.54297 34.0918 4.57031 34.2012 4.625L 34.2012 5.63281ZM 38.8945 9.31836C 38.8945 9.02539 38.7832 8.79883 38.5605 8.63867C 38.3418 8.47461 37.957 8.33398 37.4062 8.2168C 36.8594 8.09961 36.4238 7.95898 36.0996 7.79492C 35.7793 7.63086 35.541 7.43555 35.3848 7.20898C 35.2324 6.98242 35.1562 6.71289 35.1562 6.40039C 35.1562 5.88086 35.375 5.44141 35.8125 5.08203C 36.2539 4.72266 36.8164 4.54297 37.5 4.54297C 38.2188 4.54297 38.8008 4.72852 39.2461 5.09961C 39.6953 5.4707 39.9199 5.94531 39.9199 6.52344L 38.8301 6.52344C 38.8301 6.22656 38.7031 5.9707 38.4492 5.75586C 38.1992 5.54102 37.8828 5.43359 37.5 5.43359C 37.1055 5.43359 36.7969 5.51953 36.5742 5.69141C 36.3516 5.86328 36.2402 6.08789 36.2402 6.36523C 36.2402 6.62695 36.3438 6.82422 36.5508 6.95703C 36.7578 7.08984 37.1309 7.2168 37.6699 7.33789C 38.2129 7.45898 38.6523 7.60352 38.9883 7.77148C 39.3242 7.93945 39.5723 8.14258 39.7324 8.38086C 39.8965 8.61523 39.9785 8.90234 39.9785 9.24219C 39.9785 9.80859 39.752 10.2637 39.2988 10.6074C 38.8457 10.9473 38.2578 11.1172 37.5352 11.1172C 37.0273 11.1172 36.5781 11.0273 36.1875 10.8477C 35.7969 10.668 35.4902 10.418 35.2676 10.0977C 35.0488 9.77344 34.9395 9.42383 34.9395 9.04883L 36.0234 9.04883C 36.043 9.41211 36.1875 9.70117 36.457 9.91602C 36.7305 10.127 37.0898 10.2324 37.5352 10.2324C 37.9453 10.2324 38.2734 10.1504 38.5195 9.98633C 38.7695 9.81836 38.8945 9.5957 38.8945 9.31836Z" transform="translate(287.592 182)" fill="#1F3F49"/>
</g>
<g id="Pages/Visitors">
<path d="M 2.11523 7.66016L 2.11523 11L 0.990234 11L 0.990234 2.46875L 4.13672 2.46875C 5.07031 2.46875 5.80078 2.70703 6.32812 3.18359C 6.85938 3.66016 7.125 4.29102 7.125 5.07617C 7.125 5.9043 6.86523 6.54297 6.3457 6.99219C 5.83008 7.4375 5.08984 7.66016 4.125 7.66016L 2.11523 7.66016ZM 2.11523 6.74023L 4.13672 6.74023C 4.73828 6.74023 5.19922 6.59961 5.51953 6.31836C 5.83984 6.0332 6 5.62305 6 5.08789C 6 4.58008 5.83984 4.17383 5.51953 3.86914C 5.19922 3.56445 4.75977 3.40625 4.20117 3.39453L 2.11523 3.39453L 2.11523 6.74023ZM 12.2344 11C 12.1719 10.875 12.1211 10.6523 12.082 10.332C 11.5781 10.8555 10.9766 11.1172 10.2773 11.1172C 9.65234 11.1172 9.13867 10.9414 8.73633 10.5898C 8.33789 10.2344 8.13867 9.78516 8.13867 9.24219C 8.13867 8.58203 8.38867 8.07031 8.88867 7.70703C 9.39258 7.33984 10.0996 7.15625 11.0098 7.15625L 12.0645 7.15625L 12.0645 6.6582C 12.0645 6.2793 11.9512 5.97852 11.7246 5.75586C 11.498 5.5293 11.1641 5.41602 10.7227 5.41602C 10.3359 5.41602 10.0117 5.51367 9.75 5.70898C 9.48828 5.9043 9.35742 6.14062 9.35742 6.41797L 8.26758 6.41797C 8.26758 6.10156 8.37891 5.79688 8.60156 5.50391C 8.82812 5.20703 9.13281 4.97266 9.51562 4.80078C 9.90234 4.62891 10.3262 4.54297 10.7871 4.54297C 11.5176 4.54297 12.0898 4.72656 12.5039 5.09375C 12.918 5.45703 13.1328 5.95898 13.1484 6.59961L 13.1484 9.51758C 13.1484 10.0996 13.2227 10.5625 13.3711 10.9062L 13.3711 11L 12.2344 11ZM 10.4355 10.1738C 10.7754 10.1738 11.0977 10.0859 11.4023 9.91016C 11.707 9.73438 11.9277 9.50586 12.0645 9.22461L 12.0645 7.92383L 11.2148 7.92383C 9.88672 7.92383 9.22266 8.3125 9.22266 9.08984C 9.22266 9.42969 9.33594 9.69531 9.5625 9.88672C 9.78906 10.0781 10.0801 10.1738 10.4355 10.1738ZM 14.5898 7.77734C 14.5898 6.78906 14.8184 6.00391 15.2754 5.42188C 15.7324 4.83594 16.3379 4.54297 17.0918 4.54297C 17.8652 4.54297 18.4688 4.81641 18.9023 5.36328L 18.9551 4.66016L 19.9453 4.66016L 19.9453 10.8477C 19.9453 11.668 19.7012 12.3145 19.2129 12.7871C 18.7285 13.2598 18.0762 13.4961 17.2559 13.4961C 16.7988 13.4961 16.3516 13.3984 15.9141 13.2031C 15.4766 13.0078 15.1426 12.7402 14.9121 12.4004L 15.4746 11.75C 15.9395 12.3242 16.5078 12.6113 17.1797 12.6113C 17.707 12.6113 18.1172 12.4629 18.4102 12.166C 18.707 11.8691 18.8555 11.4512 18.8555 10.9121L 18.8555 10.3672C 18.4219 10.8672 17.8301 11.1172 17.0801 11.1172C 16.3379 11.1172 15.7363 10.8184 15.2754 10.2207C 14.8184 9.62305 14.5898 8.80859 14.5898 7.77734ZM 15.6797 7.90039C 15.6797 8.61523 15.8262 9.17773 16.1191 9.58789C 16.4121 9.99414 16.8223 10.1973 17.3496 10.1973C 18.0332 10.1973 18.5352 9.88672 18.8555 9.26562L 18.8555 6.37109C 18.5234 5.76562 18.0254 5.46289 17.3613 5.46289C 16.834 5.46289 16.4219 5.66797 16.125 6.07812C 15.8281 6.48828 15.6797 7.0957 15.6797 7.90039ZM 24.2168 11.1172C 23.3574 11.1172 22.6582 10.8359 22.1191 10.2734C 21.5801 9.70703 21.3105 8.95117 21.3105 8.00586L 21.3105 7.80664C 21.3105 7.17773 21.4297 6.61719 21.668 6.125C 21.9102 5.62891 22.2461 5.24219 22.6758 4.96484C 23.1094 4.68359 23.5781 4.54297 24.082 4.54297C 24.9062 4.54297 25.5469 4.81445 26.0039 5.35742C 26.4609 5.90039 26.6895 6.67773 26.6895 7.68945L 26.6895 8.14062L 22.3945 8.14062C 22.4102 8.76562 22.5918 9.27148 22.9395 9.6582C 23.291 10.041 23.7363 10.2324 24.2754 10.2324C 24.6582 10.2324 24.9824 10.1543 25.248 9.99805C 25.5137 9.8418 25.7461 9.63477 25.9453 9.37695L 26.6074 9.89258C 26.0762 10.709 25.2793 11.1172 24.2168 11.1172ZM 24.082 5.43359C 23.6445 5.43359 23.2773 5.59375 22.9805 5.91406C 22.6836 6.23047 22.5 6.67578 22.4297 7.25L 25.6055 7.25L 25.6055 7.16797C 25.5742 6.61719 25.4258 6.19141 25.1602 5.89062C 24.8945 5.58594 24.5352 5.43359 24.082 5.43359ZM 31.6406 9.31836C 31.6406 9.02539 31.5293 8.79883 31.3066 8.63867C 31.0879 8.47461 30.7031 8.33398 30.1523 8.2168C 29.6055 8.09961 29.1699 7.95898 28.8457 7.79492C 28.5254 7.63086 28.2871 7.43555 28.1309 7.20898C 27.9785 6.98242 27.9023 6.71289 27.9023 6.40039C 27.9023 5.88086 28.1211 5.44141 28.5586 5.08203C 29 4.72266 29.5625 4.54297 30.2461 4.54297C 30.9648 4.54297 31.5469 4.72852 31.9922 5.09961C 32.4414 5.4707 32.666 5.94531 32.666 6.52344L 31.5762 6.52344C 31.5762 6.22656 31.4492 5.9707 31.1953 5.75586C 30.9453 5.54102 30.6289 5.43359 30.2461 5.43359C 29.8516 5.43359 29.543 5.51953 29.3203 5.69141C 29.0977 5.86328 28.9863 6.08789 28.9863 6.36523C 28.9863 6.62695 29.0898 6.82422 29.2969 6.95703C 29.5039 7.08984 29.877 7.2168 30.416 7.33789C 30.959 7.45898 31.3984 7.60352 31.7344 7.77148C 32.0703 7.93945 32.3184 8.14258 32.4785 8.38086C 32.6426 8.61523 32.7246 8.90234 32.7246 9.24219C 32.7246 9.80859 32.498 10.2637 32.0449 10.6074C 31.5918 10.9473 31.0039 11.1172 30.2812 11.1172C 29.7734 11.1172 29.3242 11.0273 28.9336 10.8477C 28.543 10.668 28.2363 10.418 28.0137 10.0977C 27.7949 9.77344 27.6855 9.42383 27.6855 9.04883L 28.7695 9.04883C 28.7891 9.41211 28.9336 9.70117 29.2031 9.91602C 29.4766 10.127 29.8359 10.2324 30.2812 10.2324C 30.6914 10.2324 31.0195 10.1504 31.2656 9.98633C 31.5156 9.81836 31.6406 9.5957 31.6406 9.31836ZM 34.3535 11.7324L 33.4219 11.7324L 36.9844 2.46875L 37.9102 2.46875L 34.3535 11.7324ZM 42.0762 9.50586L 44.5137 2.46875L 45.7441 2.46875L 42.5801 11L 41.584 11L 38.4258 2.46875L 39.6504 2.46875L 42.0762 9.50586ZM 47.9004 11L 46.8164 11L 46.8164 4.66016L 47.9004 4.66016L 47.9004 11ZM 46.7285 2.97852C 46.7285 2.80273 46.7812 2.6543 46.8867 2.5332C 46.9961 2.41211 47.1562 2.35156 47.3672 2.35156C 47.5781 2.35156 47.7383 2.41211 47.8477 2.5332C 47.957 2.6543 48.0117 2.80273 48.0117 2.97852C 48.0117 3.1543 47.957 3.30078 47.8477 3.41797C 47.7383 3.53516 47.5781 3.59375 47.3672 3.59375C 47.1562 3.59375 46.9961 3.53516 46.8867 3.41797C 46.7812 3.30078 46.7285 3.1543 46.7285 2.97852ZM 53.332 9.31836C 53.332 9.02539 53.2207 8.79883 52.998 8.63867C 52.7793 8.47461 52.3945 8.33398 51.8438 8.2168C 51.2969 8.09961 50.8613 7.95898 50.5371 7.79492C 50.2168 7.63086 49.9785 7.43555 49.8223 7.20898C 49.6699 6.98242 49.5938 6.71289 49.5938 6.40039C 49.5938 5.88086 49.8125 5.44141 50.25 5.08203C 50.6914 4.72266 51.2539 4.54297 51.9375 4.54297C 52.6562 4.54297 53.2383 4.72852 53.6836 5.09961C 54.1328 5.4707 54.3574 5.94531 54.3574 6.52344L 53.2676 6.52344C 53.2676 6.22656 53.1406 5.9707 52.8867 5.75586C 52.6367 5.54102 52.3203 5.43359 51.9375 5.43359C 51.543 5.43359 51.2344 5.51953 51.0117 5.69141C 50.7891 5.86328 50.6777 6.08789 50.6777 6.36523C 50.6777 6.62695 50.7812 6.82422 50.9883 6.95703C 51.1953 7.08984 51.5684 7.2168 52.1074 7.33789C 52.6504 7.45898 53.0898 7.60352 53.4258 7.77148C 53.7617 7.93945 54.0098 8.14258 54.1699 8.38086C 54.334 8.61523 54.416 8.90234 54.416 9.24219C 54.416 9.80859 54.1895 10.2637 53.7363 10.6074C 53.2832 10.9473 52.6953 11.1172 51.9727 11.1172C 51.4648 11.1172 51.0156 11.0273 50.625 10.8477C 50.2344 10.668 49.9277 10.418 49.7051 10.0977C 49.4863 9.77344 49.377 9.42383 49.377 9.04883L 50.4609 9.04883C 50.4805 9.41211 50.625 9.70117 50.8945 9.91602C 51.168 10.127 51.5273 10.2324 51.9727 10.2324C 52.3828 10.2324 52.7109 10.1504 52.957 9.98633C 53.207 9.81836 53.332 9.5957 53.332 9.31836ZM 57.0059 11L 55.9219 11L 55.9219 4.66016L 57.0059 4.66016L 57.0059 11ZM 55.834 2.97852C 55.834 2.80273 55.8867 2.6543 55.9922 2.5332C 56.1016 2.41211 56.2617 2.35156 56.4727 2.35156C 56.6836 2.35156 56.8438 2.41211 56.9531 2.5332C 57.0625 2.6543 57.1172 2.80273 57.1172 2.97852C 57.1172 3.1543 57.0625 3.30078 56.9531 3.41797C 56.8438 3.53516 56.6836 3.59375 56.4727 3.59375C 56.2617 3.59375 56.1016 3.53516 55.9922 3.41797C 55.8867 3.30078 55.834 3.1543 55.834 2.97852ZM 60.2168 3.125L 60.2168 4.66016L 61.4004 4.66016L 61.4004 5.49805L 60.2168 5.49805L 60.2168 9.42969C 60.2168 9.68359 60.2695 9.875 60.375 10.0039C 60.4805 10.1289 60.6602 10.1914 60.9141 10.1914C 61.0391 10.1914 61.2109 10.168 61.4297 10.1211L 61.4297 11C 61.1445 11.0781 60.8672 11.1172 60.5977 11.1172C 60.1133 11.1172 59.748 10.9707 59.502 10.6777C 59.2559 10.3848 59.1328 9.96875 59.1328 9.42969L 59.1328 5.49805L 57.9785 5.49805L 57.9785 4.66016L 59.1328 4.66016L 59.1328 3.125L 60.2168 3.125ZM 62.2676 7.77148C 62.2676 7.15039 62.3887 6.5918 62.6309 6.0957C 62.877 5.59961 63.2168 5.2168 63.6504 4.94727C 64.0879 4.67773 64.5859 4.54297 65.1445 4.54297C 66.0078 4.54297 66.7051 4.8418 67.2363 5.43945C 67.7715 6.03711 68.0391 6.83203 68.0391 7.82422L 68.0391 7.90039C 68.0391 8.51758 67.9199 9.07227 67.6816 9.56445C 67.4473 10.0527 67.1094 10.4336 66.668 10.707C 66.2305 10.9805 65.7266 11.1172 65.1562 11.1172C 64.2969 11.1172 63.5996 10.8184 63.0645 10.2207C 62.5332 9.62305 62.2676 8.83203 62.2676 7.84766L 62.2676 7.77148ZM 63.3574 7.90039C 63.3574 8.60352 63.5195 9.16797 63.8438 9.59375C 64.1719 10.0195 64.6094 10.2324 65.1562 10.2324C 65.707 10.2324 66.1445 10.0176 66.4688 9.58789C 66.793 9.1543 66.9551 8.54883 66.9551 7.77148C 66.9551 7.07617 66.7891 6.51367 66.457 6.08398C 66.1289 5.65039 65.6914 5.43359 65.1445 5.43359C 64.6094 5.43359 64.1777 5.64648 63.8496 6.07227C 63.5215 6.49805 63.3574 7.10742 63.3574 7.90039ZM 72.4629 5.63281C 72.2988 5.60547 72.1211 5.5918 71.9297 5.5918C 71.2188 5.5918 70.7363 5.89453 70.4824 6.5L 70.4824 11L 69.3984 11L 69.3984 4.66016L 70.4531 4.66016L 70.4707 5.39258C 70.8262 4.82617 71.3301 4.54297 71.9824 4.54297C 72.1934 4.54297 72.3535 4.57031 72.4629 4.625L 72.4629 5.63281ZM 77.1562 9.31836C 77.1562 9.02539 77.0449 8.79883 76.8223 8.63867C 76.6035 8.47461 76.2188 8.33398 75.668 8.2168C 75.1211 8.09961 74.6855 7.95898 74.3613 7.79492C 74.041 7.63086 73.8027 7.43555 73.6465 7.20898C 73.4941 6.98242 73.418 6.71289 73.418 6.40039C 73.418 5.88086 73.6367 5.44141 74.0742 5.08203C 74.5156 4.72266 75.0781 4.54297 75.7617 4.54297C 76.4805 4.54297 77.0625 4.72852 77.5078 5.09961C 77.957 5.4707 78.1816 5.94531 78.1816 6.52344L 77.0918 6.52344C 77.0918 6.22656 76.9648 5.9707 76.7109 5.75586C 76.4609 5.54102 76.1445 5.43359 75.7617 5.43359C 75.3672 5.43359 75.0586 5.51953 74.8359 5.69141C 74.6133 5.86328 74.502 6.08789 74.502 6.36523C 74.502 6.62695 74.6055 6.82422 74.8125 6.95703C 75.0195 7.08984 75.3926 7.2168 75.9316 7.33789C 76.4746 7.45898 76.9141 7.60352 77.25 7.77148C 77.5859 7.93945 77.834 8.14258 77.9941 8.38086C 78.1582 8.61523 78.2402 8.90234 78.2402 9.24219C 78.2402 9.80859 78.0137 10.2637 77.5605 10.6074C 77.1074 10.9473 76.5195 11.1172 75.7969 11.1172C 75.2891 11.1172 74.8398 11.0273 74.4492 10.8477C 74.0586 10.668 73.752 10.418 73.5293 10.0977C 73.3105 9.77344 73.2012 9.42383 73.2012 9.04883L 74.2852 9.04883C 74.3047 9.41211 74.4492 9.70117 74.7188 9.91602C 74.9922 10.127 75.3516 10.2324 75.7969 10.2324C 76.207 10.2324 76.5352 10.1504 76.7812 9.98633C 77.0312 9.81836 77.1562 9.5957 77.1562 9.31836Z" transform="translate(467.65 182)" fill="#1F3F49"/>
</g>
<g id="Group">
<g id="Vector_2">
<path d="M 120 60C 120 93.1371 93.1371 120 60 120C 26.8629 120 0 93.1371 0 60C 0 26.8629 26.8629 0 60 0C 93.1371 0 120 26.8629 120 60Z" stroke-width="4" transform="translate(439 50)" stroke="#CED2CC"/>
</g>
<g id="Vector_3">
<path d="M 120 60C 120 93.1371 93.1371 120 60 120C 26.8629 120 0 93.1371 0 60C 0 26.8629 26.8629 0 60 0C 93.1371 0 120 26.8629 120 60Z" stroke-width="4" stroke-linecap="round" stroke-linejoin="round" stroke-dasharray="140 1000" transform="translate(439 170) scale(1 -1)" stroke="#23282D"/>
</g>
</g>
<g id="Group_2">
<g id="Vector_4">
<path d="M 120 60C 120 93.1371 93.1371 120 60 120C 26.8629 120 0 93.1371 0 60C 0 26.8629 26.8629 0 60 0C 93.1371 0 120 26.8629 120 60Z" stroke-width="4" transform="translate(248 50)" stroke="#CED2CC"/>
</g>
<g id="Vector_5">
<path d="M 120 60C 120 93.1371 93.1371 120 60 120C 26.8629 120 0 93.1371 0 60C 0 26.8629 26.8629 0 60 0C 93.1371 0 120 26.8629 120 60Z" stroke-width="4" stroke-linecap="round" stroke-linejoin="round" stroke-dasharray="190 1000" transform="translate(248 170) scale(1 -1)" stroke="#23282D"/>
</g>
</g>
<g id="Group_3">
<g id="Vector_6">
<path d="M 120 60C 120 93.1371 93.1371 120 60 120C 26.8629 120 0 93.1371 0 60C 0 26.8629 26.8629 0 60 0C 93.1371 0 120 26.8629 120 60Z" stroke-width="4" transform="translate(57 50)" stroke="#CED2CC"/>
</g>
<g id="Vector_7">
<path d="M 120 60C 120 93.1371 93.1371 120 60 120C 26.8629 120 0 93.1371 0 60C 0 26.8629 26.8629 0 60 0C 93.1371 0 120 26.8629 120 60Z" stroke-width="4" stroke-linecap="round" stroke-linejoin="round" stroke-dasharray="230 1000" transform="translate(57 170) scale(1 -1)" stroke="#23282D"/>
</g>
</g>
<g id="Vector_8">
<path d="M 0 0.5L 0.25 50.5M 192.646 1L 192.646 51M 389.25 0L 389.25 50" stroke-width="0.5" stroke-linecap="square" transform="translate(114 201)" stroke="#1F3F49"/>
</g>
<g id="13.79M">
<path d="M 9.9668 26L 7.42383 26L 7.42383 9.14258L 2.32422 11.0156L 2.32422 8.71875L 9.57031 5.99805L 9.9668 5.99805L 9.9668 26ZM 21.0547 14.8164L 22.9551 14.8164C 24.1491 14.7982 25.0879 14.4837 25.7715 13.873C 26.4551 13.2624 26.7969 12.4375 26.7969 11.3984C 26.7969 9.0651 25.6348 7.89844 23.3105 7.89844C 22.2168 7.89844 21.3418 8.21289 20.6855 8.8418C 20.0384 9.46159 19.7148 10.2865 19.7148 11.3164L 17.1855 11.3164C 17.1855 9.73958 17.7598 8.43164 18.9082 7.39258C 20.0658 6.3444 21.5332 5.82031 23.3105 5.82031C 25.1882 5.82031 26.6602 6.31706 27.7266 7.31055C 28.793 8.30404 29.3262 9.6849 29.3262 11.4531C 29.3262 12.319 29.0436 13.1576 28.4785 13.9688C 27.9225 14.7799 27.1615 15.3861 26.1953 15.7871C 27.2891 16.1335 28.1322 16.7077 28.7246 17.5098C 29.3262 18.3118 29.627 19.2917 29.627 20.4492C 29.627 22.2357 29.0436 23.653 27.877 24.7012C 26.7103 25.7493 25.1927 26.2734 23.3242 26.2734C 21.4557 26.2734 19.9336 25.7676 18.7578 24.7559C 17.5911 23.7441 17.0078 22.4089 17.0078 20.75L 19.5508 20.75C 19.5508 21.7982 19.8926 22.6367 20.5762 23.2656C 21.2598 23.8945 22.1758 24.209 23.3242 24.209C 24.5456 24.209 25.4798 23.89 26.127 23.252C 26.7741 22.6139 27.0977 21.6979 27.0977 20.5039C 27.0977 19.3464 26.7422 18.4577 26.0312 17.8379C 25.3203 17.2181 24.2949 16.8991 22.9551 16.8809L 21.0547 16.8809L 21.0547 14.8164ZM 33.4141 24.6738C 33.4141 24.2363 33.5417 23.8717 33.7969 23.5801C 34.0612 23.2884 34.4531 23.1426 34.9727 23.1426C 35.4922 23.1426 35.8841 23.2884 36.1484 23.5801C 36.4219 23.8717 36.5586 24.2363 36.5586 24.6738C 36.5586 25.0931 36.4219 25.444 36.1484 25.7266C 35.8841 26.0091 35.4922 26.1504 34.9727 26.1504C 34.4531 26.1504 34.0612 26.0091 33.7969 25.7266C 33.5417 25.444 33.4141 25.0931 33.4141 24.6738ZM 53.334 7.51562L 45.0898 26L 42.4375 26L 50.6543 8.17188L 39.8809 8.17188L 39.8809 6.09375L 53.334 6.09375L 53.334 7.51562ZM 65.8984 17.25C 65.3698 17.8789 64.7363 18.3848 63.998 18.7676C 63.2689 19.1504 62.4668 19.3418 61.5918 19.3418C 60.4434 19.3418 59.4408 19.0592 58.584 18.4941C 57.7363 17.929 57.0801 17.1361 56.6152 16.1152C 56.1504 15.0853 55.918 13.9505 55.918 12.7109C 55.918 11.3802 56.1686 10.1816 56.6699 9.11523C 57.1803 8.04883 57.9004 7.23307 58.8301 6.66797C 59.7598 6.10286 60.8444 5.82031 62.084 5.82031C 64.0527 5.82031 65.6022 6.55859 66.7324 8.03516C 67.8717 9.5026 68.4414 11.5078 68.4414 14.0508L 68.4414 14.7891C 68.4414 18.6628 67.6758 21.4928 66.1445 23.2793C 64.6133 25.0566 62.3027 25.9681 59.2129 26.0137L 58.7207 26.0137L 58.7207 23.8809L 59.2539 23.8809C 61.3411 23.8444 62.9453 23.3021 64.0664 22.2539C 65.1875 21.1966 65.7982 19.5286 65.8984 17.25ZM 62.002 17.25C 62.8496 17.25 63.6289 16.9902 64.3398 16.4707C 65.0599 15.9512 65.584 15.3086 65.9121 14.543L 65.9121 13.5312C 65.9121 11.8724 65.5521 10.5234 64.832 9.48438C 64.112 8.44531 63.2005 7.92578 62.0977 7.92578C 60.9857 7.92578 60.0924 8.35417 59.418 9.21094C 58.7435 10.0586 58.4062 11.1797 58.4062 12.5742C 58.4062 13.9323 58.7298 15.0534 59.377 15.9375C 60.0332 16.8125 60.9082 17.25 62.002 17.25ZM 75.9746 6.09375L 82.4824 22.3359L 88.9902 6.09375L 92.3945 6.09375L 92.3945 26L 89.7695 26L 89.7695 18.248L 90.0156 9.88086L 83.4805 26L 81.4707 26L 74.9492 9.92188L 75.209 18.248L 75.209 26L 72.584 26L 72.584 6.09375L 75.9746 6.09375Z" transform="translate(70.3047 89)" fill="#757DE8"/>
</g>
<g id="3.37M">
<path d="M 5.33203 14.8164L 7.23242 14.8164C 8.42643 14.7982 9.36523 14.4837 10.0488 13.873C 10.7324 13.2624 11.0742 12.4375 11.0742 11.3984C 11.0742 9.0651 9.91211 7.89844 7.58789 7.89844C 6.49414 7.89844 5.61914 8.21289 4.96289 8.8418C 4.31576 9.46159 3.99219 10.2865 3.99219 11.3164L 1.46289 11.3164C 1.46289 9.73958 2.03711 8.43164 3.18555 7.39258C 4.3431 6.3444 5.81055 5.82031 7.58789 5.82031C 9.46549 5.82031 10.9375 6.31706 12.0039 7.31055C 13.0703 8.30404 13.6035 9.6849 13.6035 11.4531C 13.6035 12.319 13.321 13.1576 12.7559 13.9688C 12.1999 14.7799 11.4388 15.3861 10.4727 15.7871C 11.5664 16.1335 12.4095 16.7077 13.002 17.5098C 13.6035 18.3118 13.9043 19.2917 13.9043 20.4492C 13.9043 22.2357 13.321 23.653 12.1543 24.7012C 10.9876 25.7493 9.47005 26.2734 7.60156 26.2734C 5.73307 26.2734 4.21094 25.7676 3.03516 24.7559C 1.86849 23.7441 1.28516 22.4089 1.28516 20.75L 3.82812 20.75C 3.82812 21.7982 4.16992 22.6367 4.85352 23.2656C 5.53711 23.8945 6.45312 24.209 7.60156 24.209C 8.82292 24.209 9.75716 23.89 10.4043 23.252C 11.0514 22.6139 11.375 21.6979 11.375 20.5039C 11.375 19.3464 11.0195 18.4577 10.3086 17.8379C 9.59766 17.2181 8.57227 16.8991 7.23242 16.8809L 5.33203 16.8809L 5.33203 14.8164ZM 17.6914 24.6738C 17.6914 24.2363 17.819 23.8717 18.0742 23.5801C 18.3385 23.2884 18.7305 23.1426 19.25 23.1426C 19.7695 23.1426 20.1615 23.2884 20.4258 23.5801C 20.6992 23.8717 20.8359 24.2363 20.8359 24.6738C 20.8359 25.0931 20.6992 25.444 20.4258 25.7266C 20.1615 26.0091 19.7695 26.1504 19.25 26.1504C 18.7305 26.1504 18.3385 26.0091 18.0742 25.7266C 17.819 25.444 17.6914 25.0931 17.6914 24.6738ZM 28.4375 14.8164L 30.3379 14.8164C 31.5319 14.7982 32.4707 14.4837 33.1543 13.873C 33.8379 13.2624 34.1797 12.4375 34.1797 11.3984C 34.1797 9.0651 33.0176 7.89844 30.6934 7.89844C 29.5996 7.89844 28.7246 8.21289 28.0684 8.8418C 27.4212 9.46159 27.0977 10.2865 27.0977 11.3164L 24.5684 11.3164C 24.5684 9.73958 25.1426 8.43164 26.291 7.39258C 27.4486 6.3444 28.916 5.82031 30.6934 5.82031C 32.571 5.82031 34.043 6.31706 35.1094 7.31055C 36.1758 8.30404 36.709 9.6849 36.709 11.4531C 36.709 12.319 36.4264 13.1576 35.8613 13.9688C 35.3053 14.7799 34.5443 15.3861 33.5781 15.7871C 34.6719 16.1335 35.515 16.7077 36.1074 17.5098C 36.709 18.3118 37.0098 19.2917 37.0098 20.4492C 37.0098 22.2357 36.4264 23.653 35.2598 24.7012C 34.0931 25.7493 32.5755 26.2734 30.707 26.2734C 28.8385 26.2734 27.3164 25.7676 26.1406 24.7559C 24.974 23.7441 24.3906 22.4089 24.3906 20.75L 26.9336 20.75C 26.9336 21.7982 27.2754 22.6367 27.959 23.2656C 28.6426 23.8945 29.5586 24.209 30.707 24.209C 31.9284 24.209 32.8626 23.89 33.5098 23.252C 34.1569 22.6139 34.4805 21.6979 34.4805 20.5039C 34.4805 19.3464 34.125 18.4577 33.4141 17.8379C 32.7031 17.2181 31.6777 16.8991 30.3379 16.8809L 28.4375 16.8809L 28.4375 14.8164ZM 53.334 7.51562L 45.0898 26L 42.4375 26L 50.6543 8.17188L 39.8809 8.17188L 39.8809 6.09375L 53.334 6.09375L 53.334 7.51562ZM 60.252 6.09375L 66.7598 22.3359L 73.2676 6.09375L 76.6719 6.09375L 76.6719 26L 74.0469 26L 74.0469 18.248L 74.293 9.88086L 67.7578 26L 65.748 26L 59.2266 9.92188L 59.4863 18.248L 59.4863 26L 56.8613 26L 56.8613 6.09375L 60.252 6.09375Z" transform="translate(271.986 89)" fill="#757DE8"/>
</g>
<g id="5.1">
<path d="M 2.81641 16.0195L 3.82812 6.09375L 14.0273 6.09375L 14.0273 8.43164L 5.97461 8.43164L 5.37305 13.8594C 6.34831 13.2852 7.45573 12.998 8.69531 12.998C 10.5091 12.998 11.9492 13.5996 13.0156 14.8027C 14.082 15.9967 14.6152 17.6146 14.6152 19.6562C 14.6152 21.707 14.0592 23.3249 12.9473 24.5098C 11.8444 25.6855 10.2995 26.2734 8.3125 26.2734C 6.55339 26.2734 5.11784 25.7858 4.00586 24.8105C 2.89388 23.8353 2.26042 22.4863 2.10547 20.7637L 4.49805 20.7637C 4.65299 21.903 5.05859 22.7643 5.71484 23.3477C 6.37109 23.9219 7.23698 24.209 8.3125 24.209C 9.48828 24.209 10.4089 23.8079 11.0742 23.0059C 11.7487 22.2038 12.0859 21.0964 12.0859 19.6836C 12.0859 18.3529 11.7214 17.2865 10.9922 16.4844C 10.2721 15.6732 9.31055 15.2676 8.10742 15.2676C 7.00456 15.2676 6.13867 15.5091 5.50977 15.9922L 4.83984 16.5391L 2.81641 16.0195ZM 17.6914 24.6738C 17.6914 24.2363 17.819 23.8717 18.0742 23.5801C 18.3385 23.2884 18.7305 23.1426 19.25 23.1426C 19.7695 23.1426 20.1615 23.2884 20.4258 23.5801C 20.6992 23.8717 20.8359 24.2363 20.8359 24.6738C 20.8359 25.0931 20.6992 25.444 20.4258 25.7266C 20.1615 26.0091 19.7695 26.1504 19.25 26.1504C 18.7305 26.1504 18.3385 26.0091 18.0742 25.7266C 17.819 25.444 17.6914 25.0931 17.6914 24.6738ZM 33.0723 26L 30.5293 26L 30.5293 9.14258L 25.4297 11.0156L 25.4297 8.71875L 32.6758 5.99805L 33.0723 5.99805L 33.0723 26Z" transform="translate(480.436 89)" fill="#757DE8"/>
</g>
<g id="% Prior">
<path d="M 0.563965 3.68359C 0.563965 3.21452 0.712565 2.8278 1.00977 2.52344C 1.31055 2.21908 1.69548 2.06689 2.16455 2.06689C 2.64079 2.06689 3.02572 2.22087 3.31934 2.52881C 3.61654 2.83317 3.76514 3.22884 3.76514 3.71582L 3.76514 4.09717C 3.76514 4.56982 3.61475 4.95654 3.31396 5.25732C 3.01676 5.55452 2.63721 5.70312 2.17529 5.70312C 1.7098 5.70312 1.32487 5.55452 1.02051 5.25732C 0.716146 4.95654 0.563965 4.55729 0.563965 4.05957L 0.563965 3.68359ZM 1.30518 4.09717C 1.30518 4.37646 1.38395 4.60742 1.5415 4.79004C 1.69906 4.96908 1.91032 5.05859 2.17529 5.05859C 2.42952 5.05859 2.63363 4.97087 2.7876 4.79541C 2.94515 4.61995 3.02393 4.38005 3.02393 4.07568L 3.02393 3.68359C 3.02393 3.4043 2.94694 3.17334 2.79297 2.99072C 2.639 2.80811 2.42952 2.7168 2.16455 2.7168C 1.89958 2.7168 1.6901 2.80811 1.53613 2.99072C 1.38216 3.17334 1.30518 3.41146 1.30518 3.70508L 1.30518 4.09717ZM 4.37207 8.08252C 4.37207 7.61344 4.52067 7.22852 4.81787 6.92773C 5.11865 6.62337 5.50358 6.47119 5.97266 6.47119C 6.44173 6.47119 6.82666 6.62158 7.12744 6.92236C 7.42822 7.22314 7.57861 7.6224 7.57861 8.12012L 7.57861 8.50146C 7.57861 8.97054 7.42822 9.35726 7.12744 9.66162C 6.83024 9.9624 6.44889 10.1128 5.9834 10.1128C 5.5179 10.1128 5.13298 9.96419 4.82861 9.66699C 4.52425 9.36621 4.37207 8.96696 4.37207 8.46924L 4.37207 8.08252ZM 5.11328 8.50146C 5.11328 8.78434 5.19206 9.01709 5.34961 9.19971C 5.50716 9.37874 5.71842 9.46826 5.9834 9.46826C 6.24121 9.46826 6.4471 9.38053 6.60107 9.20508C 6.75505 9.02604 6.83203 8.78434 6.83203 8.47998L 6.83203 8.08252C 6.83203 7.79964 6.75326 7.56868 6.5957 7.38965C 6.44173 7.21061 6.23405 7.12109 5.97266 7.12109C 5.71842 7.12109 5.51074 7.21061 5.34961 7.38965C 5.19206 7.5651 5.11328 7.80322 5.11328 8.104L 5.11328 8.50146ZM 2.40088 9.40918L 1.83691 9.05469L 5.65576 2.94238L 6.21973 3.29688L 2.40088 9.40918ZM 12.7241 6.93848L 12.7241 10L 11.6929 10L 11.6929 2.17969L 14.5771 2.17969C 15.4329 2.17969 16.1025 2.39811 16.5859 2.83496C 17.0729 3.27181 17.3164 3.8501 17.3164 4.56982C 17.3164 5.32894 17.0783 5.91439 16.6021 6.32617C 16.1294 6.73438 15.4508 6.93848 14.5664 6.93848L 12.7241 6.93848ZM 12.7241 6.09521L 14.5771 6.09521C 15.1286 6.09521 15.5511 5.96631 15.8447 5.7085C 16.1383 5.4471 16.2852 5.07113 16.2852 4.58057C 16.2852 4.11507 16.1383 3.74268 15.8447 3.46338C 15.5511 3.18408 15.1483 3.03906 14.6362 3.02832L 12.7241 3.02832L 12.7241 6.09521ZM 21.2856 5.08008C 21.1353 5.05501 20.9723 5.04248 20.7969 5.04248C 20.1452 5.04248 19.703 5.31999 19.4702 5.875L 19.4702 10L 18.4766 10L 18.4766 4.18848L 19.4434 4.18848L 19.4595 4.85986C 19.7853 4.34066 20.2472 4.08105 20.8452 4.08105C 21.0386 4.08105 21.1854 4.10612 21.2856 4.15625L 21.2856 5.08008ZM 23.2837 10L 22.29 10L 22.29 4.18848L 23.2837 4.18848L 23.2837 10ZM 22.2095 2.64697C 22.2095 2.48584 22.2578 2.34977 22.3545 2.23877C 22.4548 2.12777 22.6016 2.07227 22.7949 2.07227C 22.9883 2.07227 23.1351 2.12777 23.2354 2.23877C 23.3356 2.34977 23.3857 2.48584 23.3857 2.64697C 23.3857 2.80811 23.3356 2.94238 23.2354 3.0498C 23.1351 3.15723 22.9883 3.21094 22.7949 3.21094C 22.6016 3.21094 22.4548 3.15723 22.3545 3.0498C 22.2578 2.94238 22.2095 2.80811 22.2095 2.64697ZM 24.6157 7.04053C 24.6157 6.47119 24.7267 5.95915 24.9487 5.50439C 25.1743 5.04964 25.4858 4.69873 25.8833 4.45166C 26.2843 4.20459 26.7409 4.08105 27.2529 4.08105C 28.0443 4.08105 28.6834 4.35498 29.1704 4.90283C 29.661 5.45068 29.9062 6.17936 29.9062 7.08887L 29.9062 7.15869C 29.9062 7.72445 29.797 8.23291 29.5786 8.68408C 29.3638 9.13167 29.054 9.48079 28.6494 9.73145C 28.2484 9.9821 27.7865 10.1074 27.2637 10.1074C 26.4759 10.1074 25.8368 9.8335 25.3462 9.28564C 24.8592 8.73779 24.6157 8.0127 24.6157 7.11035L 24.6157 7.04053ZM 25.6147 7.15869C 25.6147 7.80322 25.7633 8.32064 26.0605 8.71094C 26.3613 9.10124 26.7624 9.29639 27.2637 9.29639C 27.7686 9.29639 28.1696 9.09945 28.4668 8.70557C 28.764 8.30811 28.9126 7.75309 28.9126 7.04053C 28.9126 6.40316 28.7604 5.88753 28.4561 5.49365C 28.1553 5.09619 27.7542 4.89746 27.2529 4.89746C 26.7624 4.89746 26.3667 5.09261 26.0659 5.48291C 25.7651 5.87321 25.6147 6.4318 25.6147 7.15869ZM 33.9614 5.08008C 33.811 5.05501 33.6481 5.04248 33.4727 5.04248C 32.821 5.04248 32.3787 5.31999 32.146 5.875L 32.146 10L 31.1523 10L 31.1523 4.18848L 32.1191 4.18848L 32.1353 4.85986C 32.4611 4.34066 32.923 4.08105 33.521 4.08105C 33.7144 4.08105 33.8612 4.10612 33.9614 4.15625L 33.9614 5.08008Z" transform="translate(72.1348 237)" fill="#1F3F49"/>
</g>
<g id="% Forecast">
<path d="M 0.563965 3.68359C 0.563965 3.21452 0.712565 2.8278 1.00977 2.52344C 1.31055 2.21908 1.69548 2.06689 2.16455 2.06689C 2.64079 2.06689 3.02572 2.22087 3.31934 2.52881C 3.61654 2.83317 3.76514 3.22884 3.76514 3.71582L 3.76514 4.09717C 3.76514 4.56982 3.61475 4.95654 3.31396 5.25732C 3.01676 5.55452 2.63721 5.70312 2.17529 5.70312C 1.7098 5.70312 1.32487 5.55452 1.02051 5.25732C 0.716146 4.95654 0.563965 4.55729 0.563965 4.05957L 0.563965 3.68359ZM 1.30518 4.09717C 1.30518 4.37646 1.38395 4.60742 1.5415 4.79004C 1.69906 4.96908 1.91032 5.05859 2.17529 5.05859C 2.42952 5.05859 2.63363 4.97087 2.7876 4.79541C 2.94515 4.61995 3.02393 4.38005 3.02393 4.07568L 3.02393 3.68359C 3.02393 3.4043 2.94694 3.17334 2.79297 2.99072C 2.639 2.80811 2.42952 2.7168 2.16455 2.7168C 1.89958 2.7168 1.6901 2.80811 1.53613 2.99072C 1.38216 3.17334 1.30518 3.41146 1.30518 3.70508L 1.30518 4.09717ZM 4.37207 8.08252C 4.37207 7.61344 4.52067 7.22852 4.81787 6.92773C 5.11865 6.62337 5.50358 6.47119 5.97266 6.47119C 6.44173 6.47119 6.82666 6.62158 7.12744 6.92236C 7.42822 7.22314 7.57861 7.6224 7.57861 8.12012L 7.57861 8.50146C 7.57861 8.97054 7.42822 9.35726 7.12744 9.66162C 6.83024 9.9624 6.44889 10.1128 5.9834 10.1128C 5.5179 10.1128 5.13298 9.96419 4.82861 9.66699C 4.52425 9.36621 4.37207 8.96696 4.37207 8.46924L 4.37207 8.08252ZM 5.11328 8.50146C 5.11328 8.78434 5.19206 9.01709 5.34961 9.19971C 5.50716 9.37874 5.71842 9.46826 5.9834 9.46826C 6.24121 9.46826 6.4471 9.38053 6.60107 9.20508C 6.75505 9.02604 6.83203 8.78434 6.83203 8.47998L 6.83203 8.08252C 6.83203 7.79964 6.75326 7.56868 6.5957 7.38965C 6.44173 7.21061 6.23405 7.12109 5.97266 7.12109C 5.71842 7.12109 5.51074 7.21061 5.34961 7.38965C 5.19206 7.5651 5.11328 7.80322 5.11328 8.104L 5.11328 8.50146ZM 2.40088 9.40918L 1.83691 9.05469L 5.65576 2.94238L 6.21973 3.29688L 2.40088 9.40918ZM 16.0059 6.54639L 12.7241 6.54639L 12.7241 10L 11.6929 10L 11.6929 2.17969L 16.5376 2.17969L 16.5376 3.02832L 12.7241 3.02832L 12.7241 5.70312L 16.0059 5.70312L 16.0059 6.54639ZM 17.2358 7.04053C 17.2358 6.47119 17.3468 5.95915 17.5688 5.50439C 17.7944 5.04964 18.106 4.69873 18.5034 4.45166C 18.9045 4.20459 19.361 4.08105 19.873 4.08105C 20.6644 4.08105 21.3035 4.35498 21.7905 4.90283C 22.2811 5.45068 22.5264 6.17936 22.5264 7.08887L 22.5264 7.15869C 22.5264 7.72445 22.4172 8.23291 22.1987 8.68408C 21.9839 9.13167 21.6742 9.48079 21.2695 9.73145C 20.8685 9.9821 20.4066 10.1074 19.8838 10.1074C 19.096 10.1074 18.4569 9.8335 17.9663 9.28564C 17.4793 8.73779 17.2358 8.0127 17.2358 7.11035L 17.2358 7.04053ZM 18.2349 7.15869C 18.2349 7.80322 18.3835 8.32064 18.6807 8.71094C 18.9814 9.10124 19.3825 9.29639 19.8838 9.29639C 20.3887 9.29639 20.7897 9.09945 21.0869 8.70557C 21.3841 8.30811 21.5327 7.75309 21.5327 7.04053C 21.5327 6.40316 21.3805 5.88753 21.0762 5.49365C 20.7754 5.09619 20.3743 4.89746 19.873 4.89746C 19.3825 4.89746 18.9868 5.09261 18.686 5.48291C 18.3853 5.87321 18.2349 6.4318 18.2349 7.15869ZM 26.5815 5.08008C 26.4312 5.05501 26.2682 5.04248 26.0928 5.04248C 25.4411 5.04248 24.9989 5.31999 24.7661 5.875L 24.7661 10L 23.7725 10L 23.7725 4.18848L 24.7393 4.18848L 24.7554 4.85986C 25.0812 4.34066 25.5431 4.08105 26.1411 4.08105C 26.3345 4.08105 26.4813 4.10612 26.5815 4.15625L 26.5815 5.08008ZM 29.8042 10.1074C 29.0164 10.1074 28.3755 9.84961 27.8813 9.33398C 27.3872 8.81478 27.1401 8.12191 27.1401 7.25537L 27.1401 7.07275C 27.1401 6.49626 27.2493 5.98242 27.4678 5.53125C 27.6898 5.0765 27.9977 4.72201 28.3916 4.46777C 28.7891 4.20996 29.2188 4.08105 29.6807 4.08105C 30.4362 4.08105 31.0234 4.32992 31.4424 4.82764C 31.8613 5.32536 32.0708 6.03792 32.0708 6.96533L 32.0708 7.37891L 28.1338 7.37891C 28.1481 7.95182 28.3146 8.41553 28.6333 8.77002C 28.9556 9.12093 29.3638 9.29639 29.8579 9.29639C 30.2088 9.29639 30.506 9.22477 30.7495 9.08154C 30.993 8.93831 31.2061 8.74854 31.3887 8.51221L 31.9956 8.98486C 31.5086 9.73324 30.7782 10.1074 29.8042 10.1074ZM 29.6807 4.89746C 29.2796 4.89746 28.943 5.04427 28.6709 5.33789C 28.3988 5.62793 28.2305 6.03613 28.166 6.5625L 31.0771 6.5625L 31.0771 6.4873C 31.0485 5.98242 30.9124 5.59212 30.6689 5.31641C 30.4255 5.03711 30.096 4.89746 29.6807 4.89746ZM 35.5566 9.29639C 35.9111 9.29639 36.2209 9.18896 36.4858 8.97412C 36.7508 8.75928 36.8976 8.49072 36.9263 8.16846L 37.8662 8.16846C 37.8483 8.50146 37.7337 8.81836 37.5225 9.11914C 37.3112 9.41992 37.0283 9.65983 36.6738 9.83887C 36.3229 10.0179 35.9505 10.1074 35.5566 10.1074C 34.7653 10.1074 34.1351 9.84424 33.666 9.31787C 33.2005 8.78792 32.9678 8.06462 32.9678 7.14795L 32.9678 6.98145C 32.9678 6.41569 33.0716 5.9126 33.2793 5.47217C 33.487 5.03174 33.7842 4.68978 34.1709 4.44629C 34.5612 4.2028 35.0213 4.08105 35.5513 4.08105C 36.203 4.08105 36.7437 4.2762 37.1733 4.6665C 37.6066 5.0568 37.8376 5.56348 37.8662 6.18652L 36.9263 6.18652C 36.8976 5.81055 36.7544 5.5026 36.4966 5.2627C 36.2424 5.01921 35.9272 4.89746 35.5513 4.89746C 35.0464 4.89746 34.6543 5.08008 34.375 5.44531C 34.0993 5.80697 33.9614 6.33154 33.9614 7.01904L 33.9614 7.20703C 33.9614 7.87663 34.0993 8.39225 34.375 8.75391C 34.6507 9.11556 35.0446 9.29639 35.5566 9.29639ZM 42.5713 10C 42.514 9.88542 42.4674 9.68132 42.4316 9.3877C 41.9697 9.86751 41.4183 10.1074 40.7773 10.1074C 40.2044 10.1074 39.7336 9.94629 39.3647 9.62402C 38.9995 9.29818 38.8169 8.88639 38.8169 8.38867C 38.8169 7.78353 39.0461 7.31445 39.5044 6.98145C 39.9663 6.64486 40.6144 6.47656 41.4487 6.47656L 42.4155 6.47656L 42.4155 6.02002C 42.4155 5.67269 42.3117 5.39697 42.104 5.19287C 41.8963 4.98519 41.5902 4.88135 41.1855 4.88135C 40.8311 4.88135 40.5339 4.97087 40.2939 5.1499C 40.054 5.32894 39.9341 5.54557 39.9341 5.7998L 38.9351 5.7998C 38.9351 5.50977 39.0371 5.23047 39.2412 4.96191C 39.4489 4.68978 39.7282 4.47493 40.0791 4.31738C 40.4336 4.15983 40.8221 4.08105 41.2446 4.08105C 41.9142 4.08105 42.4388 4.24935 42.8184 4.58594C 43.1979 4.91895 43.3949 5.37907 43.4092 5.96631L 43.4092 8.64111C 43.4092 9.17464 43.4772 9.59896 43.6133 9.91406L 43.6133 10L 42.5713 10ZM 40.9224 9.24268C 41.2339 9.24268 41.5293 9.16211 41.8086 9.00098C 42.0879 8.83984 42.2902 8.63037 42.4155 8.37256L 42.4155 7.18018L 41.6367 7.18018C 40.4193 7.18018 39.8105 7.53646 39.8105 8.24902C 39.8105 8.56055 39.9144 8.80404 40.1221 8.97949C 40.3298 9.15495 40.5965 9.24268 40.9224 9.24268ZM 48.3506 8.4585C 48.3506 8.18994 48.2485 7.98226 48.0444 7.83545C 47.8439 7.68506 47.4912 7.55615 46.9863 7.44873C 46.485 7.34131 46.0858 7.2124 45.7886 7.06201C 45.495 6.91162 45.2765 6.73258 45.1333 6.5249C 44.9937 6.31722 44.9238 6.07015 44.9238 5.78369C 44.9238 5.30745 45.1243 4.90462 45.5254 4.5752C 45.93 4.24577 46.4456 4.08105 47.0723 4.08105C 47.7311 4.08105 48.2646 4.25114 48.6729 4.59131C 49.0846 4.93148 49.2905 5.36654 49.2905 5.89648L 48.2915 5.89648C 48.2915 5.62435 48.1751 5.38981 47.9424 5.19287C 47.7132 4.99593 47.4232 4.89746 47.0723 4.89746C 46.7106 4.89746 46.4277 4.97624 46.2236 5.13379C 46.0195 5.29134 45.9175 5.49723 45.9175 5.75146C 45.9175 5.99137 46.0124 6.1722 46.2021 6.29395C 46.3919 6.41569 46.7339 6.53206 47.228 6.64307C 47.7257 6.75407 48.1286 6.88656 48.4365 7.04053C 48.7445 7.1945 48.9718 7.3807 49.1187 7.59912C 49.269 7.81396 49.3442 8.07715 49.3442 8.38867C 49.3442 8.90788 49.1366 9.32503 48.7212 9.64014C 48.3058 9.95166 47.7669 10.1074 47.1045 10.1074C 46.639 10.1074 46.2272 10.0251 45.8691 9.86035C 45.5111 9.69564 45.23 9.46647 45.0259 9.17285C 44.8254 8.87565 44.7251 8.55518 44.7251 8.21143L 45.7188 8.21143C 45.7367 8.54443 45.8691 8.80941 46.1162 9.00635C 46.3669 9.19971 46.6963 9.29639 47.1045 9.29639C 47.4805 9.29639 47.7812 9.22119 48.0068 9.0708C 48.236 8.91683 48.3506 8.71273 48.3506 8.4585ZM 51.9868 2.78125L 51.9868 4.18848L 53.0718 4.18848L 53.0718 4.95654L 51.9868 4.95654L 51.9868 8.56055C 51.9868 8.79329 52.0352 8.96875 52.1318 9.08691C 52.2285 9.2015 52.3932 9.25879 52.626 9.25879C 52.7406 9.25879 52.8981 9.2373 53.0986 9.19434L 53.0986 10C 52.8372 10.0716 52.583 10.1074 52.3359 10.1074C 51.8919 10.1074 51.5571 9.97314 51.3315 9.70459C 51.106 9.43604 50.9932 9.05469 50.9932 8.56055L 50.9932 4.95654L 49.9351 4.95654L 49.9351 4.18848L 50.9932 4.18848L 50.9932 2.78125L 51.9868 2.78125Z" transform="translate(119.686 237)" fill="#1F3F49"/>
</g>
<g id="% Prior_2">
<path d="M 0.563965 3.68359C 0.563965 3.21452 0.712565 2.8278 1.00977 2.52344C 1.31055 2.21908 1.69548 2.06689 2.16455 2.06689C 2.64079 2.06689 3.02572 2.22087 3.31934 2.52881C 3.61654 2.83317 3.76514 3.22884 3.76514 3.71582L 3.76514 4.09717C 3.76514 4.56982 3.61475 4.95654 3.31396 5.25732C 3.01676 5.55452 2.63721 5.70312 2.17529 5.70312C 1.7098 5.70312 1.32487 5.55452 1.02051 5.25732C 0.716146 4.95654 0.563965 4.55729 0.563965 4.05957L 0.563965 3.68359ZM 1.30518 4.09717C 1.30518 4.37646 1.38395 4.60742 1.5415 4.79004C 1.69906 4.96908 1.91032 5.05859 2.17529 5.05859C 2.42952 5.05859 2.63363 4.97087 2.7876 4.79541C 2.94515 4.61995 3.02393 4.38005 3.02393 4.07568L 3.02393 3.68359C 3.02393 3.4043 2.94694 3.17334 2.79297 2.99072C 2.639 2.80811 2.42952 2.7168 2.16455 2.7168C 1.89958 2.7168 1.6901 2.80811 1.53613 2.99072C 1.38216 3.17334 1.30518 3.41146 1.30518 3.70508L 1.30518 4.09717ZM 4.37207 8.08252C 4.37207 7.61344 4.52067 7.22852 4.81787 6.92773C 5.11865 6.62337 5.50358 6.47119 5.97266 6.47119C 6.44173 6.47119 6.82666 6.62158 7.12744 6.92236C 7.42822 7.22314 7.57861 7.6224 7.57861 8.12012L 7.57861 8.50146C 7.57861 8.97054 7.42822 9.35726 7.12744 9.66162C 6.83024 9.9624 6.44889 10.1128 5.9834 10.1128C 5.5179 10.1128 5.13298 9.96419 4.82861 9.66699C 4.52425 9.36621 4.37207 8.96696 4.37207 8.46924L 4.37207 8.08252ZM 5.11328 8.50146C 5.11328 8.78434 5.19206 9.01709 5.34961 9.19971C 5.50716 9.37874 5.71842 9.46826 5.9834 9.46826C 6.24121 9.46826 6.4471 9.38053 6.60107 9.20508C 6.75505 9.02604 6.83203 8.78434 6.83203 8.47998L 6.83203 8.08252C 6.83203 7.79964 6.75326 7.56868 6.5957 7.38965C 6.44173 7.21061 6.23405 7.12109 5.97266 7.12109C 5.71842 7.12109 5.51074 7.21061 5.34961 7.38965C 5.19206 7.5651 5.11328 7.80322 5.11328 8.104L 5.11328 8.50146ZM 2.40088 9.40918L 1.83691 9.05469L 5.65576 2.94238L 6.21973 3.29688L 2.40088 9.40918ZM 12.7241 6.93848L 12.7241 10L 11.6929 10L 11.6929 2.17969L 14.5771 2.17969C 15.4329 2.17969 16.1025 2.39811 16.5859 2.83496C 17.0729 3.27181 17.3164 3.8501 17.3164 4.56982C 17.3164 5.32894 17.0783 5.91439 16.6021 6.32617C 16.1294 6.73438 15.4508 6.93848 14.5664 6.93848L 12.7241 6.93848ZM 12.7241 6.09521L 14.5771 6.09521C 15.1286 6.09521 15.5511 5.96631 15.8447 5.7085C 16.1383 5.4471 16.2852 5.07113 16.2852 4.58057C 16.2852 4.11507 16.1383 3.74268 15.8447 3.46338C 15.5511 3.18408 15.1483 3.03906 14.6362 3.02832L 12.7241 3.02832L 12.7241 6.09521ZM 21.2856 5.08008C 21.1353 5.05501 20.9723 5.04248 20.7969 5.04248C 20.1452 5.04248 19.703 5.31999 19.4702 5.875L 19.4702 10L 18.4766 10L 18.4766 4.18848L 19.4434 4.18848L 19.4595 4.85986C 19.7853 4.34066 20.2472 4.08105 20.8452 4.08105C 21.0386 4.08105 21.1854 4.10612 21.2856 4.15625L 21.2856 5.08008ZM 23.2837 10L 22.29 10L 22.29 4.18848L 23.2837 4.18848L 23.2837 10ZM 22.2095 2.64697C 22.2095 2.48584 22.2578 2.34977 22.3545 2.23877C 22.4548 2.12777 22.6016 2.07227 22.7949 2.07227C 22.9883 2.07227 23.1351 2.12777 23.2354 2.23877C 23.3356 2.34977 23.3857 2.48584 23.3857 2.64697C 23.3857 2.80811 23.3356 2.94238 23.2354 3.0498C 23.1351 3.15723 22.9883 3.21094 22.7949 3.21094C 22.6016 3.21094 22.4548 3.15723 22.3545 3.0498C 22.2578 2.94238 22.2095 2.80811 22.2095 2.64697ZM 24.6157 7.04053C 24.6157 6.47119 24.7267 5.95915 24.9487 5.50439C 25.1743 5.04964 25.4858 4.69873 25.8833 4.45166C 26.2843 4.20459 26.7409 4.08105 27.2529 4.08105C 28.0443 4.08105 28.6834 4.35498 29.1704 4.90283C 29.661 5.45068 29.9062 6.17936 29.9062 7.08887L 29.9062 7.15869C 29.9062 7.72445 29.797 8.23291 29.5786 8.68408C 29.3638 9.13167 29.054 9.48079 28.6494 9.73145C 28.2484 9.9821 27.7865 10.1074 27.2637 10.1074C 26.4759 10.1074 25.8368 9.8335 25.3462 9.28564C 24.8592 8.73779 24.6157 8.0127 24.6157 7.11035L 24.6157 7.04053ZM 25.6147 7.15869C 25.6147 7.80322 25.7633 8.32064 26.0605 8.71094C 26.3613 9.10124 26.7624 9.29639 27.2637 9.29639C 27.7686 9.29639 28.1696 9.09945 28.4668 8.70557C 28.764 8.30811 28.9126 7.75309 28.9126 7.04053C 28.9126 6.40316 28.7604 5.88753 28.4561 5.49365C 28.1553 5.09619 27.7542 4.89746 27.2529 4.89746C 26.7624 4.89746 26.3667 5.09261 26.0659 5.48291C 25.7651 5.87321 25.6147 6.4318 25.6147 7.15869ZM 33.9614 5.08008C 33.811 5.05501 33.6481 5.04248 33.4727 5.04248C 32.821 5.04248 32.3787 5.31999 32.146 5.875L 32.146 10L 31.1523 10L 31.1523 4.18848L 32.1191 4.18848L 32.1353 4.85986C 32.4611 4.34066 32.923 4.08105 33.521 4.08105C 33.7144 4.08105 33.8612 4.10612 33.9614 4.15625L 33.9614 5.08008Z" transform="translate(264.135 237)" fill="#1F3F49"/>
</g>
<g id="% Forecast_2">
<path d="M 0.563965 3.68359C 0.563965 3.21452 0.712565 2.8278 1.00977 2.52344C 1.31055 2.21908 1.69548 2.06689 2.16455 2.06689C 2.64079 2.06689 3.02572 2.22087 3.31934 2.52881C 3.61654 2.83317 3.76514 3.22884 3.76514 3.71582L 3.76514 4.09717C 3.76514 4.56982 3.61475 4.95654 3.31396 5.25732C 3.01676 5.55452 2.63721 5.70312 2.17529 5.70312C 1.7098 5.70312 1.32487 5.55452 1.02051 5.25732C 0.716146 4.95654 0.563965 4.55729 0.563965 4.05957L 0.563965 3.68359ZM 1.30518 4.09717C 1.30518 4.37646 1.38395 4.60742 1.5415 4.79004C 1.69906 4.96908 1.91032 5.05859 2.17529 5.05859C 2.42952 5.05859 2.63363 4.97087 2.7876 4.79541C 2.94515 4.61995 3.02393 4.38005 3.02393 4.07568L 3.02393 3.68359C 3.02393 3.4043 2.94694 3.17334 2.79297 2.99072C 2.639 2.80811 2.42952 2.7168 2.16455 2.7168C 1.89958 2.7168 1.6901 2.80811 1.53613 2.99072C 1.38216 3.17334 1.30518 3.41146 1.30518 3.70508L 1.30518 4.09717ZM 4.37207 8.08252C 4.37207 7.61344 4.52067 7.22852 4.81787 6.92773C 5.11865 6.62337 5.50358 6.47119 5.97266 6.47119C 6.44173 6.47119 6.82666 6.62158 7.12744 6.92236C 7.42822 7.22314 7.57861 7.6224 7.57861 8.12012L 7.57861 8.50146C 7.57861 8.97054 7.42822 9.35726 7.12744 9.66162C 6.83024 9.9624 6.44889 10.1128 5.9834 10.1128C 5.5179 10.1128 5.13298 9.96419 4.82861 9.66699C 4.52425 9.36621 4.37207 8.96696 4.37207 8.46924L 4.37207 8.08252ZM 5.11328 8.50146C 5.11328 8.78434 5.19206 9.01709 5.34961 9.19971C 5.50716 9.37874 5.71842 9.46826 5.9834 9.46826C 6.24121 9.46826 6.4471 9.38053 6.60107 9.20508C 6.75505 9.02604 6.83203 8.78434 6.83203 8.47998L 6.83203 8.08252C 6.83203 7.79964 6.75326 7.56868 6.5957 7.38965C 6.44173 7.21061 6.23405 7.12109 5.97266 7.12109C 5.71842 7.12109 5.51074 7.21061 5.34961 7.38965C 5.19206 7.5651 5.11328 7.80322 5.11328 8.104L 5.11328 8.50146ZM 2.40088 9.40918L 1.83691 9.05469L 5.65576 2.94238L 6.21973 3.29688L 2.40088 9.40918ZM 16.0059 6.54639L 12.7241 6.54639L 12.7241 10L 11.6929 10L 11.6929 2.17969L 16.5376 2.17969L 16.5376 3.02832L 12.7241 3.02832L 12.7241 5.70312L 16.0059 5.70312L 16.0059 6.54639ZM 17.2358 7.04053C 17.2358 6.47119 17.3468 5.95915 17.5688 5.50439C 17.7944 5.04964 18.106 4.69873 18.5034 4.45166C 18.9045 4.20459 19.361 4.08105 19.873 4.08105C 20.6644 4.08105 21.3035 4.35498 21.7905 4.90283C 22.2811 5.45068 22.5264 6.17936 22.5264 7.08887L 22.5264 7.15869C 22.5264 7.72445 22.4172 8.23291 22.1987 8.68408C 21.9839 9.13167 21.6742 9.48079 21.2695 9.73145C 20.8685 9.9821 20.4066 10.1074 19.8838 10.1074C 19.096 10.1074 18.4569 9.8335 17.9663 9.28564C 17.4793 8.73779 17.2358 8.0127 17.2358 7.11035L 17.2358 7.04053ZM 18.2349 7.15869C 18.2349 7.80322 18.3835 8.32064 18.6807 8.71094C 18.9814 9.10124 19.3825 9.29639 19.8838 9.29639C 20.3887 9.29639 20.7897 9.09945 21.0869 8.70557C 21.3841 8.30811 21.5327 7.75309 21.5327 7.04053C 21.5327 6.40316 21.3805 5.88753 21.0762 5.49365C 20.7754 5.09619 20.3743 4.89746 19.873 4.89746C 19.3825 4.89746 18.9868 5.09261 18.686 5.48291C 18.3853 5.87321 18.2349 6.4318 18.2349 7.15869ZM 26.5815 5.08008C 26.4312 5.05501 26.2682 5.04248 26.0928 5.04248C 25.4411 5.04248 24.9989 5.31999 24.7661 5.875L 24.7661 10L 23.7725 10L 23.7725 4.18848L 24.7393 4.18848L 24.7554 4.85986C 25.0812 4.34066 25.5431 4.08105 26.1411 4.08105C 26.3345 4.08105 26.4813 4.10612 26.5815 4.15625L 26.5815 5.08008ZM 29.8042 10.1074C 29.0164 10.1074 28.3755 9.84961 27.8813 9.33398C 27.3872 8.81478 27.1401 8.12191 27.1401 7.25537L 27.1401 7.07275C 27.1401 6.49626 27.2493 5.98242 27.4678 5.53125C 27.6898 5.0765 27.9977 4.72201 28.3916 4.46777C 28.7891 4.20996 29.2188 4.08105 29.6807 4.08105C 30.4362 4.08105 31.0234 4.32992 31.4424 4.82764C 31.8613 5.32536 32.0708 6.03792 32.0708 6.96533L 32.0708 7.37891L 28.1338 7.37891C 28.1481 7.95182 28.3146 8.41553 28.6333 8.77002C 28.9556 9.12093 29.3638 9.29639 29.8579 9.29639C 30.2088 9.29639 30.506 9.22477 30.7495 9.08154C 30.993 8.93831 31.2061 8.74854 31.3887 8.51221L 31.9956 8.98486C 31.5086 9.73324 30.7782 10.1074 29.8042 10.1074ZM 29.6807 4.89746C 29.2796 4.89746 28.943 5.04427 28.6709 5.33789C 28.3988 5.62793 28.2305 6.03613 28.166 6.5625L 31.0771 6.5625L 31.0771 6.4873C 31.0485 5.98242 30.9124 5.59212 30.6689 5.31641C 30.4255 5.03711 30.096 4.89746 29.6807 4.89746ZM 35.5566 9.29639C 35.9111 9.29639 36.2209 9.18896 36.4858 8.97412C 36.7508 8.75928 36.8976 8.49072 36.9263 8.16846L 37.8662 8.16846C 37.8483 8.50146 37.7337 8.81836 37.5225 9.11914C 37.3112 9.41992 37.0283 9.65983 36.6738 9.83887C 36.3229 10.0179 35.9505 10.1074 35.5566 10.1074C 34.7653 10.1074 34.1351 9.84424 33.666 9.31787C 33.2005 8.78792 32.9678 8.06462 32.9678 7.14795L 32.9678 6.98145C 32.9678 6.41569 33.0716 5.9126 33.2793 5.47217C 33.487 5.03174 33.7842 4.68978 34.1709 4.44629C 34.5612 4.2028 35.0213 4.08105 35.5513 4.08105C 36.203 4.08105 36.7437 4.2762 37.1733 4.6665C 37.6066 5.0568 37.8376 5.56348 37.8662 6.18652L 36.9263 6.18652C 36.8976 5.81055 36.7544 5.5026 36.4966 5.2627C 36.2424 5.01921 35.9272 4.89746 35.5513 4.89746C 35.0464 4.89746 34.6543 5.08008 34.375 5.44531C 34.0993 5.80697 33.9614 6.33154 33.9614 7.01904L 33.9614 7.20703C 33.9614 7.87663 34.0993 8.39225 34.375 8.75391C 34.6507 9.11556 35.0446 9.29639 35.5566 9.29639ZM 42.5713 10C 42.514 9.88542 42.4674 9.68132 42.4316 9.3877C 41.9697 9.86751 41.4183 10.1074 40.7773 10.1074C 40.2044 10.1074 39.7336 9.94629 39.3647 9.62402C 38.9995 9.29818 38.8169 8.88639 38.8169 8.38867C 38.8169 7.78353 39.0461 7.31445 39.5044 6.98145C 39.9663 6.64486 40.6144 6.47656 41.4487 6.47656L 42.4155 6.47656L 42.4155 6.02002C 42.4155 5.67269 42.3117 5.39697 42.104 5.19287C 41.8963 4.98519 41.5902 4.88135 41.1855 4.88135C 40.8311 4.88135 40.5339 4.97087 40.2939 5.1499C 40.054 5.32894 39.9341 5.54557 39.9341 5.7998L 38.9351 5.7998C 38.9351 5.50977 39.0371 5.23047 39.2412 4.96191C 39.4489 4.68978 39.7282 4.47493 40.0791 4.31738C 40.4336 4.15983 40.8221 4.08105 41.2446 4.08105C 41.9142 4.08105 42.4388 4.24935 42.8184 4.58594C 43.1979 4.91895 43.3949 5.37907 43.4092 5.96631L 43.4092 8.64111C 43.4092 9.17464 43.4772 9.59896 43.6133 9.91406L 43.6133 10L 42.5713 10ZM 40.9224 9.24268C 41.2339 9.24268 41.5293 9.16211 41.8086 9.00098C 42.0879 8.83984 42.2902 8.63037 42.4155 8.37256L 42.4155 7.18018L 41.6367 7.18018C 40.4193 7.18018 39.8105 7.53646 39.8105 8.24902C 39.8105 8.56055 39.9144 8.80404 40.1221 8.97949C 40.3298 9.15495 40.5965 9.24268 40.9224 9.24268ZM 48.3506 8.4585C 48.3506 8.18994 48.2485 7.98226 48.0444 7.83545C 47.8439 7.68506 47.4912 7.55615 46.9863 7.44873C 46.485 7.34131 46.0858 7.2124 45.7886 7.06201C 45.495 6.91162 45.2765 6.73258 45.1333 6.5249C 44.9937 6.31722 44.9238 6.07015 44.9238 5.78369C 44.9238 5.30745 45.1243 4.90462 45.5254 4.5752C 45.93 4.24577 46.4456 4.08105 47.0723 4.08105C 47.7311 4.08105 48.2646 4.25114 48.6729 4.59131C 49.0846 4.93148 49.2905 5.36654 49.2905 5.89648L 48.2915 5.89648C 48.2915 5.62435 48.1751 5.38981 47.9424 5.19287C 47.7132 4.99593 47.4232 4.89746 47.0723 4.89746C 46.7106 4.89746 46.4277 4.97624 46.2236 5.13379C 46.0195 5.29134 45.9175 5.49723 45.9175 5.75146C 45.9175 5.99137 46.0124 6.1722 46.2021 6.29395C 46.3919 6.41569 46.7339 6.53206 47.228 6.64307C 47.7257 6.75407 48.1286 6.88656 48.4365 7.04053C 48.7445 7.1945 48.9718 7.3807 49.1187 7.59912C 49.269 7.81396 49.3442 8.07715 49.3442 8.38867C 49.3442 8.90788 49.1366 9.32503 48.7212 9.64014C 48.3058 9.95166 47.7669 10.1074 47.1045 10.1074C 46.639 10.1074 46.2272 10.0251 45.8691 9.86035C 45.5111 9.69564 45.23 9.46647 45.0259 9.17285C 44.8254 8.87565 44.7251 8.55518 44.7251 8.21143L 45.7188 8.21143C 45.7367 8.54443 45.8691 8.80941 46.1162 9.00635C 46.3669 9.19971 46.6963 9.29639 47.1045 9.29639C 47.4805 9.29639 47.7812 9.22119 48.0068 9.0708C 48.236 8.91683 48.3506 8.71273 48.3506 8.4585ZM 51.9868 2.78125L 51.9868 4.18848L 53.0718 4.18848L 53.0718 4.95654L 51.9868 4.95654L 51.9868 8.56055C 51.9868 8.79329 52.0352 8.96875 52.1318 9.08691C 52.2285 9.2015 52.3932 9.25879 52.626 9.25879C 52.7406 9.25879 52.8981 9.2373 53.0986 9.19434L 53.0986 10C 52.8372 10.0716 52.583 10.1074 52.3359 10.1074C 51.8919 10.1074 51.5571 9.97314 51.3315 9.70459C 51.106 9.43604 50.9932 9.05469 50.9932 8.56055L 50.9932 4.95654L 49.9351 4.95654L 49.9351 4.18848L 50.9932 4.18848L 50.9932 2.78125L 51.9868 2.78125Z" transform="translate(313.686 237)" fill="#1F3F49"/>
</g>
<g id="% Prior_3">
<path d="M 0.563965 3.68359C 0.563965 3.21452 0.712565 2.8278 1.00977 2.52344C 1.31055 2.21908 1.69548 2.06689 2.16455 2.06689C 2.64079 2.06689 3.02572 2.22087 3.31934 2.52881C 3.61654 2.83317 3.76514 3.22884 3.76514 3.71582L 3.76514 4.09717C 3.76514 4.56982 3.61475 4.95654 3.31396 5.25732C 3.01676 5.55452 2.63721 5.70312 2.17529 5.70312C 1.7098 5.70312 1.32487 5.55452 1.02051 5.25732C 0.716146 4.95654 0.563965 4.55729 0.563965 4.05957L 0.563965 3.68359ZM 1.30518 4.09717C 1.30518 4.37646 1.38395 4.60742 1.5415 4.79004C 1.69906 4.96908 1.91032 5.05859 2.17529 5.05859C 2.42952 5.05859 2.63363 4.97087 2.7876 4.79541C 2.94515 4.61995 3.02393 4.38005 3.02393 4.07568L 3.02393 3.68359C 3.02393 3.4043 2.94694 3.17334 2.79297 2.99072C 2.639 2.80811 2.42952 2.7168 2.16455 2.7168C 1.89958 2.7168 1.6901 2.80811 1.53613 2.99072C 1.38216 3.17334 1.30518 3.41146 1.30518 3.70508L 1.30518 4.09717ZM 4.37207 8.08252C 4.37207 7.61344 4.52067 7.22852 4.81787 6.92773C 5.11865 6.62337 5.50358 6.47119 5.97266 6.47119C 6.44173 6.47119 6.82666 6.62158 7.12744 6.92236C 7.42822 7.22314 7.57861 7.6224 7.57861 8.12012L 7.57861 8.50146C 7.57861 8.97054 7.42822 9.35726 7.12744 9.66162C 6.83024 9.9624 6.44889 10.1128 5.9834 10.1128C 5.5179 10.1128 5.13298 9.96419 4.82861 9.66699C 4.52425 9.36621 4.37207 8.96696 4.37207 8.46924L 4.37207 8.08252ZM 5.11328 8.50146C 5.11328 8.78434 5.19206 9.01709 5.34961 9.19971C 5.50716 9.37874 5.71842 9.46826 5.9834 9.46826C 6.24121 9.46826 6.4471 9.38053 6.60107 9.20508C 6.75505 9.02604 6.83203 8.78434 6.83203 8.47998L 6.83203 8.08252C 6.83203 7.79964 6.75326 7.56868 6.5957 7.38965C 6.44173 7.21061 6.23405 7.12109 5.97266 7.12109C 5.71842 7.12109 5.51074 7.21061 5.34961 7.38965C 5.19206 7.5651 5.11328 7.80322 5.11328 8.104L 5.11328 8.50146ZM 2.40088 9.40918L 1.83691 9.05469L 5.65576 2.94238L 6.21973 3.29688L 2.40088 9.40918ZM 12.7241 6.93848L 12.7241 10L 11.6929 10L 11.6929 2.17969L 14.5771 2.17969C 15.4329 2.17969 16.1025 2.39811 16.5859 2.83496C 17.0729 3.27181 17.3164 3.8501 17.3164 4.56982C 17.3164 5.32894 17.0783 5.91439 16.6021 6.32617C 16.1294 6.73438 15.4508 6.93848 14.5664 6.93848L 12.7241 6.93848ZM 12.7241 6.09521L 14.5771 6.09521C 15.1286 6.09521 15.5511 5.96631 15.8447 5.7085C 16.1383 5.4471 16.2852 5.07113 16.2852 4.58057C 16.2852 4.11507 16.1383 3.74268 15.8447 3.46338C 15.5511 3.18408 15.1483 3.03906 14.6362 3.02832L 12.7241 3.02832L 12.7241 6.09521ZM 21.2856 5.08008C 21.1353 5.05501 20.9723 5.04248 20.7969 5.04248C 20.1452 5.04248 19.703 5.31999 19.4702 5.875L 19.4702 10L 18.4766 10L 18.4766 4.18848L 19.4434 4.18848L 19.4595 4.85986C 19.7853 4.34066 20.2472 4.08105 20.8452 4.08105C 21.0386 4.08105 21.1854 4.10612 21.2856 4.15625L 21.2856 5.08008ZM 23.2837 10L 22.29 10L 22.29 4.18848L 23.2837 4.18848L 23.2837 10ZM 22.2095 2.64697C 22.2095 2.48584 22.2578 2.34977 22.3545 2.23877C 22.4548 2.12777 22.6016 2.07227 22.7949 2.07227C 22.9883 2.07227 23.1351 2.12777 23.2354 2.23877C 23.3356 2.34977 23.3857 2.48584 23.3857 2.64697C 23.3857 2.80811 23.3356 2.94238 23.2354 3.0498C 23.1351 3.15723 22.9883 3.21094 22.7949 3.21094C 22.6016 3.21094 22.4548 3.15723 22.3545 3.0498C 22.2578 2.94238 22.2095 2.80811 22.2095 2.64697ZM 24.6157 7.04053C 24.6157 6.47119 24.7267 5.95915 24.9487 5.50439C 25.1743 5.04964 25.4858 4.69873 25.8833 4.45166C 26.2843 4.20459 26.7409 4.08105 27.2529 4.08105C 28.0443 4.08105 28.6834 4.35498 29.1704 4.90283C 29.661 5.45068 29.9062 6.17936 29.9062 7.08887L 29.9062 7.15869C 29.9062 7.72445 29.797 8.23291 29.5786 8.68408C 29.3638 9.13167 29.054 9.48079 28.6494 9.73145C 28.2484 9.9821 27.7865 10.1074 27.2637 10.1074C 26.4759 10.1074 25.8368 9.8335 25.3462 9.28564C 24.8592 8.73779 24.6157 8.0127 24.6157 7.11035L 24.6157 7.04053ZM 25.6147 7.15869C 25.6147 7.80322 25.7633 8.32064 26.0605 8.71094C 26.3613 9.10124 26.7624 9.29639 27.2637 9.29639C 27.7686 9.29639 28.1696 9.09945 28.4668 8.70557C 28.764 8.30811 28.9126 7.75309 28.9126 7.04053C 28.9126 6.40316 28.7604 5.88753 28.4561 5.49365C 28.1553 5.09619 27.7542 4.89746 27.2529 4.89746C 26.7624 4.89746 26.3667 5.09261 26.0659 5.48291C 25.7651 5.87321 25.6147 6.4318 25.6147 7.15869ZM 33.9614 5.08008C 33.811 5.05501 33.6481 5.04248 33.4727 5.04248C 32.821 5.04248 32.3787 5.31999 32.146 5.875L 32.146 10L 31.1523 10L 31.1523 4.18848L 32.1191 4.18848L 32.1353 4.85986C 32.4611 4.34066 32.923 4.08105 33.521 4.08105C 33.7144 4.08105 33.8612 4.10612 33.9614 4.15625L 33.9614 5.08008Z" transform="translate(460.135 237)" fill="#1F3F49"/>
</g>
<g id="% Forecast_3">
<path d="M 0.563965 3.68359C 0.563965 3.21452 0.712565 2.8278 1.00977 2.52344C 1.31055 2.21908 1.69548 2.06689 2.16455 2.06689C 2.64079 2.06689 3.02572 2.22087 3.31934 2.52881C 3.61654 2.83317 3.76514 3.22884 3.76514 3.71582L 3.76514 4.09717C 3.76514 4.56982 3.61475 4.95654 3.31396 5.25732C 3.01676 5.55452 2.63721 5.70312 2.17529 5.70312C 1.7098 5.70312 1.32487 5.55452 1.02051 5.25732C 0.716146 4.95654 0.563965 4.55729 0.563965 4.05957L 0.563965 3.68359ZM 1.30518 4.09717C 1.30518 4.37646 1.38395 4.60742 1.5415 4.79004C 1.69906 4.96908 1.91032 5.05859 2.17529 5.05859C 2.42952 5.05859 2.63363 4.97087 2.7876 4.79541C 2.94515 4.61995 3.02393 4.38005 3.02393 4.07568L 3.02393 3.68359C 3.02393 3.4043 2.94694 3.17334 2.79297 2.99072C 2.639 2.80811 2.42952 2.7168 2.16455 2.7168C 1.89958 2.7168 1.6901 2.80811 1.53613 2.99072C 1.38216 3.17334 1.30518 3.41146 1.30518 3.70508L 1.30518 4.09717ZM 4.37207 8.08252C 4.37207 7.61344 4.52067 7.22852 4.81787 6.92773C 5.11865 6.62337 5.50358 6.47119 5.97266 6.47119C 6.44173 6.47119 6.82666 6.62158 7.12744 6.92236C 7.42822 7.22314 7.57861 7.6224 7.57861 8.12012L 7.57861 8.50146C 7.57861 8.97054 7.42822 9.35726 7.12744 9.66162C 6.83024 9.9624 6.44889 10.1128 5.9834 10.1128C 5.5179 10.1128 5.13298 9.96419 4.82861 9.66699C 4.52425 9.36621 4.37207 8.96696 4.37207 8.46924L 4.37207 8.08252ZM 5.11328 8.50146C 5.11328 8.78434 5.19206 9.01709 5.34961 9.19971C 5.50716 9.37874 5.71842 9.46826 5.9834 9.46826C 6.24121 9.46826 6.4471 9.38053 6.60107 9.20508C 6.75505 9.02604 6.83203 8.78434 6.83203 8.47998L 6.83203 8.08252C 6.83203 7.79964 6.75326 7.56868 6.5957 7.38965C 6.44173 7.21061 6.23405 7.12109 5.97266 7.12109C 5.71842 7.12109 5.51074 7.21061 5.34961 7.38965C 5.19206 7.5651 5.11328 7.80322 5.11328 8.104L 5.11328 8.50146ZM 2.40088 9.40918L 1.83691 9.05469L 5.65576 2.94238L 6.21973 3.29688L 2.40088 9.40918ZM 16.0059 6.54639L 12.7241 6.54639L 12.7241 10L 11.6929 10L 11.6929 2.17969L 16.5376 2.17969L 16.5376 3.02832L 12.7241 3.02832L 12.7241 5.70312L 16.0059 5.70312L 16.0059 6.54639ZM 17.2358 7.04053C 17.2358 6.47119 17.3468 5.95915 17.5688 5.50439C 17.7944 5.04964 18.106 4.69873 18.5034 4.45166C 18.9045 4.20459 19.361 4.08105 19.873 4.08105C 20.6644 4.08105 21.3035 4.35498 21.7905 4.90283C 22.2811 5.45068 22.5264 6.17936 22.5264 7.08887L 22.5264 7.15869C 22.5264 7.72445 22.4172 8.23291 22.1987 8.68408C 21.9839 9.13167 21.6742 9.48079 21.2695 9.73145C 20.8685 9.9821 20.4066 10.1074 19.8838 10.1074C 19.096 10.1074 18.4569 9.8335 17.9663 9.28564C 17.4793 8.73779 17.2358 8.0127 17.2358 7.11035L 17.2358 7.04053ZM 18.2349 7.15869C 18.2349 7.80322 18.3835 8.32064 18.6807 8.71094C 18.9814 9.10124 19.3825 9.29639 19.8838 9.29639C 20.3887 9.29639 20.7897 9.09945 21.0869 8.70557C 21.3841 8.30811 21.5327 7.75309 21.5327 7.04053C 21.5327 6.40316 21.3805 5.88753 21.0762 5.49365C 20.7754 5.09619 20.3743 4.89746 19.873 4.89746C 19.3825 4.89746 18.9868 5.09261 18.686 5.48291C 18.3853 5.87321 18.2349 6.4318 18.2349 7.15869ZM 26.5815 5.08008C 26.4312 5.05501 26.2682 5.04248 26.0928 5.04248C 25.4411 5.04248 24.9989 5.31999 24.7661 5.875L 24.7661 10L 23.7725 10L 23.7725 4.18848L 24.7393 4.18848L 24.7554 4.85986C 25.0812 4.34066 25.5431 4.08105 26.1411 4.08105C 26.3345 4.08105 26.4813 4.10612 26.5815 4.15625L 26.5815 5.08008ZM 29.8042 10.1074C 29.0164 10.1074 28.3755 9.84961 27.8813 9.33398C 27.3872 8.81478 27.1401 8.12191 27.1401 7.25537L 27.1401 7.07275C 27.1401 6.49626 27.2493 5.98242 27.4678 5.53125C 27.6898 5.0765 27.9977 4.72201 28.3916 4.46777C 28.7891 4.20996 29.2188 4.08105 29.6807 4.08105C 30.4362 4.08105 31.0234 4.32992 31.4424 4.82764C 31.8613 5.32536 32.0708 6.03792 32.0708 6.96533L 32.0708 7.37891L 28.1338 7.37891C 28.1481 7.95182 28.3146 8.41553 28.6333 8.77002C 28.9556 9.12093 29.3638 9.29639 29.8579 9.29639C 30.2088 9.29639 30.506 9.22477 30.7495 9.08154C 30.993 8.93831 31.2061 8.74854 31.3887 8.51221L 31.9956 8.98486C 31.5086 9.73324 30.7782 10.1074 29.8042 10.1074ZM 29.6807 4.89746C 29.2796 4.89746 28.943 5.04427 28.6709 5.33789C 28.3988 5.62793 28.2305 6.03613 28.166 6.5625L 31.0771 6.5625L 31.0771 6.4873C 31.0485 5.98242 30.9124 5.59212 30.6689 5.31641C 30.4255 5.03711 30.096 4.89746 29.6807 4.89746ZM 35.5566 9.29639C 35.9111 9.29639 36.2209 9.18896 36.4858 8.97412C 36.7508 8.75928 36.8976 8.49072 36.9263 8.16846L 37.8662 8.16846C 37.8483 8.50146 37.7337 8.81836 37.5225 9.11914C 37.3112 9.41992 37.0283 9.65983 36.6738 9.83887C 36.3229 10.0179 35.9505 10.1074 35.5566 10.1074C 34.7653 10.1074 34.1351 9.84424 33.666 9.31787C 33.2005 8.78792 32.9678 8.06462 32.9678 7.14795L 32.9678 6.98145C 32.9678 6.41569 33.0716 5.9126 33.2793 5.47217C 33.487 5.03174 33.7842 4.68978 34.1709 4.44629C 34.5612 4.2028 35.0213 4.08105 35.5513 4.08105C 36.203 4.08105 36.7437 4.2762 37.1733 4.6665C 37.6066 5.0568 37.8376 5.56348 37.8662 6.18652L 36.9263 6.18652C 36.8976 5.81055 36.7544 5.5026 36.4966 5.2627C 36.2424 5.01921 35.9272 4.89746 35.5513 4.89746C 35.0464 4.89746 34.6543 5.08008 34.375 5.44531C 34.0993 5.80697 33.9614 6.33154 33.9614 7.01904L 33.9614 7.20703C 33.9614 7.87663 34.0993 8.39225 34.375 8.75391C 34.6507 9.11556 35.0446 9.29639 35.5566 9.29639ZM 42.5713 10C 42.514 9.88542 42.4674 9.68132 42.4316 9.3877C 41.9697 9.86751 41.4183 10.1074 40.7773 10.1074C 40.2044 10.1074 39.7336 9.94629 39.3647 9.62402C 38.9995 9.29818 38.8169 8.88639 38.8169 8.38867C 38.8169 7.78353 39.0461 7.31445 39.5044 6.98145C 39.9663 6.64486 40.6144 6.47656 41.4487 6.47656L 42.4155 6.47656L 42.4155 6.02002C 42.4155 5.67269 42.3117 5.39697 42.104 5.19287C 41.8963 4.98519 41.5902 4.88135 41.1855 4.88135C 40.8311 4.88135 40.5339 4.97087 40.2939 5.1499C 40.054 5.32894 39.9341 5.54557 39.9341 5.7998L 38.9351 5.7998C 38.9351 5.50977 39.0371 5.23047 39.2412 4.96191C 39.4489 4.68978 39.7282 4.47493 40.0791 4.31738C 40.4336 4.15983 40.8221 4.08105 41.2446 4.08105C 41.9142 4.08105 42.4388 4.24935 42.8184 4.58594C 43.1979 4.91895 43.3949 5.37907 43.4092 5.96631L 43.4092 8.64111C 43.4092 9.17464 43.4772 9.59896 43.6133 9.91406L 43.6133 10L 42.5713 10ZM 40.9224 9.24268C 41.2339 9.24268 41.5293 9.16211 41.8086 9.00098C 42.0879 8.83984 42.2902 8.63037 42.4155 8.37256L 42.4155 7.18018L 41.6367 7.18018C 40.4193 7.18018 39.8105 7.53646 39.8105 8.24902C 39.8105 8.56055 39.9144 8.80404 40.1221 8.97949C 40.3298 9.15495 40.5965 9.24268 40.9224 9.24268ZM 48.3506 8.4585C 48.3506 8.18994 48.2485 7.98226 48.0444 7.83545C 47.8439 7.68506 47.4912 7.55615 46.9863 7.44873C 46.485 7.34131 46.0858 7.2124 45.7886 7.06201C 45.495 6.91162 45.2765 6.73258 45.1333 6.5249C 44.9937 6.31722 44.9238 6.07015 44.9238 5.78369C 44.9238 5.30745 45.1243 4.90462 45.5254 4.5752C 45.93 4.24577 46.4456 4.08105 47.0723 4.08105C 47.7311 4.08105 48.2646 4.25114 48.6729 4.59131C 49.0846 4.93148 49.2905 5.36654 49.2905 5.89648L 48.2915 5.89648C 48.2915 5.62435 48.1751 5.38981 47.9424 5.19287C 47.7132 4.99593 47.4232 4.89746 47.0723 4.89746C 46.7106 4.89746 46.4277 4.97624 46.2236 5.13379C 46.0195 5.29134 45.9175 5.49723 45.9175 5.75146C 45.9175 5.99137 46.0124 6.1722 46.2021 6.29395C 46.3919 6.41569 46.7339 6.53206 47.228 6.64307C 47.7257 6.75407 48.1286 6.88656 48.4365 7.04053C 48.7445 7.1945 48.9718 7.3807 49.1187 7.59912C 49.269 7.81396 49.3442 8.07715 49.3442 8.38867C 49.3442 8.90788 49.1366 9.32503 48.7212 9.64014C 48.3058 9.95166 47.7669 10.1074 47.1045 10.1074C 46.639 10.1074 46.2272 10.0251 45.8691 9.86035C 45.5111 9.69564 45.23 9.46647 45.0259 9.17285C 44.8254 8.87565 44.7251 8.55518 44.7251 8.21143L 45.7188 8.21143C 45.7367 8.54443 45.8691 8.80941 46.1162 9.00635C 46.3669 9.19971 46.6963 9.29639 47.1045 9.29639C 47.4805 9.29639 47.7812 9.22119 48.0068 9.0708C 48.236 8.91683 48.3506 8.71273 48.3506 8.4585ZM 51.9868 2.78125L 51.9868 4.18848L 53.0718 4.18848L 53.0718 4.95654L 51.9868 4.95654L 51.9868 8.56055C 51.9868 8.79329 52.0352 8.96875 52.1318 9.08691C 52.2285 9.2015 52.3932 9.25879 52.626 9.25879C 52.7406 9.25879 52.8981 9.2373 53.0986 9.19434L 53.0986 10C 52.8372 10.0716 52.583 10.1074 52.3359 10.1074C 51.8919 10.1074 51.5571 9.97314 51.3315 9.70459C 51.106 9.43604 50.9932 9.05469 50.9932 8.56055L 50.9932 4.95654L 49.9351 4.95654L 49.9351 4.18848L 50.9932 4.18848L 50.9932 2.78125L 51.9868 2.78125Z" transform="translate(509.686 237)" fill="#1F3F49"/>
</g>
<g id="20.1%">
<path d="M 5.89209 10L 0.531738 10L 0.531738 8.93652L 3.06152 6.24023C 3.40885 5.86068 3.66488 5.52946 3.82959 5.24658C 3.99788 4.9637 4.08203 4.69515 4.08203 4.44092C 4.08203 4.09359 3.9943 3.82145 3.81885 3.62451C 3.64339 3.42399 3.39274 3.32373 3.06689 3.32373C 2.71598 3.32373 2.43848 3.44548 2.23438 3.68896C 2.03385 3.92887 1.93359 4.24577 1.93359 4.63965L 0.375977 4.63965C 0.375977 4.16341 0.48877 3.72835 0.714355 3.33447C 0.943522 2.94059 1.26579 2.63265 1.68115 2.41064C 2.09652 2.18506 2.56738 2.07227 3.09375 2.07227C 3.89941 2.07227 4.52425 2.26562 4.96826 2.65234C 5.41585 3.03906 5.63965 3.58512 5.63965 4.29053C 5.63965 4.67725 5.53939 5.07113 5.33887 5.47217C 5.13835 5.87321 4.7946 6.34049 4.30762 6.87402L 2.52979 8.74854L 5.89209 8.74854L 5.89209 10ZM 12.1118 6.7666C 12.1118 7.84798 11.888 8.67513 11.4404 9.24805C 10.9928 9.82096 10.3376 10.1074 9.47461 10.1074C 8.6224 10.1074 7.9707 9.82633 7.51953 9.26416C 7.06836 8.70199 6.8374 7.89632 6.82666 6.84717L 6.82666 5.40771C 6.82666 4.31559 7.05225 3.48665 7.50342 2.9209C 7.95817 2.35514 8.61165 2.07227 9.46387 2.07227C 10.3161 2.07227 10.9678 2.35335 11.4189 2.91553C 11.8701 3.47412 12.1011 4.27799 12.1118 5.32715L 12.1118 6.7666ZM 10.5596 5.1875C 10.5596 4.53939 10.4701 4.06852 10.291 3.7749C 10.1156 3.4777 9.83984 3.3291 9.46387 3.3291C 9.09863 3.3291 8.82829 3.47054 8.65283 3.75342C 8.48096 4.03271 8.38965 4.47135 8.37891 5.06934L 8.37891 6.9707C 8.37891 7.60807 8.46484 8.08252 8.63672 8.39404C 8.81217 8.70199 9.09147 8.85596 9.47461 8.85596C 9.85417 8.85596 10.1281 8.70736 10.2964 8.41016C 10.4647 8.11296 10.5524 7.6582 10.5596 7.0459L 10.5596 5.1875ZM 13.3096 9.2373C 13.3096 8.99023 13.3919 8.78971 13.5566 8.63574C 13.7249 8.48177 13.9344 8.40479 14.1851 8.40479C 14.4393 8.40479 14.6488 8.48177 14.8135 8.63574C 14.9818 8.78971 15.0659 8.99023 15.0659 9.2373C 15.0659 9.48079 14.9836 9.67952 14.8188 9.8335C 14.6541 9.98389 14.4429 10.0591 14.1851 10.0591C 13.9308 10.0591 13.7214 9.98389 13.5566 9.8335C 13.3919 9.67952 13.3096 9.48079 13.3096 9.2373ZM 20.1362 10L 18.584 10L 18.584 4.0166L 16.731 4.59131L 16.731 3.3291L 19.9697 2.16895L 20.1362 2.16895L 20.1362 10ZM 22.6606 3.68359C 22.6606 3.20378 22.8164 2.81527 23.1279 2.51807C 23.4395 2.21729 23.8477 2.06689 24.3525 2.06689C 24.8646 2.06689 25.2764 2.21549 25.5879 2.5127C 25.8994 2.80632 26.0552 3.20557 26.0552 3.71045L 26.0552 4.09717C 26.0552 4.58057 25.8994 4.96908 25.5879 5.2627C 25.2764 5.55632 24.8682 5.70312 24.3633 5.70312C 23.8548 5.70312 23.443 5.55632 23.1279 5.2627C 22.8164 4.96549 22.6606 4.56624 22.6606 4.06494L 22.6606 3.68359ZM 23.6919 4.09717C 23.6919 4.31201 23.7528 4.48568 23.8745 4.61816C 23.9998 4.74707 24.1628 4.81152 24.3633 4.81152C 24.5638 4.81152 24.7231 4.74528 24.8413 4.61279C 24.9595 4.48031 25.0186 4.30306 25.0186 4.08105L 25.0186 3.68359C 25.0186 3.46875 24.9595 3.29508 24.8413 3.1626C 24.7231 3.03011 24.5602 2.96387 24.3525 2.96387C 24.1556 2.96387 23.9963 3.03011 23.8745 3.1626C 23.7528 3.2915 23.6919 3.47233 23.6919 3.70508L 23.6919 4.09717ZM 26.3989 8.08252C 26.3989 7.59912 26.5565 7.21061 26.8716 6.91699C 27.1867 6.61979 27.5949 6.47119 28.0962 6.47119C 28.6047 6.47119 29.0146 6.618 29.3262 6.91162C 29.6413 7.20166 29.7988 7.6027 29.7988 8.11475L 29.7988 8.50146C 29.7988 8.98128 29.6449 9.36979 29.3369 9.66699C 29.029 9.96061 28.619 10.1074 28.1069 10.1074C 27.5913 10.1074 27.1777 9.95882 26.8662 9.66162C 26.5547 9.36442 26.3989 8.97054 26.3989 8.47998L 26.3989 8.08252ZM 27.4302 8.50146C 27.4302 8.6984 27.4946 8.8667 27.6235 9.00635C 27.7524 9.146 27.9136 9.21582 28.1069 9.21582C 28.5438 9.21582 28.7622 8.97412 28.7622 8.49072L 28.7622 8.08252C 28.7622 7.86768 28.7013 7.6958 28.5796 7.56689C 28.4578 7.43441 28.2967 7.36816 28.0962 7.36816C 27.8957 7.36816 27.7345 7.43441 27.6128 7.56689C 27.491 7.6958 27.4302 7.87305 27.4302 8.09863L 27.4302 8.50146ZM 24.6694 9.41455L 23.9121 9.00635L 27.731 2.89404L 28.4883 3.30225L 24.6694 9.41455Z" transform="translate(76.0098 215)" fill="#3F51B5"/>
</g>
<g id="10.1%">
<path d="M 4.30225 10L 2.75 10L 2.75 4.0166L 0.896973 4.59131L 0.896973 3.3291L 4.13574 2.16895L 4.30225 2.16895L 4.30225 10ZM 12.1118 6.7666C 12.1118 7.84798 11.888 8.67513 11.4404 9.24805C 10.9928 9.82096 10.3376 10.1074 9.47461 10.1074C 8.6224 10.1074 7.9707 9.82633 7.51953 9.26416C 7.06836 8.70199 6.8374 7.89632 6.82666 6.84717L 6.82666 5.40771C 6.82666 4.31559 7.05225 3.48665 7.50342 2.9209C 7.95817 2.35514 8.61165 2.07227 9.46387 2.07227C 10.3161 2.07227 10.9678 2.35335 11.4189 2.91553C 11.8701 3.47412 12.1011 4.27799 12.1118 5.32715L 12.1118 6.7666ZM 10.5596 5.1875C 10.5596 4.53939 10.4701 4.06852 10.291 3.7749C 10.1156 3.4777 9.83984 3.3291 9.46387 3.3291C 9.09863 3.3291 8.82829 3.47054 8.65283 3.75342C 8.48096 4.03271 8.38965 4.47135 8.37891 5.06934L 8.37891 6.9707C 8.37891 7.60807 8.46484 8.08252 8.63672 8.39404C 8.81217 8.70199 9.09147 8.85596 9.47461 8.85596C 9.85417 8.85596 10.1281 8.70736 10.2964 8.41016C 10.4647 8.11296 10.5524 7.6582 10.5596 7.0459L 10.5596 5.1875ZM 13.3096 9.2373C 13.3096 8.99023 13.3919 8.78971 13.5566 8.63574C 13.7249 8.48177 13.9344 8.40479 14.1851 8.40479C 14.4393 8.40479 14.6488 8.48177 14.8135 8.63574C 14.9818 8.78971 15.0659 8.99023 15.0659 9.2373C 15.0659 9.48079 14.9836 9.67952 14.8188 9.8335C 14.6541 9.98389 14.4429 10.0591 14.1851 10.0591C 13.9308 10.0591 13.7214 9.98389 13.5566 9.8335C 13.3919 9.67952 13.3096 9.48079 13.3096 9.2373ZM 20.1362 10L 18.584 10L 18.584 4.0166L 16.731 4.59131L 16.731 3.3291L 19.9697 2.16895L 20.1362 2.16895L 20.1362 10ZM 22.6606 3.68359C 22.6606 3.20378 22.8164 2.81527 23.1279 2.51807C 23.4395 2.21729 23.8477 2.06689 24.3525 2.06689C 24.8646 2.06689 25.2764 2.21549 25.5879 2.5127C 25.8994 2.80632 26.0552 3.20557 26.0552 3.71045L 26.0552 4.09717C 26.0552 4.58057 25.8994 4.96908 25.5879 5.2627C 25.2764 5.55632 24.8682 5.70312 24.3633 5.70312C 23.8548 5.70312 23.443 5.55632 23.1279 5.2627C 22.8164 4.96549 22.6606 4.56624 22.6606 4.06494L 22.6606 3.68359ZM 23.6919 4.09717C 23.6919 4.31201 23.7528 4.48568 23.8745 4.61816C 23.9998 4.74707 24.1628 4.81152 24.3633 4.81152C 24.5638 4.81152 24.7231 4.74528 24.8413 4.61279C 24.9595 4.48031 25.0186 4.30306 25.0186 4.08105L 25.0186 3.68359C 25.0186 3.46875 24.9595 3.29508 24.8413 3.1626C 24.7231 3.03011 24.5602 2.96387 24.3525 2.96387C 24.1556 2.96387 23.9963 3.03011 23.8745 3.1626C 23.7528 3.2915 23.6919 3.47233 23.6919 3.70508L 23.6919 4.09717ZM 26.3989 8.08252C 26.3989 7.59912 26.5565 7.21061 26.8716 6.91699C 27.1867 6.61979 27.5949 6.47119 28.0962 6.47119C 28.6047 6.47119 29.0146 6.618 29.3262 6.91162C 29.6413 7.20166 29.7988 7.6027 29.7988 8.11475L 29.7988 8.50146C 29.7988 8.98128 29.6449 9.36979 29.3369 9.66699C 29.029 9.96061 28.619 10.1074 28.1069 10.1074C 27.5913 10.1074 27.1777 9.95882 26.8662 9.66162C 26.5547 9.36442 26.3989 8.97054 26.3989 8.47998L 26.3989 8.08252ZM 27.4302 8.50146C 27.4302 8.6984 27.4946 8.8667 27.6235 9.00635C 27.7524 9.146 27.9136 9.21582 28.1069 9.21582C 28.5438 9.21582 28.7622 8.97412 28.7622 8.49072L 28.7622 8.08252C 28.7622 7.86768 28.7013 7.6958 28.5796 7.56689C 28.4578 7.43441 28.2967 7.36816 28.0962 7.36816C 27.8957 7.36816 27.7345 7.43441 27.6128 7.56689C 27.491 7.6958 27.4302 7.87305 27.4302 8.09863L 27.4302 8.50146ZM 24.6694 9.41455L 23.9121 9.00635L 27.731 2.89404L 28.4883 3.30225L 24.6694 9.41455Z" transform="translate(133.01 215)" fill="#3F51B5"/>
</g>
<g id="4.3%">
<path d="M 5.12402 7.05664L 6.01025 7.05664L 6.01025 8.30811L 5.12402 8.30811L 5.12402 10L 3.57178 10L 3.57178 8.30811L 0.365234 8.30811L 0.29541 7.33057L 3.55566 2.17969L 5.12402 2.17969L 5.12402 7.05664ZM 1.84229 7.05664L 3.57178 7.05664L 3.57178 4.2959L 3.46973 4.47314L 1.84229 7.05664ZM 6.99316 9.2373C 6.99316 8.99023 7.07552 8.78971 7.24023 8.63574C 7.40853 8.48177 7.618 8.40479 7.86865 8.40479C 8.12288 8.40479 8.33236 8.48177 8.49707 8.63574C 8.66536 8.78971 8.74951 8.99023 8.74951 9.2373C 8.74951 9.48079 8.66715 9.67952 8.50244 9.8335C 8.33773 9.98389 8.12646 10.0591 7.86865 10.0591C 7.61442 10.0591 7.40495 9.98389 7.24023 9.8335C 7.07552 9.67952 6.99316 9.48079 6.99316 9.2373ZM 11.6284 5.40234L 12.4556 5.40234C 12.8494 5.40234 13.1413 5.30387 13.3311 5.10693C 13.5208 4.90999 13.6157 4.6486 13.6157 4.32275C 13.6157 4.00765 13.5208 3.76237 13.3311 3.58691C 13.1449 3.41146 12.887 3.32373 12.5576 3.32373C 12.2604 3.32373 12.0116 3.40609 11.811 3.5708C 11.6105 3.73193 11.5103 3.9432 11.5103 4.20459L 9.95801 4.20459C 9.95801 3.79639 10.0672 3.43115 10.2856 3.10889C 10.5076 2.78304 10.8156 2.52881 11.2095 2.34619C 11.6069 2.16357 12.0438 2.07227 12.52 2.07227C 13.3472 2.07227 13.9953 2.271 14.4644 2.66846C 14.9334 3.06234 15.168 3.60661 15.168 4.30127C 15.168 4.65934 15.0588 4.98877 14.8403 5.28955C 14.6219 5.59033 14.3354 5.82129 13.981 5.98242C 14.4214 6.13997 14.749 6.3763 14.9639 6.69141C 15.1823 7.00651 15.2915 7.37891 15.2915 7.80859C 15.2915 8.50326 15.0373 9.06006 14.5288 9.479C 14.0239 9.89795 13.3543 10.1074 12.52 10.1074C 11.7394 10.1074 11.1003 9.90153 10.6025 9.48975C 10.1084 9.07796 9.86133 8.53369 9.86133 7.85693L 11.4136 7.85693C 11.4136 8.15055 11.5228 8.39046 11.7412 8.57666C 11.9632 8.76286 12.2354 8.85596 12.5576 8.85596C 12.9264 8.85596 13.2147 8.75928 13.4224 8.56592C 13.6336 8.36898 13.7393 8.10938 13.7393 7.78711C 13.7393 7.00651 13.3096 6.61621 12.4502 6.61621L 11.6284 6.61621L 11.6284 5.40234ZM 16.3442 3.68359C 16.3442 3.20378 16.5 2.81527 16.8115 2.51807C 17.123 2.21729 17.5312 2.06689 18.0361 2.06689C 18.5482 2.06689 18.96 2.21549 19.2715 2.5127C 19.583 2.80632 19.7388 3.20557 19.7388 3.71045L 19.7388 4.09717C 19.7388 4.58057 19.583 4.96908 19.2715 5.2627C 18.96 5.55632 18.5518 5.70312 18.0469 5.70312C 17.5384 5.70312 17.1266 5.55632 16.8115 5.2627C 16.5 4.96549 16.3442 4.56624 16.3442 4.06494L 16.3442 3.68359ZM 17.3755 4.09717C 17.3755 4.31201 17.4364 4.48568 17.5581 4.61816C 17.6834 4.74707 17.8464 4.81152 18.0469 4.81152C 18.2474 4.81152 18.4067 4.74528 18.5249 4.61279C 18.6431 4.48031 18.7021 4.30306 18.7021 4.08105L 18.7021 3.68359C 18.7021 3.46875 18.6431 3.29508 18.5249 3.1626C 18.4067 3.03011 18.2438 2.96387 18.0361 2.96387C 17.8392 2.96387 17.6799 3.03011 17.5581 3.1626C 17.4364 3.2915 17.3755 3.47233 17.3755 3.70508L 17.3755 4.09717ZM 20.0825 8.08252C 20.0825 7.59912 20.2401 7.21061 20.5552 6.91699C 20.8703 6.61979 21.2785 6.47119 21.7798 6.47119C 22.2882 6.47119 22.6982 6.618 23.0098 6.91162C 23.3249 7.20166 23.4824 7.6027 23.4824 8.11475L 23.4824 8.50146C 23.4824 8.98128 23.3285 9.36979 23.0205 9.66699C 22.7126 9.96061 22.3026 10.1074 21.7905 10.1074C 21.2749 10.1074 20.8613 9.95882 20.5498 9.66162C 20.2383 9.36442 20.0825 8.97054 20.0825 8.47998L 20.0825 8.08252ZM 21.1138 8.50146C 21.1138 8.6984 21.1782 8.8667 21.3071 9.00635C 21.436 9.146 21.5972 9.21582 21.7905 9.21582C 22.2274 9.21582 22.4458 8.97412 22.4458 8.49072L 22.4458 8.08252C 22.4458 7.86768 22.3849 7.6958 22.2632 7.56689C 22.1414 7.43441 21.9803 7.36816 21.7798 7.36816C 21.5793 7.36816 21.4181 7.43441 21.2964 7.56689C 21.1746 7.6958 21.1138 7.87305 21.1138 8.09863L 21.1138 8.50146ZM 18.353 9.41455L 17.5957 9.00635L 21.4146 2.89404L 22.1719 3.30225L 18.353 9.41455Z" transform="translate(274.068 215)" fill="#3F51B5"/>
</g>
<g id="-7.1%">
<path d="M 3.61475 7.27686L 0.59082 7.27686L 0.59082 6.02539L 3.61475 6.02539L 3.61475 7.27686ZM 10.1138 3.0498L 7.08984 10L 5.45166 10L 8.48096 3.43652L 4.59229 3.43652L 4.59229 2.17969L 10.1138 2.17969L 10.1138 3.0498ZM 11.2578 9.2373C 11.2578 8.99023 11.3402 8.78971 11.5049 8.63574C 11.6732 8.48177 11.8826 8.40479 12.1333 8.40479C 12.3875 8.40479 12.597 8.48177 12.7617 8.63574C 12.93 8.78971 13.0142 8.99023 13.0142 9.2373C 13.0142 9.48079 12.9318 9.67952 12.7671 9.8335C 12.6024 9.98389 12.3911 10.0591 12.1333 10.0591C 11.8791 10.0591 11.6696 9.98389 11.5049 9.8335C 11.3402 9.67952 11.2578 9.48079 11.2578 9.2373ZM 18.0845 10L 16.5322 10L 16.5322 4.0166L 14.6792 4.59131L 14.6792 3.3291L 17.918 2.16895L 18.0845 2.16895L 18.0845 10ZM 20.6089 3.68359C 20.6089 3.20378 20.7646 2.81527 21.0762 2.51807C 21.3877 2.21729 21.7959 2.06689 22.3008 2.06689C 22.8128 2.06689 23.2246 2.21549 23.5361 2.5127C 23.8477 2.80632 24.0034 3.20557 24.0034 3.71045L 24.0034 4.09717C 24.0034 4.58057 23.8477 4.96908 23.5361 5.2627C 23.2246 5.55632 22.8164 5.70312 22.3115 5.70312C 21.8031 5.70312 21.3913 5.55632 21.0762 5.2627C 20.7646 4.96549 20.6089 4.56624 20.6089 4.06494L 20.6089 3.68359ZM 21.6401 4.09717C 21.6401 4.31201 21.701 4.48568 21.8228 4.61816C 21.9481 4.74707 22.111 4.81152 22.3115 4.81152C 22.512 4.81152 22.6714 4.74528 22.7896 4.61279C 22.9077 4.48031 22.9668 4.30306 22.9668 4.08105L 22.9668 3.68359C 22.9668 3.46875 22.9077 3.29508 22.7896 3.1626C 22.6714 3.03011 22.5085 2.96387 22.3008 2.96387C 22.1038 2.96387 21.9445 3.03011 21.8228 3.1626C 21.701 3.2915 21.6401 3.47233 21.6401 3.70508L 21.6401 4.09717ZM 24.3472 8.08252C 24.3472 7.59912 24.5047 7.21061 24.8198 6.91699C 25.1349 6.61979 25.5431 6.47119 26.0444 6.47119C 26.5529 6.47119 26.9629 6.618 27.2744 6.91162C 27.5895 7.20166 27.7471 7.6027 27.7471 8.11475L 27.7471 8.50146C 27.7471 8.98128 27.5931 9.36979 27.2852 9.66699C 26.9772 9.96061 26.5672 10.1074 26.0552 10.1074C 25.5396 10.1074 25.126 9.95882 24.8145 9.66162C 24.5029 9.36442 24.3472 8.97054 24.3472 8.47998L 24.3472 8.08252ZM 25.3784 8.50146C 25.3784 8.6984 25.4429 8.8667 25.5718 9.00635C 25.7007 9.146 25.8618 9.21582 26.0552 9.21582C 26.492 9.21582 26.7104 8.97412 26.7104 8.49072L 26.7104 8.08252C 26.7104 7.86768 26.6496 7.6958 26.5278 7.56689C 26.4061 7.43441 26.245 7.36816 26.0444 7.36816C 25.8439 7.36816 25.6828 7.43441 25.561 7.56689C 25.4393 7.6958 25.3784 7.87305 25.3784 8.09863L 25.3784 8.50146ZM 22.6177 9.41455L 21.8604 9.00635L 25.6792 2.89404L 26.4365 3.30225L 22.6177 9.41455Z" transform="translate(329.236 215)" fill="#D32D41"/>
</g>
<g id="-3.9%">
<path d="M 3.61475 7.27686L 0.59082 7.27686L 0.59082 6.02539L 3.61475 6.02539L 3.61475 7.27686ZM 6.37549 5.40234L 7.20264 5.40234C 7.59652 5.40234 7.88835 5.30387 8.07812 5.10693C 8.2679 4.90999 8.36279 4.6486 8.36279 4.32275C 8.36279 4.00765 8.2679 3.76237 8.07812 3.58691C 7.89193 3.41146 7.63411 3.32373 7.30469 3.32373C 7.00749 3.32373 6.75863 3.40609 6.55811 3.5708C 6.35758 3.73193 6.25732 3.9432 6.25732 4.20459L 4.70508 4.20459C 4.70508 3.79639 4.81429 3.43115 5.03271 3.10889C 5.25472 2.78304 5.56266 2.52881 5.95654 2.34619C 6.354 2.16357 6.79085 2.07227 7.26709 2.07227C 8.09424 2.07227 8.74235 2.271 9.21143 2.66846C 9.6805 3.06234 9.91504 3.60661 9.91504 4.30127C 9.91504 4.65934 9.80583 4.98877 9.5874 5.28955C 9.36898 5.59033 9.08252 5.82129 8.72803 5.98242C 9.16846 6.13997 9.49609 6.3763 9.71094 6.69141C 9.92936 7.00651 10.0386 7.37891 10.0386 7.80859C 10.0386 8.50326 9.78434 9.06006 9.27588 9.479C 8.771 9.89795 8.1014 10.1074 7.26709 10.1074C 6.48649 10.1074 5.84733 9.90153 5.34961 9.48975C 4.85547 9.07796 4.6084 8.53369 4.6084 7.85693L 6.16064 7.85693C 6.16064 8.15055 6.26986 8.39046 6.48828 8.57666C 6.71029 8.76286 6.98242 8.85596 7.30469 8.85596C 7.6735 8.85596 7.96175 8.75928 8.16943 8.56592C 8.3807 8.36898 8.48633 8.10938 8.48633 7.78711C 8.48633 7.00651 8.05664 6.61621 7.19727 6.61621L 6.37549 6.61621L 6.37549 5.40234ZM 11.2578 9.2373C 11.2578 8.99023 11.3402 8.78971 11.5049 8.63574C 11.6732 8.48177 11.8826 8.40479 12.1333 8.40479C 12.3875 8.40479 12.597 8.48177 12.7617 8.63574C 12.93 8.78971 13.0142 8.99023 13.0142 9.2373C 13.0142 9.48079 12.9318 9.67952 12.7671 9.8335C 12.6024 9.98389 12.3911 10.0591 12.1333 10.0591C 11.8791 10.0591 11.6696 9.98389 11.5049 9.8335C 11.3402 9.67952 11.2578 9.48079 11.2578 9.2373ZM 17.9448 6.87402C 17.5402 7.27148 17.0675 7.47021 16.5269 7.47021C 15.8358 7.47021 15.2826 7.23389 14.8672 6.76123C 14.4518 6.28499 14.2441 5.64404 14.2441 4.83838C 14.2441 4.32633 14.3551 3.85726 14.5771 3.43115C 14.8027 3.00146 15.116 2.66846 15.5171 2.43213C 15.9181 2.19222 16.3693 2.07227 16.8706 2.07227C 17.3862 2.07227 17.8446 2.20117 18.2456 2.45898C 18.6466 2.7168 18.9582 3.0874 19.1802 3.5708C 19.4022 4.0542 19.515 4.60742 19.5186 5.23047L 19.5186 5.80518C 19.5186 7.10856 19.1945 8.13265 18.5464 8.87744C 17.8983 9.62223 16.9798 10.0197 15.791 10.0698L 15.4097 10.0752L 15.4097 8.78076L 15.7534 8.77539C 17.1034 8.71452 17.8338 8.08073 17.9448 6.87402ZM 16.9082 6.2832C 17.1589 6.2832 17.3737 6.21875 17.5527 6.08984C 17.7354 5.96094 17.8732 5.80518 17.9663 5.62256L 17.9663 4.9834C 17.9663 4.45703 17.866 4.04883 17.6655 3.75879C 17.465 3.46875 17.1965 3.32373 16.8599 3.32373C 16.5483 3.32373 16.2923 3.46696 16.0918 3.75342C 15.8913 4.0363 15.791 4.39258 15.791 4.82227C 15.791 5.24837 15.8877 5.59928 16.0811 5.875C 16.278 6.14714 16.5537 6.2832 16.9082 6.2832ZM 20.6089 3.68359C 20.6089 3.20378 20.7646 2.81527 21.0762 2.51807C 21.3877 2.21729 21.7959 2.06689 22.3008 2.06689C 22.8128 2.06689 23.2246 2.21549 23.5361 2.5127C 23.8477 2.80632 24.0034 3.20557 24.0034 3.71045L 24.0034 4.09717C 24.0034 4.58057 23.8477 4.96908 23.5361 5.2627C 23.2246 5.55632 22.8164 5.70312 22.3115 5.70312C 21.8031 5.70312 21.3913 5.55632 21.0762 5.2627C 20.7646 4.96549 20.6089 4.56624 20.6089 4.06494L 20.6089 3.68359ZM 21.6401 4.09717C 21.6401 4.31201 21.701 4.48568 21.8228 4.61816C 21.9481 4.74707 22.111 4.81152 22.3115 4.81152C 22.512 4.81152 22.6714 4.74528 22.7896 4.61279C 22.9077 4.48031 22.9668 4.30306 22.9668 4.08105L 22.9668 3.68359C 22.9668 3.46875 22.9077 3.29508 22.7896 3.1626C 22.6714 3.03011 22.5085 2.96387 22.3008 2.96387C 22.1038 2.96387 21.9445 3.03011 21.8228 3.1626C 21.701 3.2915 21.6401 3.47233 21.6401 3.70508L 21.6401 4.09717ZM 24.3472 8.08252C 24.3472 7.59912 24.5047 7.21061 24.8198 6.91699C 25.1349 6.61979 25.5431 6.47119 26.0444 6.47119C 26.5529 6.47119 26.9629 6.618 27.2744 6.91162C 27.5895 7.20166 27.7471 7.6027 27.7471 8.11475L 27.7471 8.50146C 27.7471 8.98128 27.5931 9.36979 27.2852 9.66699C 26.9772 9.96061 26.5672 10.1074 26.0552 10.1074C 25.5396 10.1074 25.126 9.95882 24.8145 9.66162C 24.5029 9.36442 24.3472 8.97054 24.3472 8.47998L 24.3472 8.08252ZM 25.3784 8.50146C 25.3784 8.6984 25.4429 8.8667 25.5718 9.00635C 25.7007 9.146 25.8618 9.21582 26.0552 9.21582C 26.492 9.21582 26.7104 8.97412 26.7104 8.49072L 26.7104 8.08252C 26.7104 7.86768 26.6496 7.6958 26.5278 7.56689C 26.4061 7.43441 26.245 7.36816 26.0444 7.36816C 25.8439 7.36816 25.6828 7.43441 25.561 7.56689C 25.4393 7.6958 25.3784 7.87305 25.3784 8.09863L 25.3784 8.50146ZM 22.6177 9.41455L 21.8604 9.00635L 25.6792 2.89404L 26.4365 3.30225L 22.6177 9.41455Z" transform="translate(466.236 215)" fill="#D32D41"/>
</g>
<g id="-9.7%">
<path d="M 3.61475 7.27686L 0.59082 7.27686L 0.59082 6.02539L 3.61475 6.02539L 3.61475 7.27686ZM 8.42725 6.87402C 8.02262 7.27148 7.54997 7.47021 7.00928 7.47021C 6.3182 7.47021 5.76497 7.23389 5.34961 6.76123C 4.93424 6.28499 4.72656 5.64404 4.72656 4.83838C 4.72656 4.32633 4.83757 3.85726 5.05957 3.43115C 5.28516 3.00146 5.59847 2.66846 5.99951 2.43213C 6.40055 2.19222 6.85173 2.07227 7.35303 2.07227C 7.86865 2.07227 8.32699 2.20117 8.72803 2.45898C 9.12907 2.7168 9.44059 3.0874 9.6626 3.5708C 9.8846 4.0542 9.9974 4.60742 10.001 5.23047L 10.001 5.80518C 10.001 7.10856 9.67692 8.13265 9.02881 8.87744C 8.3807 9.62223 7.46224 10.0197 6.27344 10.0698L 5.89209 10.0752L 5.89209 8.78076L 6.23584 8.77539C 7.58577 8.71452 8.31624 8.08073 8.42725 6.87402ZM 7.39062 6.2832C 7.64128 6.2832 7.85612 6.21875 8.03516 6.08984C 8.21777 5.96094 8.35563 5.80518 8.44873 5.62256L 8.44873 4.9834C 8.44873 4.45703 8.34847 4.04883 8.14795 3.75879C 7.94743 3.46875 7.67887 3.32373 7.34229 3.32373C 7.03076 3.32373 6.77474 3.46696 6.57422 3.75342C 6.3737 4.0363 6.27344 4.39258 6.27344 4.82227C 6.27344 5.24837 6.37012 5.59928 6.56348 5.875C 6.76042 6.14714 7.03613 6.2832 7.39062 6.2832ZM 11.2578 9.2373C 11.2578 8.99023 11.3402 8.78971 11.5049 8.63574C 11.6732 8.48177 11.8826 8.40479 12.1333 8.40479C 12.3875 8.40479 12.597 8.48177 12.7617 8.63574C 12.93 8.78971 13.0142 8.99023 13.0142 9.2373C 13.0142 9.48079 12.9318 9.67952 12.7671 9.8335C 12.6024 9.98389 12.3911 10.0591 12.1333 10.0591C 11.8791 10.0591 11.6696 9.98389 11.5049 9.8335C 11.3402 9.67952 11.2578 9.48079 11.2578 9.2373ZM 19.6313 3.0498L 16.6074 10L 14.9692 10L 17.9985 3.43652L 14.1099 3.43652L 14.1099 2.17969L 19.6313 2.17969L 19.6313 3.0498ZM 20.6089 3.68359C 20.6089 3.20378 20.7646 2.81527 21.0762 2.51807C 21.3877 2.21729 21.7959 2.06689 22.3008 2.06689C 22.8128 2.06689 23.2246 2.21549 23.5361 2.5127C 23.8477 2.80632 24.0034 3.20557 24.0034 3.71045L 24.0034 4.09717C 24.0034 4.58057 23.8477 4.96908 23.5361 5.2627C 23.2246 5.55632 22.8164 5.70312 22.3115 5.70312C 21.8031 5.70312 21.3913 5.55632 21.0762 5.2627C 20.7646 4.96549 20.6089 4.56624 20.6089 4.06494L 20.6089 3.68359ZM 21.6401 4.09717C 21.6401 4.31201 21.701 4.48568 21.8228 4.61816C 21.9481 4.74707 22.111 4.81152 22.3115 4.81152C 22.512 4.81152 22.6714 4.74528 22.7896 4.61279C 22.9077 4.48031 22.9668 4.30306 22.9668 4.08105L 22.9668 3.68359C 22.9668 3.46875 22.9077 3.29508 22.7896 3.1626C 22.6714 3.03011 22.5085 2.96387 22.3008 2.96387C 22.1038 2.96387 21.9445 3.03011 21.8228 3.1626C 21.701 3.2915 21.6401 3.47233 21.6401 3.70508L 21.6401 4.09717ZM 24.3472 8.08252C 24.3472 7.59912 24.5047 7.21061 24.8198 6.91699C 25.1349 6.61979 25.5431 6.47119 26.0444 6.47119C 26.5529 6.47119 26.9629 6.618 27.2744 6.91162C 27.5895 7.20166 27.7471 7.6027 27.7471 8.11475L 27.7471 8.50146C 27.7471 8.98128 27.5931 9.36979 27.2852 9.66699C 26.9772 9.96061 26.5672 10.1074 26.0552 10.1074C 25.5396 10.1074 25.126 9.95882 24.8145 9.66162C 24.5029 9.36442 24.3472 8.97054 24.3472 8.47998L 24.3472 8.08252ZM 25.3784 8.50146C 25.3784 8.6984 25.4429 8.8667 25.5718 9.00635C 25.7007 9.146 25.8618 9.21582 26.0552 9.21582C 26.492 9.21582 26.7104 8.97412 26.7104 8.49072L 26.7104 8.08252C 26.7104 7.86768 26.6496 7.6958 26.5278 7.56689C 26.4061 7.43441 26.245 7.36816 26.0444 7.36816C 25.8439 7.36816 25.6828 7.43441 25.561 7.56689C 25.4393 7.6958 25.3784 7.87305 25.3784 8.09863L 25.3784 8.50146ZM 22.6177 9.41455L 21.8604 9.00635L 25.6792 2.89404L 26.4365 3.30225L 22.6177 9.41455Z" transform="translate(523.236 215)" fill="#D32D41"/>
</g>
<g id="Group_4">
<g id="Group_5">
<g id="Existing">
<path d="M 5.32812 6.38525L 1.93896 6.38525L 1.93896 9.15674L 5.87598 9.15674L 5.87598 10L 0.907715 10L 0.907715 2.17969L 5.82227 2.17969L 5.82227 3.02832L 1.93896 3.02832L 1.93896 5.54199L 5.32812 5.54199L 5.32812 6.38525ZM 8.95361 6.31006L 10.2427 4.18848L 11.4028 4.18848L 9.50146 7.06201L 11.4619 10L 10.3125 10L 8.96973 7.82471L 7.62695 10L 6.47217 10L 8.43262 7.06201L 6.53125 4.18848L 7.68066 4.18848L 8.95361 6.31006ZM 13.5405 10L 12.5469 10L 12.5469 4.18848L 13.5405 4.18848L 13.5405 10ZM 12.4663 2.64697C 12.4663 2.48584 12.5146 2.34977 12.6113 2.23877C 12.7116 2.12777 12.8584 2.07227 13.0518 2.07227C 13.2451 2.07227 13.3919 2.12777 13.4922 2.23877C 13.5924 2.34977 13.6426 2.48584 13.6426 2.64697C 13.6426 2.80811 13.5924 2.94238 13.4922 3.0498C 13.3919 3.15723 13.2451 3.21094 13.0518 3.21094C 12.8584 3.21094 12.7116 3.15723 12.6113 3.0498C 12.5146 2.94238 12.4663 2.80811 12.4663 2.64697ZM 18.5195 8.4585C 18.5195 8.18994 18.4175 7.98226 18.2134 7.83545C 18.0129 7.68506 17.6602 7.55615 17.1553 7.44873C 16.654 7.34131 16.2547 7.2124 15.9575 7.06201C 15.6639 6.91162 15.4455 6.73258 15.3022 6.5249C 15.1626 6.31722 15.0928 6.07015 15.0928 5.78369C 15.0928 5.30745 15.2933 4.90462 15.6943 4.5752C 16.099 4.24577 16.6146 4.08105 17.2412 4.08105C 17.9001 4.08105 18.4336 4.25114 18.8418 4.59131C 19.2536 4.93148 19.4595 5.36654 19.4595 5.89648L 18.4604 5.89648C 18.4604 5.62435 18.3441 5.38981 18.1113 5.19287C 17.8822 4.99593 17.5921 4.89746 17.2412 4.89746C 16.8796 4.89746 16.5967 4.97624 16.3926 5.13379C 16.1885 5.29134 16.0864 5.49723 16.0864 5.75146C 16.0864 5.99137 16.1813 6.1722 16.3711 6.29395C 16.5609 6.41569 16.9028 6.53206 17.397 6.64307C 17.8947 6.75407 18.2975 6.88656 18.6055 7.04053C 18.9134 7.1945 19.1408 7.3807 19.2876 7.59912C 19.438 7.81396 19.5132 8.07715 19.5132 8.38867C 19.5132 8.90788 19.3055 9.32503 18.8901 9.64014C 18.4748 9.95166 17.9359 10.1074 17.2734 10.1074C 16.8079 10.1074 16.3962 10.0251 16.0381 9.86035C 15.68 9.69564 15.3989 9.46647 15.1948 9.17285C 14.9943 8.87565 14.894 8.55518 14.894 8.21143L 15.8877 8.21143C 15.9056 8.54443 16.0381 8.80941 16.2852 9.00635C 16.5358 9.19971 16.8652 9.29639 17.2734 9.29639C 17.6494 9.29639 17.9502 9.22119 18.1758 9.0708C 18.4049 8.91683 18.5195 8.71273 18.5195 8.4585ZM 22.1558 2.78125L 22.1558 4.18848L 23.2407 4.18848L 23.2407 4.95654L 22.1558 4.95654L 22.1558 8.56055C 22.1558 8.79329 22.2041 8.96875 22.3008 9.08691C 22.3975 9.2015 22.5622 9.25879 22.7949 9.25879C 22.9095 9.25879 23.0671 9.2373 23.2676 9.19434L 23.2676 10C 23.0062 10.0716 22.752 10.1074 22.5049 10.1074C 22.0609 10.1074 21.7261 9.97314 21.5005 9.70459C 21.2749 9.43604 21.1621 9.05469 21.1621 8.56055L 21.1621 4.95654L 20.104 4.95654L 20.104 4.18848L 21.1621 4.18848L 21.1621 2.78125L 22.1558 2.78125ZM 25.4858 10L 24.4922 10L 24.4922 4.18848L 25.4858 4.18848L 25.4858 10ZM 24.4116 2.64697C 24.4116 2.48584 24.46 2.34977 24.5566 2.23877C 24.6569 2.12777 24.8037 2.07227 24.9971 2.07227C 25.1904 2.07227 25.3372 2.12777 25.4375 2.23877C 25.5378 2.34977 25.5879 2.48584 25.5879 2.64697C 25.5879 2.80811 25.5378 2.94238 25.4375 3.0498C 25.3372 3.15723 25.1904 3.21094 24.9971 3.21094C 24.8037 3.21094 24.6569 3.15723 24.5566 3.0498C 24.46 2.94238 24.4116 2.80811 24.4116 2.64697ZM 28.021 4.18848L 28.0532 4.91895C 28.4972 4.36035 29.0773 4.08105 29.7935 4.08105C 31.0216 4.08105 31.6411 4.77393 31.6519 6.15967L 31.6519 10L 30.6582 10L 30.6582 6.1543C 30.6546 5.73535 30.5579 5.42562 30.3682 5.2251C 30.182 5.02458 29.8901 4.92432 29.4927 4.92432C 29.1704 4.92432 28.8875 5.01025 28.644 5.18213C 28.4006 5.354 28.2108 5.57959 28.0747 5.85889L 28.0747 10L 27.0811 10L 27.0811 4.18848L 28.021 4.18848ZM 32.9141 7.0459C 32.9141 6.13997 33.1235 5.42025 33.5425 4.88672C 33.9614 4.34961 34.5164 4.08105 35.2075 4.08105C 35.9165 4.08105 36.4697 4.33171 36.8672 4.83301L 36.9155 4.18848L 37.8232 4.18848L 37.8232 9.86035C 37.8232 10.6123 37.5994 11.2049 37.1519 11.6382C 36.7078 12.0715 36.1099 12.2881 35.3579 12.2881C 34.939 12.2881 34.529 12.1986 34.1279 12.0195C 33.7269 11.8405 33.4207 11.5952 33.2095 11.2837L 33.7251 10.6875C 34.1512 11.2139 34.6722 11.4771 35.2881 11.4771C 35.7715 11.4771 36.1475 11.341 36.416 11.0688C 36.6882 10.7967 36.8242 10.4136 36.8242 9.91943L 36.8242 9.41992C 36.4268 9.87826 35.8843 10.1074 35.1968 10.1074C 34.5164 10.1074 33.965 9.8335 33.5425 9.28564C 33.1235 8.73779 32.9141 7.99121 32.9141 7.0459ZM 33.9131 7.15869C 33.9131 7.81396 34.0474 8.32959 34.3159 8.70557C 34.5845 9.07796 34.9604 9.26416 35.4438 9.26416C 36.0705 9.26416 36.5306 8.97949 36.8242 8.41016L 36.8242 5.75684C 36.5199 5.20182 36.0633 4.92432 35.4546 4.92432C 34.9712 4.92432 34.5934 5.1123 34.3213 5.48828C 34.0492 5.86426 33.9131 6.42106 33.9131 7.15869Z" transform="translate(559.244 9.85791)" fill="#1F3F49"/>
</g>
<g id="Vector_9">
<path d="M 4.444 8C 6.89835 8 8.888 6.20914 8.888 4C 8.888 1.79086 6.89835 0 4.444 0C 1.98965 0 0 1.79086 0 4C 0 6.20914 1.98965 8 4.444 8Z" transform="translate(545.018 13.3049)" fill="#CED2CC"/>
</g>
</g>
<g id="New">
<path d="M 6.91797 10L 5.88135 10L 1.94434 3.97363L 1.94434 10L 0.907715 10L 0.907715 2.17969L 1.94434 2.17969L 5.89209 8.23291L 5.89209 2.17969L 6.91797 2.17969L 6.91797 10ZM 11.0054 10.1074C 10.2176 10.1074 9.57666 9.84961 9.08252 9.33398C 8.58838 8.81478 8.34131 8.12191 8.34131 7.25537L 8.34131 7.07275C 8.34131 6.49626 8.45052 5.98242 8.66895 5.53125C 8.89095 5.0765 9.19889 4.72201 9.59277 4.46777C 9.99023 4.20996 10.4199 4.08105 10.8818 4.08105C 11.6374 4.08105 12.2246 4.32992 12.6436 4.82764C 13.0625 5.32536 13.272 6.03792 13.272 6.96533L 13.272 7.37891L 9.33496 7.37891C 9.34928 7.95182 9.51579 8.41553 9.83447 8.77002C 10.1567 9.12093 10.5649 9.29639 11.0591 9.29639C 11.41 9.29639 11.7072 9.22477 11.9507 9.08154C 12.1942 8.93831 12.4072 8.74854 12.5898 8.51221L 13.1968 8.98486C 12.7098 9.73324 11.9793 10.1074 11.0054 10.1074ZM 10.8818 4.89746C 10.4808 4.89746 10.1442 5.04427 9.87207 5.33789C 9.59993 5.62793 9.43164 6.03613 9.36719 6.5625L 12.2783 6.5625L 12.2783 6.4873C 12.2497 5.98242 12.1136 5.59212 11.8701 5.31641C 11.6266 5.03711 11.2972 4.89746 10.8818 4.89746ZM 19.5723 8.63037L 20.6895 4.18848L 21.6831 4.18848L 19.9912 10L 19.1855 10L 17.7729 5.5957L 16.3979 10L 15.5923 10L 13.9058 4.18848L 14.894 4.18848L 16.0381 8.53906L 17.3916 4.18848L 18.1919 4.18848L 19.5723 8.63037Z" transform="translate(512.391 9.85791)" fill="#1F3F49"/>
</g>
<g id="Vector_10">
<path d="M 4 8C 6.20914 8 8 6.20914 8 4C 8 1.79086 6.20914 0 4 0C 1.79086 0 0 1.79086 0 4C 0 6.20914 1.79086 8 4 8Z" transform="translate(499.588 13.3049)" fill="#23282D"/>
</g>
</g>
</g>
</g>
</svg>

