<svg width="679" height="338" viewBox="0 0 679 338" version="1.1" xmlns="http://www.w3.org/2000/svg" xmlns:xlink="http://www.w3.org/1999/xlink">
<g id="Canvas" fill="none">
<g id="Group 2">
<g id="Vector">
<path d="M 679 0L 0 0L 0 338L 679 338L 679 0Z" fill="white"/>
</g>
<g id="Vector_2">
<path d="M 672 0L 0 0L 0 318L 672 318L 672 0Z" transform="translate(5 8)" fill="white"/>
</g>
<g id="Group">
<g id="Group_2">
<g id="Vector_3">
<path d="M -2.62592e-09 229.667L 607.094 229.667M -2.62592e-09 1.11777e-08L 607.094 1.11777e-08L -2.62592e-09 1.11777e-08ZM -2.62592e-09 45.9333L 607.094 45.9333L -2.62592e-09 45.9333ZM -2.62592e-09 91.8667L 607.094 91.8667L -2.62592e-09 91.8667ZM -2.62592e-09 137.8L 607.094 137.8L -2.62592e-09 137.8ZM -2.62592e-09 183.733L 607.094 183.733L -2.62592e-09 183.733Z" stroke-width="0.6" stroke-linecap="square" transform="translate(42.7637 68.4202)" stroke="url(#paint0_radial)"/>
</g>
</g>
<g id="Group_3">
<g id="0">
<path d="M 5.04883 5.96777C 5.04883 7.02572 4.86816 7.81185 4.50684 8.32617C 4.14551 8.84049 3.58073 9.09766 2.8125 9.09766C 2.05404 9.09766 1.49251 8.84701 1.12793 8.3457C 0.763346 7.84115 0.574544 7.08919 0.561523 6.08984L 0.561523 4.88379C 0.561523 3.83887 0.742188 3.0625 1.10352 2.55469C 1.46484 2.04688 2.03125 1.79297 2.80273 1.79297C 3.56771 1.79297 4.13086 2.03874 4.49219 2.53027C 4.85352 3.01855 5.03906 3.77376 5.04883 4.7959L 5.04883 5.96777ZM 4.14551 4.73242C 4.14551 3.96745 4.03809 3.41081 3.82324 3.0625C 3.6084 2.71094 3.26823 2.53516 2.80273 2.53516C 2.34049 2.53516 2.00358 2.70931 1.79199 3.05762C 1.5804 3.40592 1.47135 3.94141 1.46484 4.66406L 1.46484 6.10938C 1.46484 6.8776 1.57552 7.44564 1.79688 7.81348C 2.02148 8.17806 2.36003 8.36035 2.8125 8.36035C 3.25846 8.36035 3.58887 8.18783 3.80371 7.84277C 4.02181 7.49772 4.13574 6.9541 4.14551 6.21191L 4.14551 4.73242Z" transform="translate(27.8984 290.67)" fill="#1F3F49"/>
</g>
<g id="200K">
<path d="M 5.24902 9L 0.59082 9L 0.59082 8.35059L 3.05176 5.61621C 3.41634 5.2028 3.66699 4.86751 3.80371 4.61035C 3.94368 4.34993 4.01367 4.08138 4.01367 3.80469C 4.01367 3.43359 3.90137 3.12923 3.67676 2.8916C 3.45215 2.65397 3.15267 2.53516 2.77832 2.53516C 2.3291 2.53516 1.97917 2.66374 1.72852 2.9209C 1.48112 3.1748 1.35742 3.52962 1.35742 3.98535L 0.454102 3.98535C 0.454102 3.33105 0.664062 2.80208 1.08398 2.39844C 1.50716 1.99479 2.07194 1.79297 2.77832 1.79297C 3.43913 1.79297 3.96159 1.96712 4.3457 2.31543C 4.72982 2.66048 4.92188 3.12109 4.92188 3.69727C 4.92188 4.39714 4.47591 5.23047 3.58398 6.19727L 1.67969 8.2627L 5.24902 8.2627L 5.24902 9ZM 10.6641 5.96777C 10.6641 7.02572 10.4834 7.81185 10.1221 8.32617C 9.76074 8.84049 9.19596 9.09766 8.42773 9.09766C 7.66927 9.09766 7.10775 8.84701 6.74316 8.3457C 6.37858 7.84115 6.18978 7.08919 6.17676 6.08984L 6.17676 4.88379C 6.17676 3.83887 6.35742 3.0625 6.71875 2.55469C 7.08008 2.04688 7.64648 1.79297 8.41797 1.79297C 9.18294 1.79297 9.74609 2.03874 10.1074 2.53027C 10.4688 3.01855 10.6543 3.77376 10.6641 4.7959L 10.6641 5.96777ZM 9.76074 4.73242C 9.76074 3.96745 9.65332 3.41081 9.43848 3.0625C 9.22363 2.71094 8.88346 2.53516 8.41797 2.53516C 7.95573 2.53516 7.61882 2.70931 7.40723 3.05762C 7.19564 3.40592 7.08659 3.94141 7.08008 4.66406L 7.08008 6.10938C 7.08008 6.8776 7.19076 7.44564 7.41211 7.81348C 7.63672 8.17806 7.97526 8.36035 8.42773 8.36035C 8.8737 8.36035 9.2041 8.18783 9.41895 7.84277C 9.63704 7.49772 9.75098 6.9541 9.76074 6.21191L 9.76074 4.73242ZM 16.2793 5.96777C 16.2793 7.02572 16.0986 7.81185 15.7373 8.32617C 15.376 8.84049 14.8112 9.09766 14.043 9.09766C 13.2845 9.09766 12.723 8.84701 12.3584 8.3457C 11.9938 7.84115 11.805 7.08919 11.792 6.08984L 11.792 4.88379C 11.792 3.83887 11.9727 3.0625 12.334 2.55469C 12.6953 2.04688 13.2617 1.79297 14.0332 1.79297C 14.7982 1.79297 15.3613 2.03874 15.7227 2.53027C 16.084 3.01855 16.2695 3.77376 16.2793 4.7959L 16.2793 5.96777ZM 15.376 4.73242C 15.376 3.96745 15.2686 3.41081 15.0537 3.0625C 14.8389 2.71094 14.4987 2.53516 14.0332 2.53516C 13.571 2.53516 13.234 2.70931 13.0225 3.05762C 12.8109 3.40592 12.7018 3.94141 12.6953 4.66406L 12.6953 6.10938C 12.6953 6.8776 12.806 7.44564 13.0273 7.81348C 13.252 8.17806 13.5905 8.36035 14.043 8.36035C 14.4889 8.36035 14.8193 8.18783 15.0342 7.84277C 15.2523 7.49772 15.3662 6.9541 15.376 6.21191L 15.376 4.73242ZM 19.4775 5.69434L 18.6084 6.59766L 18.6084 9L 17.6709 9L 17.6709 1.89062L 18.6084 1.89062L 18.6084 5.40625L 21.7676 1.89062L 22.9004 1.89062L 20.1025 5.03027L 23.1201 9L 21.9971 9L 19.4775 5.69434Z" transform="translate(9.75391 244.733)" fill="#1F3F49"/>
</g>
<g id="400K">
<path d="M 4.4043 6.6123L 5.39062 6.6123L 5.39062 7.34961L 4.4043 7.34961L 4.4043 9L 3.49609 9L 3.49609 7.34961L 0.258789 7.34961L 0.258789 6.81738L 3.44238 1.89062L 4.4043 1.89062L 4.4043 6.6123ZM 1.28418 6.6123L 3.49609 6.6123L 3.49609 3.12598L 3.38867 3.32129L 1.28418 6.6123ZM 10.6641 5.96777C 10.6641 7.02572 10.4834 7.81185 10.1221 8.32617C 9.76074 8.84049 9.19596 9.09766 8.42773 9.09766C 7.66927 9.09766 7.10775 8.84701 6.74316 8.3457C 6.37858 7.84115 6.18978 7.08919 6.17676 6.08984L 6.17676 4.88379C 6.17676 3.83887 6.35742 3.0625 6.71875 2.55469C 7.08008 2.04688 7.64648 1.79297 8.41797 1.79297C 9.18294 1.79297 9.74609 2.03874 10.1074 2.53027C 10.4688 3.01855 10.6543 3.77376 10.6641 4.7959L 10.6641 5.96777ZM 9.76074 4.73242C 9.76074 3.96745 9.65332 3.41081 9.43848 3.0625C 9.22363 2.71094 8.88346 2.53516 8.41797 2.53516C 7.95573 2.53516 7.61882 2.70931 7.40723 3.05762C 7.19564 3.40592 7.08659 3.94141 7.08008 4.66406L 7.08008 6.10938C 7.08008 6.8776 7.19076 7.44564 7.41211 7.81348C 7.63672 8.17806 7.97526 8.36035 8.42773 8.36035C 8.8737 8.36035 9.2041 8.18783 9.41895 7.84277C 9.63704 7.49772 9.75098 6.9541 9.76074 6.21191L 9.76074 4.73242ZM 16.2793 5.96777C 16.2793 7.02572 16.0986 7.81185 15.7373 8.32617C 15.376 8.84049 14.8112 9.09766 14.043 9.09766C 13.2845 9.09766 12.723 8.84701 12.3584 8.3457C 11.9938 7.84115 11.805 7.08919 11.792 6.08984L 11.792 4.88379C 11.792 3.83887 11.9727 3.0625 12.334 2.55469C 12.6953 2.04688 13.2617 1.79297 14.0332 1.79297C 14.7982 1.79297 15.3613 2.03874 15.7227 2.53027C 16.084 3.01855 16.2695 3.77376 16.2793 4.7959L 16.2793 5.96777ZM 15.376 4.73242C 15.376 3.96745 15.2686 3.41081 15.0537 3.0625C 14.8389 2.71094 14.4987 2.53516 14.0332 2.53516C 13.571 2.53516 13.234 2.70931 13.0225 3.05762C 12.8109 3.40592 12.7018 3.94141 12.6953 4.66406L 12.6953 6.10938C 12.6953 6.8776 12.806 7.44564 13.0273 7.81348C 13.252 8.17806 13.5905 8.36035 14.043 8.36035C 14.4889 8.36035 14.8193 8.18783 15.0342 7.84277C 15.2523 7.49772 15.3662 6.9541 15.376 6.21191L 15.376 4.73242ZM 19.4775 5.69434L 18.6084 6.59766L 18.6084 9L 17.6709 9L 17.6709 1.89062L 18.6084 1.89062L 18.6084 5.40625L 21.7676 1.89062L 22.9004 1.89062L 20.1025 5.03027L 23.1201 9L 21.9971 9L 19.4775 5.69434Z" transform="translate(9.75391 198.8)" fill="#1F3F49"/>
</g>
<g id="600K">
<path d="M 4.13574 1.88574L 4.13574 2.65234L 3.96973 2.65234C 3.2666 2.66536 2.70671 2.8737 2.29004 3.27734C 1.87337 3.68099 1.63249 4.24902 1.56738 4.98145C 1.94173 4.55176 2.4528 4.33691 3.10059 4.33691C 3.71908 4.33691 4.21224 4.55501 4.58008 4.99121C 4.95117 5.42741 5.13672 5.99056 5.13672 6.68066C 5.13672 7.41309 4.93652 7.99902 4.53613 8.43848C 4.139 8.87793 3.60514 9.09766 2.93457 9.09766C 2.25423 9.09766 1.70247 8.83724 1.2793 8.31641C 0.85612 7.79232 0.644531 7.11849 0.644531 6.29492L 0.644531 5.94824C 0.644531 4.63965 0.922852 3.6403 1.47949 2.9502C 2.03939 2.25684 2.87109 1.90202 3.97461 1.88574L 4.13574 1.88574ZM 2.94922 5.08887C 2.63997 5.08887 2.35514 5.18164 2.09473 5.36719C 1.83431 5.55273 1.65365 5.78548 1.55273 6.06543L 1.55273 6.39746C 1.55273 6.9834 1.68457 7.4554 1.94824 7.81348C 2.21191 8.17155 2.54069 8.35059 2.93457 8.35059C 3.34147 8.35059 3.66048 8.20085 3.8916 7.90137C 4.12598 7.60189 4.24316 7.20964 4.24316 6.72461C 4.24316 6.23633 4.12435 5.84245 3.88672 5.54297C 3.65234 5.24023 3.33984 5.08887 2.94922 5.08887ZM 10.6641 5.96777C 10.6641 7.02572 10.4834 7.81185 10.1221 8.32617C 9.76074 8.84049 9.19596 9.09766 8.42773 9.09766C 7.66927 9.09766 7.10775 8.84701 6.74316 8.3457C 6.37858 7.84115 6.18978 7.08919 6.17676 6.08984L 6.17676 4.88379C 6.17676 3.83887 6.35742 3.0625 6.71875 2.55469C 7.08008 2.04688 7.64648 1.79297 8.41797 1.79297C 9.18294 1.79297 9.74609 2.03874 10.1074 2.53027C 10.4688 3.01855 10.6543 3.77376 10.6641 4.7959L 10.6641 5.96777ZM 9.76074 4.73242C 9.76074 3.96745 9.65332 3.41081 9.43848 3.0625C 9.22363 2.71094 8.88346 2.53516 8.41797 2.53516C 7.95573 2.53516 7.61882 2.70931 7.40723 3.05762C 7.19564 3.40592 7.08659 3.94141 7.08008 4.66406L 7.08008 6.10938C 7.08008 6.8776 7.19076 7.44564 7.41211 7.81348C 7.63672 8.17806 7.97526 8.36035 8.42773 8.36035C 8.8737 8.36035 9.2041 8.18783 9.41895 7.84277C 9.63704 7.49772 9.75098 6.9541 9.76074 6.21191L 9.76074 4.73242ZM 16.2793 5.96777C 16.2793 7.02572 16.0986 7.81185 15.7373 8.32617C 15.376 8.84049 14.8112 9.09766 14.043 9.09766C 13.2845 9.09766 12.723 8.84701 12.3584 8.3457C 11.9938 7.84115 11.805 7.08919 11.792 6.08984L 11.792 4.88379C 11.792 3.83887 11.9727 3.0625 12.334 2.55469C 12.6953 2.04688 13.2617 1.79297 14.0332 1.79297C 14.7982 1.79297 15.3613 2.03874 15.7227 2.53027C 16.084 3.01855 16.2695 3.77376 16.2793 4.7959L 16.2793 5.96777ZM 15.376 4.73242C 15.376 3.96745 15.2686 3.41081 15.0537 3.0625C 14.8389 2.71094 14.4987 2.53516 14.0332 2.53516C 13.571 2.53516 13.234 2.70931 13.0225 3.05762C 12.8109 3.40592 12.7018 3.94141 12.6953 4.66406L 12.6953 6.10938C 12.6953 6.8776 12.806 7.44564 13.0273 7.81348C 13.252 8.17806 13.5905 8.36035 14.043 8.36035C 14.4889 8.36035 14.8193 8.18783 15.0342 7.84277C 15.2523 7.49772 15.3662 6.9541 15.376 6.21191L 15.376 4.73242ZM 19.4775 5.69434L 18.6084 6.59766L 18.6084 9L 17.6709 9L 17.6709 1.89062L 18.6084 1.89062L 18.6084 5.40625L 21.7676 1.89062L 22.9004 1.89062L 20.1025 5.03027L 23.1201 9L 21.9971 9L 19.4775 5.69434Z" transform="translate(9.75391 152.867)" fill="#1F3F49"/>
</g>
<g id="800K">
<path d="M 4.90234 3.74609C 4.90234 4.10091 4.80794 4.41667 4.61914 4.69336C 4.43359 4.97005 4.18132 5.18652 3.8623 5.34277C 4.2334 5.50228 4.52637 5.73503 4.74121 6.04102C 4.95931 6.34701 5.06836 6.69368 5.06836 7.08105C 5.06836 7.69629 4.86003 8.1862 4.44336 8.55078C 4.02995 8.91536 3.4847 9.09766 2.80762 9.09766C 2.12402 9.09766 1.57552 8.91536 1.16211 8.55078C 0.751953 8.18294 0.546875 7.69303 0.546875 7.08105C 0.546875 6.69694 0.651042 6.35026 0.859375 6.04102C 1.07096 5.73177 1.3623 5.4974 1.7334 5.33789C 1.41764 5.18164 1.16862 4.96517 0.986328 4.68848C 0.804036 4.41178 0.712891 4.09766 0.712891 3.74609C 0.712891 3.14714 0.904948 2.67188 1.28906 2.32031C 1.67318 1.96875 2.17936 1.79297 2.80762 1.79297C 3.43262 1.79297 3.93717 1.96875 4.32129 2.32031C 4.70866 2.67188 4.90234 3.14714 4.90234 3.74609ZM 4.16504 7.06152C 4.16504 6.66439 4.03809 6.34049 3.78418 6.08984C 3.53353 5.83919 3.20475 5.71387 2.79785 5.71387C 2.39095 5.71387 2.0638 5.83757 1.81641 6.08496C 1.57227 6.33236 1.4502 6.65788 1.4502 7.06152C 1.4502 7.46517 1.56901 7.78255 1.80664 8.01367C 2.04753 8.24479 2.38118 8.36035 2.80762 8.36035C 3.23079 8.36035 3.56283 8.24479 3.80371 8.01367C 4.0446 7.7793 4.16504 7.46191 4.16504 7.06152ZM 2.80762 2.53516C 2.4528 2.53516 2.16471 2.64583 1.94336 2.86719C 1.72526 3.08529 1.61621 3.38314 1.61621 3.76074C 1.61621 4.12207 1.72363 4.41504 1.93848 4.63965C 2.15658 4.861 2.44629 4.97168 2.80762 4.97168C 3.16895 4.97168 3.45703 4.861 3.67188 4.63965C 3.88997 4.41504 3.99902 4.12207 3.99902 3.76074C 3.99902 3.39941 3.88672 3.10482 3.66211 2.87695C 3.4375 2.64909 3.15267 2.53516 2.80762 2.53516ZM 10.6641 5.96777C 10.6641 7.02572 10.4834 7.81185 10.1221 8.32617C 9.76074 8.84049 9.19596 9.09766 8.42773 9.09766C 7.66927 9.09766 7.10775 8.84701 6.74316 8.3457C 6.37858 7.84115 6.18978 7.08919 6.17676 6.08984L 6.17676 4.88379C 6.17676 3.83887 6.35742 3.0625 6.71875 2.55469C 7.08008 2.04688 7.64648 1.79297 8.41797 1.79297C 9.18294 1.79297 9.74609 2.03874 10.1074 2.53027C 10.4688 3.01855 10.6543 3.77376 10.6641 4.7959L 10.6641 5.96777ZM 9.76074 4.73242C 9.76074 3.96745 9.65332 3.41081 9.43848 3.0625C 9.22363 2.71094 8.88346 2.53516 8.41797 2.53516C 7.95573 2.53516 7.61882 2.70931 7.40723 3.05762C 7.19564 3.40592 7.08659 3.94141 7.08008 4.66406L 7.08008 6.10938C 7.08008 6.8776 7.19076 7.44564 7.41211 7.81348C 7.63672 8.17806 7.97526 8.36035 8.42773 8.36035C 8.8737 8.36035 9.2041 8.18783 9.41895 7.84277C 9.63704 7.49772 9.75098 6.9541 9.76074 6.21191L 9.76074 4.73242ZM 16.2793 5.96777C 16.2793 7.02572 16.0986 7.81185 15.7373 8.32617C 15.376 8.84049 14.8112 9.09766 14.043 9.09766C 13.2845 9.09766 12.723 8.84701 12.3584 8.3457C 11.9938 7.84115 11.805 7.08919 11.792 6.08984L 11.792 4.88379C 11.792 3.83887 11.9727 3.0625 12.334 2.55469C 12.6953 2.04688 13.2617 1.79297 14.0332 1.79297C 14.7982 1.79297 15.3613 2.03874 15.7227 2.53027C 16.084 3.01855 16.2695 3.77376 16.2793 4.7959L 16.2793 5.96777ZM 15.376 4.73242C 15.376 3.96745 15.2686 3.41081 15.0537 3.0625C 14.8389 2.71094 14.4987 2.53516 14.0332 2.53516C 13.571 2.53516 13.234 2.70931 13.0225 3.05762C 12.8109 3.40592 12.7018 3.94141 12.6953 4.66406L 12.6953 6.10938C 12.6953 6.8776 12.806 7.44564 13.0273 7.81348C 13.252 8.17806 13.5905 8.36035 14.043 8.36035C 14.4889 8.36035 14.8193 8.18783 15.0342 7.84277C 15.2523 7.49772 15.3662 6.9541 15.376 6.21191L 15.376 4.73242ZM 19.4775 5.69434L 18.6084 6.59766L 18.6084 9L 17.6709 9L 17.6709 1.89062L 18.6084 1.89062L 18.6084 5.40625L 21.7676 1.89062L 22.9004 1.89062L 20.1025 5.03027L 23.1201 9L 21.9971 9L 19.4775 5.69434Z" transform="translate(9.75391 106.933)" fill="#1F3F49"/>
</g>
<g id="1M">
<path d="M 3.55957 9L 2.65137 9L 2.65137 2.97949L 0.830078 3.64844L 0.830078 2.82812L 3.41797 1.85645L 3.55957 1.85645L 3.55957 9ZM 7.65137 1.89062L 9.97559 7.69141L 12.2998 1.89062L 13.5156 1.89062L 13.5156 9L 12.5781 9L 12.5781 6.23145L 12.666 3.24316L 10.332 9L 9.61426 9L 7.28516 3.25781L 7.37793 6.23145L 7.37793 9L 6.44043 9L 6.44043 1.89062L 7.65137 1.89062Z" transform="translate(19.4551 61)" fill="#1F3F49"/>
</g>
<g id="Jan">
<path d="M 3.80371 1.89062L 4.74609 1.89062L 4.74609 6.9248C 4.74609 7.60514 4.54102 8.13737 4.13086 8.52148C 3.72396 8.9056 3.18034 9.09766 2.5 9.09766C 1.79362 9.09766 1.24349 8.91699 0.849609 8.55566C 0.455729 8.19434 0.258789 7.68815 0.258789 7.03711L 1.19629 7.03711C 1.19629 7.44401 1.30697 7.76139 1.52832 7.98926C 1.75293 8.21712 2.07682 8.33105 2.5 8.33105C 2.88737 8.33105 3.19987 8.20898 3.4375 7.96484C 3.67839 7.7207 3.80046 7.37891 3.80371 6.93945L 3.80371 1.89062ZM 9.46289 9C 9.41081 8.89583 9.36849 8.71029 9.33594 8.44336C 8.91602 8.87956 8.41471 9.09766 7.83203 9.09766C 7.3112 9.09766 6.88314 8.95117 6.54785 8.6582C 6.21582 8.36198 6.0498 7.98763 6.0498 7.53516C 6.0498 6.98503 6.25814 6.55859 6.6748 6.25586C 7.09473 5.94987 7.68392 5.79688 8.44238 5.79688L 9.32129 5.79688L 9.32129 5.38184C 9.32129 5.06608 9.22689 4.81543 9.03809 4.62988C 8.84928 4.44108 8.57096 4.34668 8.20312 4.34668C 7.88086 4.34668 7.61068 4.42806 7.39258 4.59082C 7.17448 4.75358 7.06543 4.95052 7.06543 5.18164L 6.15723 5.18164C 6.15723 4.91797 6.25 4.66406 6.43555 4.41992C 6.62435 4.17253 6.87826 3.97721 7.19727 3.83398C 7.51953 3.69076 7.87272 3.61914 8.25684 3.61914C 8.86556 3.61914 9.34245 3.77214 9.6875 4.07812C 10.0326 4.38086 10.2116 4.79915 10.2246 5.33301L 10.2246 7.76465C 10.2246 8.24967 10.2865 8.63542 10.4102 8.92188L 10.4102 9L 9.46289 9ZM 7.96387 8.31152C 8.24707 8.31152 8.51562 8.23828 8.76953 8.0918C 9.02344 7.94531 9.20736 7.75488 9.32129 7.52051L 9.32129 6.43652L 8.61328 6.43652C 7.50651 6.43652 6.95312 6.76042 6.95312 7.4082C 6.95312 7.69141 7.04753 7.91276 7.23633 8.07227C 7.42513 8.23177 7.66764 8.31152 7.96387 8.31152ZM 12.4951 3.7168L 12.5244 4.38086C 12.9281 3.87305 13.4554 3.61914 14.1064 3.61914C 15.223 3.61914 15.7861 4.24902 15.7959 5.50879L 15.7959 9L 14.8926 9L 14.8926 5.50391C 14.8893 5.12305 14.8014 4.84147 14.6289 4.65918C 14.4596 4.47689 14.1943 4.38574 13.833 4.38574C 13.54 4.38574 13.2829 4.46387 13.0615 4.62012C 12.8402 4.77637 12.6676 4.98145 12.5439 5.23535L 12.5439 9L 11.6406 9L 11.6406 3.7168L 12.4951 3.7168Z" transform="translate(86.7266 308.867)" fill="#1F3F49"/>
</g>
<g id="Feb">
<path d="M 4.74609 5.86035L 1.7627 5.86035L 1.7627 9L 0.825195 9L 0.825195 1.89062L 5.22949 1.89062L 5.22949 2.66211L 1.7627 2.66211L 1.7627 5.09375L 4.74609 5.09375L 4.74609 5.86035ZM 8.2959 9.09766C 7.57975 9.09766 6.99707 8.86328 6.54785 8.39453C 6.09863 7.92253 5.87402 7.29264 5.87402 6.50488L 5.87402 6.33887C 5.87402 5.81478 5.97331 5.34766 6.17188 4.9375C 6.3737 4.52409 6.65365 4.20182 7.01172 3.9707C 7.37305 3.73633 7.76367 3.61914 8.18359 3.61914C 8.87044 3.61914 9.4043 3.84538 9.78516 4.29785C 10.166 4.75033 10.3564 5.39811 10.3564 6.24121L 10.3564 6.61719L 6.77734 6.61719C 6.79036 7.13802 6.94173 7.55957 7.23145 7.88184C 7.52441 8.20085 7.89551 8.36035 8.34473 8.36035C 8.66374 8.36035 8.93392 8.29525 9.15527 8.16504C 9.37663 8.03483 9.57031 7.8623 9.73633 7.64746L 10.2881 8.07715C 9.84538 8.75749 9.18132 9.09766 8.2959 9.09766ZM 8.18359 4.36133C 7.81901 4.36133 7.51302 4.49479 7.26562 4.76172C 7.01823 5.02539 6.86523 5.39648 6.80664 5.875L 9.45312 5.875L 9.45312 5.80664C 9.42708 5.34766 9.30339 4.99284 9.08203 4.74219C 8.86068 4.48828 8.5612 4.36133 8.18359 4.36133ZM 15.8789 6.41699C 15.8789 7.22428 15.6934 7.8737 15.3223 8.36523C 14.9512 8.85352 14.4531 9.09766 13.8281 9.09766C 13.1608 9.09766 12.6449 8.86165 12.2803 8.38965L 12.2363 9L 11.4062 9L 11.4062 1.5L 12.3096 1.5L 12.3096 4.29785C 12.6742 3.84538 13.1771 3.61914 13.8184 3.61914C 14.4596 3.61914 14.9626 3.86165 15.3271 4.34668C 15.695 4.83171 15.8789 5.49577 15.8789 6.33887L 15.8789 6.41699ZM 14.9756 6.31445C 14.9756 5.69922 14.8568 5.22396 14.6191 4.88867C 14.3815 4.55339 14.0397 4.38574 13.5938 4.38574C 12.998 4.38574 12.57 4.66243 12.3096 5.21582L 12.3096 7.50098C 12.5863 8.05436 13.0176 8.33105 13.6035 8.33105C 14.0365 8.33105 14.3734 8.16341 14.6143 7.82812C 14.8551 7.49284 14.9756 6.98828 14.9756 6.31445Z" transform="translate(172.312 308.867)" fill="#1F3F49"/>
</g>
<g id="Mar">
<path d="M 2.03613 1.89062L 4.36035 7.69141L 6.68457 1.89062L 7.90039 1.89062L 7.90039 9L 6.96289 9L 6.96289 6.23145L 7.05078 3.24316L 4.7168 9L 3.99902 9L 1.66992 3.25781L 1.7627 6.23145L 1.7627 9L 0.825195 9L 0.825195 1.89062L 2.03613 1.89062ZM 12.6758 9C 12.6237 8.89583 12.5814 8.71029 12.5488 8.44336C 12.1289 8.87956 11.6276 9.09766 11.0449 9.09766C 10.5241 9.09766 10.096 8.95117 9.76074 8.6582C 9.42871 8.36198 9.2627 7.98763 9.2627 7.53516C 9.2627 6.98503 9.47103 6.55859 9.8877 6.25586C 10.3076 5.94987 10.8968 5.79688 11.6553 5.79688L 12.5342 5.79688L 12.5342 5.38184C 12.5342 5.06608 12.4398 4.81543 12.251 4.62988C 12.0622 4.44108 11.7839 4.34668 11.416 4.34668C 11.0938 4.34668 10.8236 4.42806 10.6055 4.59082C 10.3874 4.75358 10.2783 4.95052 10.2783 5.18164L 9.37012 5.18164C 9.37012 4.91797 9.46289 4.66406 9.64844 4.41992C 9.83724 4.17253 10.0911 3.97721 10.4102 3.83398C 10.7324 3.69076 11.0856 3.61914 11.4697 3.61914C 12.0785 3.61914 12.5553 3.77214 12.9004 4.07812C 13.2454 4.38086 13.4245 4.79915 13.4375 5.33301L 13.4375 7.76465C 13.4375 8.24967 13.4993 8.63542 13.623 8.92188L 13.623 9L 12.6758 9ZM 11.1768 8.31152C 11.46 8.31152 11.7285 8.23828 11.9824 8.0918C 12.2363 7.94531 12.4202 7.75488 12.5342 7.52051L 12.5342 6.43652L 11.8262 6.43652C 10.7194 6.43652 10.166 6.76042 10.166 7.4082C 10.166 7.69141 10.2604 7.91276 10.4492 8.07227C 10.638 8.23177 10.8805 8.31152 11.1768 8.31152ZM 17.4072 4.52734C 17.2705 4.50456 17.1224 4.49316 16.9629 4.49316C 16.3704 4.49316 15.9684 4.74544 15.7568 5.25L 15.7568 9L 14.8535 9L 14.8535 3.7168L 15.7324 3.7168L 15.7471 4.32715C 16.0433 3.85514 16.4632 3.61914 17.0068 3.61914C 17.1826 3.61914 17.3161 3.64193 17.4072 3.6875L 17.4072 4.52734Z" transform="translate(258.459 308.867)" fill="#1F3F49"/>
</g>
<g id="Apr">
<path d="M 4.75098 7.14453L 1.77246 7.14453L 1.10352 9L 0.136719 9L 2.85156 1.89062L 3.67188 1.89062L 6.3916 9L 5.42969 9L 4.75098 7.14453ZM 2.05566 6.37305L 4.47266 6.37305L 3.26172 3.04785L 2.05566 6.37305ZM 11.6699 6.41699C 11.6699 7.22103 11.486 7.86882 11.1182 8.36035C 10.7503 8.85189 10.2523 9.09766 9.62402 9.09766C 8.98275 9.09766 8.47819 8.89421 8.11035 8.4873L 8.11035 11.0312L 7.20703 11.0312L 7.20703 3.7168L 8.03223 3.7168L 8.07617 4.30273C 8.44401 3.84701 8.95508 3.61914 9.60938 3.61914C 10.2441 3.61914 10.7454 3.8584 11.1133 4.33691C 11.4844 4.81543 11.6699 5.48112 11.6699 6.33398L 11.6699 6.41699ZM 10.7666 6.31445C 10.7666 5.71875 10.6396 5.24837 10.3857 4.90332C 10.1318 4.55827 9.78353 4.38574 9.34082 4.38574C 8.79395 4.38574 8.38379 4.62826 8.11035 5.11328L 8.11035 7.6377C 8.38053 8.11947 8.79395 8.36035 9.35059 8.36035C 9.78353 8.36035 10.127 8.18945 10.3809 7.84766C 10.638 7.5026 10.7666 6.99154 10.7666 6.31445ZM 15.376 4.52734C 15.2393 4.50456 15.0911 4.49316 14.9316 4.49316C 14.3392 4.49316 13.9372 4.74544 13.7256 5.25L 13.7256 9L 12.8223 9L 12.8223 3.7168L 13.7012 3.7168L 13.7158 4.32715C 14.012 3.85514 14.432 3.61914 14.9756 3.61914C 15.1514 3.61914 15.2848 3.64193 15.376 3.6875L 15.376 4.52734Z" transform="translate(345.432 308.867)" fill="#1F3F49"/>
</g>
<g id="May">
<path d="M 2.03613 1.89062L 4.36035 7.69141L 6.68457 1.89062L 7.90039 1.89062L 7.90039 9L 6.96289 9L 6.96289 6.23145L 7.05078 3.24316L 4.7168 9L 3.99902 9L 1.66992 3.25781L 1.7627 6.23145L 1.7627 9L 0.825195 9L 0.825195 1.89062L 2.03613 1.89062ZM 12.6758 9C 12.6237 8.89583 12.5814 8.71029 12.5488 8.44336C 12.1289 8.87956 11.6276 9.09766 11.0449 9.09766C 10.5241 9.09766 10.096 8.95117 9.76074 8.6582C 9.42871 8.36198 9.2627 7.98763 9.2627 7.53516C 9.2627 6.98503 9.47103 6.55859 9.8877 6.25586C 10.3076 5.94987 10.8968 5.79688 11.6553 5.79688L 12.5342 5.79688L 12.5342 5.38184C 12.5342 5.06608 12.4398 4.81543 12.251 4.62988C 12.0622 4.44108 11.7839 4.34668 11.416 4.34668C 11.0938 4.34668 10.8236 4.42806 10.6055 4.59082C 10.3874 4.75358 10.2783 4.95052 10.2783 5.18164L 9.37012 5.18164C 9.37012 4.91797 9.46289 4.66406 9.64844 4.41992C 9.83724 4.17253 10.0911 3.97721 10.4102 3.83398C 10.7324 3.69076 11.0856 3.61914 11.4697 3.61914C 12.0785 3.61914 12.5553 3.77214 12.9004 4.07812C 13.2454 4.38086 13.4245 4.79915 13.4375 5.33301L 13.4375 7.76465C 13.4375 8.24967 13.4993 8.63542 13.623 8.92188L 13.623 9L 12.6758 9ZM 11.1768 8.31152C 11.46 8.31152 11.7285 8.23828 11.9824 8.0918C 12.2363 7.94531 12.4202 7.75488 12.5342 7.52051L 12.5342 6.43652L 11.8262 6.43652C 10.7194 6.43652 10.166 6.76042 10.166 7.4082C 10.166 7.69141 10.2604 7.91276 10.4492 8.07227C 10.638 8.23177 10.8805 8.31152 11.1768 8.31152ZM 16.5039 7.67676L 17.7344 3.7168L 18.7012 3.7168L 16.5771 9.81543C 16.2484 10.6943 15.7259 11.1338 15.0098 11.1338L 14.8389 11.1191L 14.502 11.0557L 14.502 10.3232L 14.7461 10.3428C 15.0521 10.3428 15.2897 10.2809 15.459 10.1572C 15.6315 10.0335 15.7731 9.80729 15.8838 9.47852L 16.084 8.94141L 14.1992 3.7168L 15.1855 3.7168L 16.5039 7.67676Z" transform="translate(429.908 308.867)" fill="#1F3F49"/>
</g>
<g id="Jun">
<path d="M 3.80371 1.89062L 4.74609 1.89062L 4.74609 6.9248C 4.74609 7.60514 4.54102 8.13737 4.13086 8.52148C 3.72396 8.9056 3.18034 9.09766 2.5 9.09766C 1.79362 9.09766 1.24349 8.91699 0.849609 8.55566C 0.455729 8.19434 0.258789 7.68815 0.258789 7.03711L 1.19629 7.03711C 1.19629 7.44401 1.30697 7.76139 1.52832 7.98926C 1.75293 8.21712 2.07682 8.33105 2.5 8.33105C 2.88737 8.33105 3.19987 8.20898 3.4375 7.96484C 3.67839 7.7207 3.80046 7.37891 3.80371 6.93945L 3.80371 1.89062ZM 9.46289 8.47754C 9.11133 8.89095 8.59538 9.09766 7.91504 9.09766C 7.35189 9.09766 6.9222 8.9349 6.62598 8.60938C 6.33301 8.2806 6.1849 7.79557 6.18164 7.1543L 6.18164 3.7168L 7.08496 3.7168L 7.08496 7.12988C 7.08496 7.93066 7.41048 8.33105 8.06152 8.33105C 8.75163 8.33105 9.21061 8.07389 9.43848 7.55957L 9.43848 3.7168L 10.3418 3.7168L 10.3418 9L 9.48242 9L 9.46289 8.47754ZM 12.5732 3.7168L 12.6025 4.38086C 13.0062 3.87305 13.5335 3.61914 14.1846 3.61914C 15.3011 3.61914 15.8643 4.24902 15.874 5.50879L 15.874 9L 14.9707 9L 14.9707 5.50391C 14.9674 5.12305 14.8796 4.84147 14.707 4.65918C 14.5378 4.47689 14.2725 4.38574 13.9111 4.38574C 13.6182 4.38574 13.361 4.46387 13.1396 4.62012C 12.9183 4.77637 12.7458 4.98145 12.6221 5.23535L 12.6221 9L 11.7188 9L 11.7188 3.7168L 12.5732 3.7168Z" transform="translate(517.434 308.867)" fill="#1F3F49"/>
</g>
<g id="Jul">
<path d="M 3.80371 1.89062L 4.74609 1.89062L 4.74609 6.9248C 4.74609 7.60514 4.54102 8.13737 4.13086 8.52148C 3.72396 8.9056 3.18034 9.09766 2.5 9.09766C 1.79362 9.09766 1.24349 8.91699 0.849609 8.55566C 0.455729 8.19434 0.258789 7.68815 0.258789 7.03711L 1.19629 7.03711C 1.19629 7.44401 1.30697 7.76139 1.52832 7.98926C 1.75293 8.21712 2.07682 8.33105 2.5 8.33105C 2.88737 8.33105 3.19987 8.20898 3.4375 7.96484C 3.67839 7.7207 3.80046 7.37891 3.80371 6.93945L 3.80371 1.89062ZM 9.46289 8.47754C 9.11133 8.89095 8.59538 9.09766 7.91504 9.09766C 7.35189 9.09766 6.9222 8.9349 6.62598 8.60938C 6.33301 8.2806 6.1849 7.79557 6.18164 7.1543L 6.18164 3.7168L 7.08496 3.7168L 7.08496 7.12988C 7.08496 7.93066 7.41048 8.33105 8.06152 8.33105C 8.75163 8.33105 9.21061 8.07389 9.43848 7.55957L 9.43848 3.7168L 10.3418 3.7168L 10.3418 9L 9.48242 9L 9.46289 8.47754ZM 12.7002 9L 11.7969 9L 11.7969 1.5L 12.7002 1.5L 12.7002 9Z" transform="translate(607.297 308.867)" fill="#1F3F49"/>
</g>
</g>
</g>
<g id="Group_4">
<g id="Group_5">
<g id="Group_6">
<g id="Page Views">
<path d="M 1.93896 6.93848L 1.93896 10L 0.907715 10L 0.907715 2.17969L 3.79199 2.17969C 4.64779 2.17969 5.31738 2.39811 5.80078 2.83496C 6.28776 3.27181 6.53125 3.8501 6.53125 4.56982C 6.53125 5.32894 6.29313 5.91439 5.81689 6.32617C 5.34424 6.73438 4.66569 6.93848 3.78125 6.93848L 1.93896 6.93848ZM 1.93896 6.09521L 3.79199 6.09521C 4.34342 6.09521 4.76595 5.96631 5.05957 5.7085C 5.35319 5.4471 5.5 5.07113 5.5 4.58057C 5.5 4.11507 5.35319 3.74268 5.05957 3.46338C 4.76595 3.18408 4.36312 3.03906 3.85107 3.02832L 1.93896 3.02832L 1.93896 6.09521ZM 11.2148 10C 11.1576 9.88542 11.111 9.68132 11.0752 9.3877C 10.6133 9.86751 10.0618 10.1074 9.4209 10.1074C 8.84798 10.1074 8.37712 9.94629 8.0083 9.62402C 7.64307 9.29818 7.46045 8.88639 7.46045 8.38867C 7.46045 7.78353 7.68962 7.31445 8.14795 6.98145C 8.60986 6.64486 9.25798 6.47656 10.0923 6.47656L 11.0591 6.47656L 11.0591 6.02002C 11.0591 5.67269 10.9552 5.39697 10.7476 5.19287C 10.5399 4.98519 10.2337 4.88135 9.8291 4.88135C 9.47461 4.88135 9.17741 4.97087 8.9375 5.1499C 8.69759 5.32894 8.57764 5.54557 8.57764 5.7998L 7.57861 5.7998C 7.57861 5.50977 7.68066 5.23047 7.88477 4.96191C 8.09245 4.68978 8.37174 4.47493 8.72266 4.31738C 9.07715 4.15983 9.46566 4.08105 9.88818 4.08105C 10.5578 4.08105 11.0824 4.24935 11.4619 4.58594C 11.8415 4.91895 12.0384 5.37907 12.0527 5.96631L 12.0527 8.64111C 12.0527 9.17464 12.1208 9.59896 12.2568 9.91406L 12.2568 10L 11.2148 10ZM 9.56592 9.24268C 9.87744 9.24268 10.1729 9.16211 10.4521 9.00098C 10.7314 8.83984 10.9338 8.63037 11.0591 8.37256L 11.0591 7.18018L 10.2803 7.18018C 9.06283 7.18018 8.4541 7.53646 8.4541 8.24902C 8.4541 8.56055 8.55794 8.80404 8.76562 8.97949C 8.97331 9.15495 9.24007 9.24268 9.56592 9.24268ZM 13.374 7.0459C 13.374 6.13997 13.5835 5.42025 14.0024 4.88672C 14.4214 4.34961 14.9764 4.08105 15.6675 4.08105C 16.3765 4.08105 16.9297 4.33171 17.3271 4.83301L 17.3755 4.18848L 18.2832 4.18848L 18.2832 9.86035C 18.2832 10.6123 18.0594 11.2049 17.6118 11.6382C 17.1678 12.0715 16.5698 12.2881 15.8179 12.2881C 15.3989 12.2881 14.9889 12.1986 14.5879 12.0195C 14.1868 11.8405 13.8807 11.5952 13.6694 11.2837L 14.1851 10.6875C 14.6112 11.2139 15.1322 11.4771 15.748 11.4771C 16.2314 11.4771 16.6074 11.341 16.876 11.0688C 17.1481 10.7967 17.2842 10.4136 17.2842 9.91943L 17.2842 9.41992C 16.8867 9.87826 16.3442 10.1074 15.6567 10.1074C 14.9764 10.1074 14.425 9.8335 14.0024 9.28564C 13.5835 8.73779 13.374 7.99121 13.374 7.0459ZM 14.373 7.15869C 14.373 7.81396 14.5073 8.32959 14.7759 8.70557C 15.0444 9.07796 15.4204 9.26416 15.9038 9.26416C 16.5304 9.26416 16.9906 8.97949 17.2842 8.41016L 17.2842 5.75684C 16.9798 5.20182 16.5233 4.92432 15.9146 4.92432C 15.4312 4.92432 15.0534 5.1123 14.7812 5.48828C 14.5091 5.86426 14.373 6.42106 14.373 7.15869ZM 22.1987 10.1074C 21.411 10.1074 20.77 9.84961 20.2759 9.33398C 19.7817 8.81478 19.5347 8.12191 19.5347 7.25537L 19.5347 7.07275C 19.5347 6.49626 19.6439 5.98242 19.8623 5.53125C 20.0843 5.0765 20.3923 4.72201 20.7861 4.46777C 21.1836 4.20996 21.6133 4.08105 22.0752 4.08105C 22.8307 4.08105 23.418 4.32992 23.8369 4.82764C 24.2559 5.32536 24.4653 6.03792 24.4653 6.96533L 24.4653 7.37891L 20.5283 7.37891C 20.5426 7.95182 20.7091 8.41553 21.0278 8.77002C 21.3501 9.12093 21.7583 9.29639 22.2524 9.29639C 22.6034 9.29639 22.9006 9.22477 23.144 9.08154C 23.3875 8.93831 23.6006 8.74854 23.7832 8.51221L 24.3901 8.98486C 23.9032 9.73324 23.1727 10.1074 22.1987 10.1074ZM 22.0752 4.89746C 21.6742 4.89746 21.3376 5.04427 21.0654 5.33789C 20.7933 5.62793 20.625 6.03613 20.5605 6.5625L 23.4717 6.5625L 23.4717 6.4873C 23.443 5.98242 23.307 5.59212 23.0635 5.31641C 22.82 5.03711 22.4906 4.89746 22.0752 4.89746ZM 31.0933 8.63037L 33.3276 2.17969L 34.4556 2.17969L 31.5552 10L 30.6421 10L 27.7471 2.17969L 28.8696 2.17969L 31.0933 8.63037ZM 36.4321 10L 35.4385 10L 35.4385 4.18848L 36.4321 4.18848L 36.4321 10ZM 35.3579 2.64697C 35.3579 2.48584 35.4062 2.34977 35.5029 2.23877C 35.6032 2.12777 35.75 2.07227 35.9434 2.07227C 36.1367 2.07227 36.2835 2.12777 36.3838 2.23877C 36.484 2.34977 36.5342 2.48584 36.5342 2.64697C 36.5342 2.80811 36.484 2.94238 36.3838 3.0498C 36.2835 3.15723 36.1367 3.21094 35.9434 3.21094C 35.75 3.21094 35.6032 3.15723 35.5029 3.0498C 35.4062 2.94238 35.3579 2.80811 35.3579 2.64697ZM 40.439 10.1074C 39.6512 10.1074 39.0103 9.84961 38.5161 9.33398C 38.022 8.81478 37.7749 8.12191 37.7749 7.25537L 37.7749 7.07275C 37.7749 6.49626 37.8841 5.98242 38.1025 5.53125C 38.3245 5.0765 38.6325 4.72201 39.0264 4.46777C 39.4238 4.20996 39.8535 4.08105 40.3154 4.08105C 41.071 4.08105 41.6582 4.32992 42.0771 4.82764C 42.4961 5.32536 42.7056 6.03792 42.7056 6.96533L 42.7056 7.37891L 38.7686 7.37891C 38.7829 7.95182 38.9494 8.41553 39.2681 8.77002C 39.5903 9.12093 39.9985 9.29639 40.4927 9.29639C 40.8436 9.29639 41.1408 9.22477 41.3843 9.08154C 41.6278 8.93831 41.8408 8.74854 42.0234 8.51221L 42.6304 8.98486C 42.1434 9.73324 41.4129 10.1074 40.439 10.1074ZM 40.3154 4.89746C 39.9144 4.89746 39.5778 5.04427 39.3057 5.33789C 39.0335 5.62793 38.8652 6.03613 38.8008 6.5625L 41.7119 6.5625L 41.7119 6.4873C 41.6833 5.98242 41.5472 5.59212 41.3037 5.31641C 41.0602 5.03711 40.7308 4.89746 40.3154 4.89746ZM 49.0059 8.63037L 50.123 4.18848L 51.1167 4.18848L 49.4248 10L 48.6191 10L 47.2065 5.5957L 45.8315 10L 45.0259 10L 43.3394 4.18848L 44.3276 4.18848L 45.4717 8.53906L 46.8252 4.18848L 47.6255 4.18848L 49.0059 8.63037ZM 55.5156 8.4585C 55.5156 8.18994 55.4136 7.98226 55.2095 7.83545C 55.009 7.68506 54.6562 7.55615 54.1514 7.44873C 53.6501 7.34131 53.2508 7.2124 52.9536 7.06201C 52.66 6.91162 52.4416 6.73258 52.2983 6.5249C 52.1587 6.31722 52.0889 6.07015 52.0889 5.78369C 52.0889 5.30745 52.2894 4.90462 52.6904 4.5752C 53.0951 4.24577 53.6107 4.08105 54.2373 4.08105C 54.8962 4.08105 55.4297 4.25114 55.8379 4.59131C 56.2497 4.93148 56.4556 5.36654 56.4556 5.89648L 55.4565 5.89648C 55.4565 5.62435 55.3402 5.38981 55.1074 5.19287C 54.8783 4.99593 54.5882 4.89746 54.2373 4.89746C 53.8757 4.89746 53.5928 4.97624 53.3887 5.13379C 53.1846 5.29134 53.0825 5.49723 53.0825 5.75146C 53.0825 5.99137 53.1774 6.1722 53.3672 6.29395C 53.557 6.41569 53.8989 6.53206 54.3931 6.64307C 54.8908 6.75407 55.2936 6.88656 55.6016 7.04053C 55.9095 7.1945 56.1369 7.3807 56.2837 7.59912C 56.4341 7.81396 56.5093 8.07715 56.5093 8.38867C 56.5093 8.90788 56.3016 9.32503 55.8862 9.64014C 55.4709 9.95166 54.932 10.1074 54.2695 10.1074C 53.804 10.1074 53.3923 10.0251 53.0342 9.86035C 52.6761 9.69564 52.395 9.46647 52.1909 9.17285C 51.9904 8.87565 51.8901 8.55518 51.8901 8.21143L 52.8838 8.21143C 52.9017 8.54443 53.0342 8.80941 53.2812 9.00635C 53.5319 9.19971 53.8613 9.29639 54.2695 9.29639C 54.6455 9.29639 54.9463 9.22119 55.1719 9.0708C 55.401 8.91683 55.5156 8.71273 55.5156 8.4585Z" transform="translate(592.203 22.5)" fill="#1F3F49"/>
</g>
<g id="Vector_4">
<path d="M 4 8C 6.20914 8 8 6.20914 8 4C 8 1.79086 6.20914 0 4 0C 1.79086 0 0 1.79086 0 4C 0 6.20914 1.79086 8 4 8Z" transform="translate(579 26)" fill="#3F51B5"/>
</g>
</g>
<g id="Group_7">
<g id="Sessions">
<path d="M 3.21191 6.51416C 2.32747 6.25993 1.68294 5.9484 1.27832 5.57959C 0.877279 5.20719 0.676758 4.74886 0.676758 4.20459C 0.676758 3.5887 0.922038 3.08024 1.4126 2.6792C 1.90674 2.27458 2.54769 2.07227 3.33545 2.07227C 3.87256 2.07227 4.35059 2.17611 4.76953 2.38379C 5.19206 2.59147 5.5179 2.87793 5.74707 3.24316C 5.97982 3.6084 6.09619 4.00765 6.09619 4.44092L 5.05957 4.44092C 5.05957 3.96826 4.90918 3.59766 4.6084 3.3291C 4.30762 3.05697 3.8833 2.9209 3.33545 2.9209C 2.82699 2.9209 2.42952 3.03369 2.14307 3.25928C 1.86019 3.48128 1.71875 3.79102 1.71875 4.18848C 1.71875 4.50716 1.85303 4.77751 2.12158 4.99951C 2.39372 5.21794 2.85384 5.41846 3.50195 5.60107C 4.15365 5.78369 4.66211 5.986 5.02734 6.20801C 5.39616 6.42643 5.66829 6.68245 5.84375 6.97607C 6.02279 7.26969 6.1123 7.61523 6.1123 8.0127C 6.1123 8.64648 5.86523 9.15495 5.37109 9.53809C 4.87695 9.91764 4.21631 10.1074 3.38916 10.1074C 2.85205 10.1074 2.35075 10.0054 1.88525 9.80127C 1.41976 9.59359 1.0599 9.31071 0.805664 8.95264C 0.555013 8.59456 0.429688 8.18815 0.429688 7.7334L 1.46631 7.7334C 1.46631 8.20605 1.63997 8.58024 1.9873 8.85596C 2.33822 9.12809 2.8055 9.26416 3.38916 9.26416C 3.93343 9.26416 4.35059 9.15316 4.64062 8.93115C 4.93066 8.70915 5.07568 8.40658 5.07568 8.02344C 5.07568 7.6403 4.94141 7.34489 4.67285 7.13721C 4.4043 6.92594 3.91732 6.71826 3.21191 6.51416ZM 9.69482 10.1074C 8.90706 10.1074 8.26611 9.84961 7.77197 9.33398C 7.27783 8.81478 7.03076 8.12191 7.03076 7.25537L 7.03076 7.07275C 7.03076 6.49626 7.13997 5.98242 7.3584 5.53125C 7.5804 5.0765 7.88835 4.72201 8.28223 4.46777C 8.67969 4.20996 9.10938 4.08105 9.57129 4.08105C 10.3268 4.08105 10.9141 4.32992 11.333 4.82764C 11.752 5.32536 11.9614 6.03792 11.9614 6.96533L 11.9614 7.37891L 8.02441 7.37891C 8.03874 7.95182 8.20524 8.41553 8.52393 8.77002C 8.84619 9.12093 9.25439 9.29639 9.74854 9.29639C 10.0994 9.29639 10.3966 9.22477 10.6401 9.08154C 10.8836 8.93831 11.0967 8.74854 11.2793 8.51221L 11.8862 8.98486C 11.3993 9.73324 10.6688 10.1074 9.69482 10.1074ZM 9.57129 4.89746C 9.17025 4.89746 8.83366 5.04427 8.56152 5.33789C 8.28939 5.62793 8.12109 6.03613 8.05664 6.5625L 10.9678 6.5625L 10.9678 6.4873C 10.9391 5.98242 10.8031 5.59212 10.5596 5.31641C 10.3161 5.03711 9.98665 4.89746 9.57129 4.89746ZM 16.5 8.4585C 16.5 8.18994 16.3979 7.98226 16.1938 7.83545C 15.9933 7.68506 15.6406 7.55615 15.1357 7.44873C 14.6344 7.34131 14.2352 7.2124 13.938 7.06201C 13.6444 6.91162 13.4259 6.73258 13.2827 6.5249C 13.1431 6.31722 13.0732 6.07015 13.0732 5.78369C 13.0732 5.30745 13.2738 4.90462 13.6748 4.5752C 14.0794 4.24577 14.5951 4.08105 15.2217 4.08105C 15.8805 4.08105 16.4141 4.25114 16.8223 4.59131C 17.234 4.93148 17.4399 5.36654 17.4399 5.89648L 16.4409 5.89648C 16.4409 5.62435 16.3245 5.38981 16.0918 5.19287C 15.8626 4.99593 15.5726 4.89746 15.2217 4.89746C 14.86 4.89746 14.5771 4.97624 14.373 5.13379C 14.1689 5.29134 14.0669 5.49723 14.0669 5.75146C 14.0669 5.99137 14.1618 6.1722 14.3516 6.29395C 14.5413 6.41569 14.8833 6.53206 15.3774 6.64307C 15.8752 6.75407 16.278 6.88656 16.5859 7.04053C 16.8939 7.1945 17.1213 7.3807 17.2681 7.59912C 17.4185 7.81396 17.4937 8.07715 17.4937 8.38867C 17.4937 8.90788 17.286 9.32503 16.8706 9.64014C 16.4552 9.95166 15.9163 10.1074 15.2539 10.1074C 14.7884 10.1074 14.3766 10.0251 14.0186 9.86035C 13.6605 9.69564 13.3794 9.46647 13.1753 9.17285C 12.9748 8.87565 12.8745 8.55518 12.8745 8.21143L 13.8682 8.21143C 13.8861 8.54443 14.0186 8.80941 14.2656 9.00635C 14.5163 9.19971 14.8457 9.29639 15.2539 9.29639C 15.6299 9.29639 15.9307 9.22119 16.1562 9.0708C 16.3854 8.91683 16.5 8.71273 16.5 8.4585ZM 22.1719 8.4585C 22.1719 8.18994 22.0698 7.98226 21.8657 7.83545C 21.6652 7.68506 21.3125 7.55615 20.8076 7.44873C 20.3063 7.34131 19.9071 7.2124 19.6099 7.06201C 19.3162 6.91162 19.0978 6.73258 18.9546 6.5249C 18.8149 6.31722 18.7451 6.07015 18.7451 5.78369C 18.7451 5.30745 18.9456 4.90462 19.3467 4.5752C 19.7513 4.24577 20.2669 4.08105 20.8936 4.08105C 21.5524 4.08105 22.0859 4.25114 22.4941 4.59131C 22.9059 4.93148 23.1118 5.36654 23.1118 5.89648L 22.1128 5.89648C 22.1128 5.62435 21.9964 5.38981 21.7637 5.19287C 21.5345 4.99593 21.2445 4.89746 20.8936 4.89746C 20.5319 4.89746 20.249 4.97624 20.0449 5.13379C 19.8408 5.29134 19.7388 5.49723 19.7388 5.75146C 19.7388 5.99137 19.8337 6.1722 20.0234 6.29395C 20.2132 6.41569 20.5552 6.53206 21.0493 6.64307C 21.547 6.75407 21.9499 6.88656 22.2578 7.04053C 22.5658 7.1945 22.7931 7.3807 22.9399 7.59912C 23.0903 7.81396 23.1655 8.07715 23.1655 8.38867C 23.1655 8.90788 22.9578 9.32503 22.5425 9.64014C 22.1271 9.95166 21.5882 10.1074 20.9258 10.1074C 20.4603 10.1074 20.0485 10.0251 19.6904 9.86035C 19.3324 9.69564 19.0513 9.46647 18.8472 9.17285C 18.6466 8.87565 18.5464 8.55518 18.5464 8.21143L 19.54 8.21143C 19.5579 8.54443 19.6904 8.80941 19.9375 9.00635C 20.1882 9.19971 20.5176 9.29639 20.9258 9.29639C 21.3018 9.29639 21.6025 9.22119 21.8281 9.0708C 22.0573 8.91683 22.1719 8.71273 22.1719 8.4585ZM 25.5396 10L 24.5459 10L 24.5459 4.18848L 25.5396 4.18848L 25.5396 10ZM 24.4653 2.64697C 24.4653 2.48584 24.5137 2.34977 24.6104 2.23877C 24.7106 2.12777 24.8574 2.07227 25.0508 2.07227C 25.2441 2.07227 25.391 2.12777 25.4912 2.23877C 25.5915 2.34977 25.6416 2.48584 25.6416 2.64697C 25.6416 2.80811 25.5915 2.94238 25.4912 3.0498C 25.391 3.15723 25.2441 3.21094 25.0508 3.21094C 24.8574 3.21094 24.7106 3.15723 24.6104 3.0498C 24.5137 2.94238 24.4653 2.80811 24.4653 2.64697ZM 26.8716 7.04053C 26.8716 6.47119 26.9826 5.95915 27.2046 5.50439C 27.4302 5.04964 27.7417 4.69873 28.1392 4.45166C 28.5402 4.20459 28.9967 4.08105 29.5088 4.08105C 30.3001 4.08105 30.9393 4.35498 31.4263 4.90283C 31.9168 5.45068 32.1621 6.17936 32.1621 7.08887L 32.1621 7.15869C 32.1621 7.72445 32.0529 8.23291 31.8345 8.68408C 31.6196 9.13167 31.3099 9.48079 30.9053 9.73145C 30.5042 9.9821 30.0423 10.1074 29.5195 10.1074C 28.7318 10.1074 28.0926 9.8335 27.6021 9.28564C 27.1151 8.73779 26.8716 8.0127 26.8716 7.11035L 26.8716 7.04053ZM 27.8706 7.15869C 27.8706 7.80322 28.0192 8.32064 28.3164 8.71094C 28.6172 9.10124 29.0182 9.29639 29.5195 9.29639C 30.0244 9.29639 30.4255 9.09945 30.7227 8.70557C 31.0199 8.30811 31.1685 7.75309 31.1685 7.04053C 31.1685 6.40316 31.0163 5.88753 30.7119 5.49365C 30.4111 5.09619 30.0101 4.89746 29.5088 4.89746C 29.0182 4.89746 28.6226 5.09261 28.3218 5.48291C 28.021 5.87321 27.8706 6.4318 27.8706 7.15869ZM 34.3481 4.18848L 34.3804 4.91895C 34.8244 4.36035 35.4045 4.08105 36.1206 4.08105C 37.3488 4.08105 37.9683 4.77393 37.979 6.15967L 37.979 10L 36.9854 10L 36.9854 6.1543C 36.9818 5.73535 36.8851 5.42562 36.6953 5.2251C 36.5091 5.02458 36.2173 4.92432 35.8198 4.92432C 35.4976 4.92432 35.2147 5.01025 34.9712 5.18213C 34.7277 5.354 34.5379 5.57959 34.4019 5.85889L 34.4019 10L 33.4082 10L 33.4082 4.18848L 34.3481 4.18848ZM 42.8613 8.4585C 42.8613 8.18994 42.7593 7.98226 42.5552 7.83545C 42.3547 7.68506 42.002 7.55615 41.4971 7.44873C 40.9958 7.34131 40.5965 7.2124 40.2993 7.06201C 40.0057 6.91162 39.7873 6.73258 39.644 6.5249C 39.5044 6.31722 39.4346 6.07015 39.4346 5.78369C 39.4346 5.30745 39.6351 4.90462 40.0361 4.5752C 40.4408 4.24577 40.9564 4.08105 41.583 4.08105C 42.2419 4.08105 42.7754 4.25114 43.1836 4.59131C 43.5954 4.93148 43.8013 5.36654 43.8013 5.89648L 42.8022 5.89648C 42.8022 5.62435 42.6859 5.38981 42.4531 5.19287C 42.224 4.99593 41.9339 4.89746 41.583 4.89746C 41.2214 4.89746 40.9385 4.97624 40.7344 5.13379C 40.5303 5.29134 40.4282 5.49723 40.4282 5.75146C 40.4282 5.99137 40.5231 6.1722 40.7129 6.29395C 40.9027 6.41569 41.2446 6.53206 41.7388 6.64307C 42.2365 6.75407 42.6393 6.88656 42.9473 7.04053C 43.2552 7.1945 43.4826 7.3807 43.6294 7.59912C 43.7798 7.81396 43.855 8.07715 43.855 8.38867C 43.855 8.90788 43.6473 9.32503 43.2319 9.64014C 42.8166 9.95166 42.2777 10.1074 41.6152 10.1074C 41.1497 10.1074 40.738 10.0251 40.3799 9.86035C 40.0218 9.69564 39.7407 9.46647 39.5366 9.17285C 39.3361 8.87565 39.2358 8.55518 39.2358 8.21143L 40.2295 8.21143C 40.2474 8.54443 40.3799 8.80941 40.627 9.00635C 40.8776 9.19971 41.207 9.29639 41.6152 9.29639C 41.9912 9.29639 42.292 9.22119 42.5176 9.0708C 42.7467 8.91683 42.8613 8.71273 42.8613 8.4585Z" transform="translate(526.066 22.5)" fill="#1F3F49"/>
</g>
<g id="Vector_5">
<path d="M 4 8C 6.20914 8 8 6.20914 8 4C 8 1.79086 6.20914 0 4 0C 1.79086 0 0 1.79086 0 4C 0 6.20914 1.79086 8 4 8Z" transform="translate(512.863 26)" fill="#4F4F4F"/>
</g>
</g>
<g id="Visitors">
<path d="M 3.49658 8.63037L 5.73096 2.17969L 6.85889 2.17969L 3.9585 10L 3.04541 10L 0.150391 2.17969L 1.27295 2.17969L 3.49658 8.63037ZM 8.83545 10L 7.8418 10L 7.8418 4.18848L 8.83545 4.18848L 8.83545 10ZM 7.76123 2.64697C 7.76123 2.48584 7.80957 2.34977 7.90625 2.23877C 8.00651 2.12777 8.15332 2.07227 8.34668 2.07227C 8.54004 2.07227 8.68685 2.12777 8.78711 2.23877C 8.88737 2.34977 8.9375 2.48584 8.9375 2.64697C 8.9375 2.80811 8.88737 2.94238 8.78711 3.0498C 8.68685 3.15723 8.54004 3.21094 8.34668 3.21094C 8.15332 3.21094 8.00651 3.15723 7.90625 3.0498C 7.80957 2.94238 7.76123 2.80811 7.76123 2.64697ZM 13.8145 8.4585C 13.8145 8.18994 13.7124 7.98226 13.5083 7.83545C 13.3078 7.68506 12.9551 7.55615 12.4502 7.44873C 11.9489 7.34131 11.5496 7.2124 11.2524 7.06201C 10.9588 6.91162 10.7404 6.73258 10.5972 6.5249C 10.4575 6.31722 10.3877 6.07015 10.3877 5.78369C 10.3877 5.30745 10.5882 4.90462 10.9893 4.5752C 11.3939 4.24577 11.9095 4.08105 12.5361 4.08105C 13.195 4.08105 13.7285 4.25114 14.1367 4.59131C 14.5485 4.93148 14.7544 5.36654 14.7544 5.89648L 13.7554 5.89648C 13.7554 5.62435 13.639 5.38981 13.4062 5.19287C 13.1771 4.99593 12.887 4.89746 12.5361 4.89746C 12.1745 4.89746 11.8916 4.97624 11.6875 5.13379C 11.4834 5.29134 11.3813 5.49723 11.3813 5.75146C 11.3813 5.99137 11.4762 6.1722 11.666 6.29395C 11.8558 6.41569 12.1978 6.53206 12.6919 6.64307C 13.1896 6.75407 13.5924 6.88656 13.9004 7.04053C 14.2083 7.1945 14.4357 7.3807 14.5825 7.59912C 14.7329 7.81396 14.8081 8.07715 14.8081 8.38867C 14.8081 8.90788 14.6004 9.32503 14.1851 9.64014C 13.7697 9.95166 13.2308 10.1074 12.5684 10.1074C 12.1029 10.1074 11.6911 10.0251 11.333 9.86035C 10.9749 9.69564 10.6938 9.46647 10.4897 9.17285C 10.2892 8.87565 10.189 8.55518 10.189 8.21143L 11.1826 8.21143C 11.2005 8.54443 11.333 8.80941 11.5801 9.00635C 11.8307 9.19971 12.1602 9.29639 12.5684 9.29639C 12.9443 9.29639 13.2451 9.22119 13.4707 9.0708C 13.6999 8.91683 13.8145 8.71273 13.8145 8.4585ZM 17.1821 10L 16.1885 10L 16.1885 4.18848L 17.1821 4.18848L 17.1821 10ZM 16.1079 2.64697C 16.1079 2.48584 16.1562 2.34977 16.2529 2.23877C 16.3532 2.12777 16.5 2.07227 16.6934 2.07227C 16.8867 2.07227 17.0335 2.12777 17.1338 2.23877C 17.234 2.34977 17.2842 2.48584 17.2842 2.64697C 17.2842 2.80811 17.234 2.94238 17.1338 3.0498C 17.0335 3.15723 16.8867 3.21094 16.6934 3.21094C 16.5 3.21094 16.3532 3.15723 16.2529 3.0498C 16.1562 2.94238 16.1079 2.80811 16.1079 2.64697ZM 20.1255 2.78125L 20.1255 4.18848L 21.2104 4.18848L 21.2104 4.95654L 20.1255 4.95654L 20.1255 8.56055C 20.1255 8.79329 20.1738 8.96875 20.2705 9.08691C 20.3672 9.2015 20.5319 9.25879 20.7646 9.25879C 20.8792 9.25879 21.0368 9.2373 21.2373 9.19434L 21.2373 10C 20.9759 10.0716 20.7217 10.1074 20.4746 10.1074C 20.0306 10.1074 19.6958 9.97314 19.4702 9.70459C 19.2446 9.43604 19.1318 9.05469 19.1318 8.56055L 19.1318 4.95654L 18.0737 4.95654L 18.0737 4.18848L 19.1318 4.18848L 19.1318 2.78125L 20.1255 2.78125ZM 22.0054 7.04053C 22.0054 6.47119 22.1164 5.95915 22.3384 5.50439C 22.564 5.04964 22.8755 4.69873 23.2729 4.45166C 23.674 4.20459 24.1305 4.08105 24.6426 4.08105C 25.4339 4.08105 26.0731 4.35498 26.5601 4.90283C 27.0506 5.45068 27.2959 6.17936 27.2959 7.08887L 27.2959 7.15869C 27.2959 7.72445 27.1867 8.23291 26.9683 8.68408C 26.7534 9.13167 26.4437 9.48079 26.0391 9.73145C 25.638 9.9821 25.1761 10.1074 24.6533 10.1074C 23.8656 10.1074 23.2264 9.8335 22.7358 9.28564C 22.2489 8.73779 22.0054 8.0127 22.0054 7.11035L 22.0054 7.04053ZM 23.0044 7.15869C 23.0044 7.80322 23.153 8.32064 23.4502 8.71094C 23.751 9.10124 24.152 9.29639 24.6533 9.29639C 25.1582 9.29639 25.5592 9.09945 25.8564 8.70557C 26.1536 8.30811 26.3022 7.75309 26.3022 7.04053C 26.3022 6.40316 26.1501 5.88753 25.8457 5.49365C 25.5449 5.09619 25.1439 4.89746 24.6426 4.89746C 24.152 4.89746 23.7563 5.09261 23.4556 5.48291C 23.1548 5.87321 23.0044 6.4318 23.0044 7.15869ZM 31.3511 5.08008C 31.2007 5.05501 31.0378 5.04248 30.8623 5.04248C 30.2106 5.04248 29.7684 5.31999 29.5356 5.875L 29.5356 10L 28.542 10L 28.542 4.18848L 29.5088 4.18848L 29.5249 4.85986C 29.8507 4.34066 30.3127 4.08105 30.9106 4.08105C 31.104 4.08105 31.2508 4.10612 31.3511 4.15625L 31.3511 5.08008ZM 35.6533 8.4585C 35.6533 8.18994 35.5513 7.98226 35.3472 7.83545C 35.1466 7.68506 34.7939 7.55615 34.2891 7.44873C 33.7878 7.34131 33.3885 7.2124 33.0913 7.06201C 32.7977 6.91162 32.5793 6.73258 32.436 6.5249C 32.2964 6.31722 32.2266 6.07015 32.2266 5.78369C 32.2266 5.30745 32.4271 4.90462 32.8281 4.5752C 33.2327 4.24577 33.7484 4.08105 34.375 4.08105C 35.0339 4.08105 35.5674 4.25114 35.9756 4.59131C 36.3874 4.93148 36.5933 5.36654 36.5933 5.89648L 35.5942 5.89648C 35.5942 5.62435 35.4779 5.38981 35.2451 5.19287C 35.016 4.99593 34.7259 4.89746 34.375 4.89746C 34.0133 4.89746 33.7305 4.97624 33.5264 5.13379C 33.3223 5.29134 33.2202 5.49723 33.2202 5.75146C 33.2202 5.99137 33.3151 6.1722 33.5049 6.29395C 33.6947 6.41569 34.0366 6.53206 34.5308 6.64307C 35.0285 6.75407 35.4313 6.88656 35.7393 7.04053C 36.0472 7.1945 36.2746 7.3807 36.4214 7.59912C 36.5718 7.81396 36.647 8.07715 36.647 8.38867C 36.647 8.90788 36.4393 9.32503 36.0239 9.64014C 35.6086 9.95166 35.0697 10.1074 34.4072 10.1074C 33.9417 10.1074 33.5299 10.0251 33.1719 9.86035C 32.8138 9.69564 32.5327 9.46647 32.3286 9.17285C 32.1281 8.87565 32.0278 8.55518 32.0278 8.21143L 33.0215 8.21143C 33.0394 8.54443 33.1719 8.80941 33.4189 9.00635C 33.6696 9.19971 33.999 9.29639 34.4072 9.29639C 34.7832 9.29639 35.084 9.22119 35.3096 9.0708C 35.5387 8.91683 35.6533 8.71273 35.6533 8.4585Z" transform="translate(468.971 22.5)" fill="#1F3F49"/>
</g>
<g id="Vector_6">
<path d="M 4 8C 6.20914 8 8 6.20914 8 4C 8 1.79086 6.20914 0 4 0C 1.79086 0 0 1.79086 0 4C 0 6.20914 1.79086 8 4 8Z" transform="translate(455.768 26)" fill="#757DE8"/>
</g>
</g>
</g>
<g id="Group_8">
<g id="Group_9">
<g id="Vector_7">
<path d="M -5.24521e-08 83.036L 83.92 43.726L 170.031 58.302L 252.625 11.042L 341.403 44.61L 427.973 7.508L 518.076 1.43051e-08" stroke-width="1.2" transform="translate(97.4297 81.985)" stroke="#3F51B5"/>
</g>
<g id="Vector_8">
<path d="M -2.76566e-08 102.912L 83.037 106.887L 169.607 59.627L 252.201 31.801L 340.979 64.928L 426.224 69.344L 517.652 4.27246e-07" stroke-width="1.2" transform="translate(97.8535 106.277)" stroke="#4F4F4F"/>
</g>
<g id="Vector_9">
<path d="M 1.57356e-08 76.411L 83.92 63.161L 169.606 82.153L 253.084 56.094L 342.304 66.694L 427.99 28.71L 518.094 -6.71387e-07" stroke-width="1.2" transform="translate(96.9707 165.904)" stroke="#757DE8"/>
</g>
</g>
<g id="Vector_10">
<path d="M 4.5 9C 6.98528 9 9 6.98528 9 4.5C 9 2.01472 6.98528 0 4.5 0C 2.01472 0 0 2.01472 0 4.5C 0 6.98528 2.01472 9 4.5 9Z" transform="translate(93 237)" fill="white"/>
<path d="M 9 4.5C 9 6.98528 6.98528 9 4.5 9C 2.01472 9 0 6.98528 0 4.5C 0 2.01472 2.01472 0 4.5 0C 6.98528 0 9 2.01472 9 4.5Z" stroke-width="1.2" transform="translate(93 237)" stroke="#757DE8"/>
</g>
<g id="Vector_11">
<path d="M 4.5 9C 6.98528 9 9 6.98528 9 4.5C 9 2.01472 6.98528 0 4.5 0C 2.01472 0 0 2.01472 0 4.5C 0 6.98528 2.01472 9 4.5 9Z" transform="translate(176 225)" fill="white"/>
<path d="M 9 4.5C 9 6.98528 6.98528 9 4.5 9C 2.01472 9 0 6.98528 0 4.5C 0 2.01472 2.01472 0 4.5 0C 6.98528 0 9 2.01472 9 4.5Z" stroke-width="1.2" transform="translate(176 225)" stroke="#757DE8"/>
</g>
<g id="Vector_12">
<path d="M 4.5 9C 6.98528 9 9 6.98528 9 4.5C 9 2.01472 6.98528 0 4.5 0C 2.01472 0 0 2.01472 0 4.5C 0 6.98528 2.01472 9 4.5 9Z" transform="translate(262 243)" fill="white"/>
<path d="M 9 4.5C 9 6.98528 6.98528 9 4.5 9C 2.01472 9 0 6.98528 0 4.5C 0 2.01472 2.01472 0 4.5 0C 6.98528 0 9 2.01472 9 4.5Z" stroke-width="1.2" transform="translate(262 243)" stroke="#757DE8"/>
</g>
<g id="Vector_13">
<path d="M 4.5 9C 6.98528 9 9 6.98528 9 4.5C 9 2.01472 6.98528 0 4.5 0C 2.01472 0 0 2.01472 0 4.5C 0 6.98528 2.01472 9 4.5 9Z" transform="translate(345 218)" fill="white"/>
<path d="M 9 4.5C 9 6.98528 6.98528 9 4.5 9C 2.01472 9 0 6.98528 0 4.5C 0 2.01472 2.01472 0 4.5 0C 6.98528 0 9 2.01472 9 4.5Z" stroke-width="1.2" transform="translate(345 218)" stroke="#757DE8"/>
</g>
<g id="Vector_14">
<path d="M 4.5 9C 6.98528 9 9 6.98528 9 4.5C 9 2.01472 6.98528 0 4.5 0C 2.01472 0 0 2.01472 0 4.5C 0 6.98528 2.01472 9 4.5 9Z" transform="translate(434 228)" fill="white"/>
<path d="M 9 4.5C 9 6.98528 6.98528 9 4.5 9C 2.01472 9 0 6.98528 0 4.5C 0 2.01472 2.01472 0 4.5 0C 6.98528 0 9 2.01472 9 4.5Z" stroke-width="1.2" transform="translate(434 228)" stroke="#757DE8"/>
</g>
<g id="Vector_15">
<path d="M 4.5 9C 6.98528 9 9 6.98528 9 4.5C 9 2.01472 6.98528 0 4.5 0C 2.01472 0 0 2.01472 0 4.5C 0 6.98528 2.01472 9 4.5 9Z" transform="translate(520 190)" fill="white"/>
<path d="M 9 4.5C 9 6.98528 6.98528 9 4.5 9C 2.01472 9 0 6.98528 0 4.5C 0 2.01472 2.01472 0 4.5 0C 6.98528 0 9 2.01472 9 4.5Z" stroke-width="1.2" transform="translate(520 190)" stroke="#757DE8"/>
</g>
<g id="Vector_16">
<path d="M 4.5 9C 6.98528 9 9 6.98528 9 4.5C 9 2.01472 6.98528 0 4.5 0C 2.01472 0 0 2.01472 0 4.5C 0 6.98528 2.01472 9 4.5 9Z" transform="translate(610 162)" fill="white"/>
<path d="M 9 4.5C 9 6.98528 6.98528 9 4.5 9C 2.01472 9 0 6.98528 0 4.5C 0 2.01472 2.01472 0 4.5 0C 6.98528 0 9 2.01472 9 4.5Z" stroke-width="1.2" transform="translate(610 162)" stroke="#757DE8"/>
</g>
</g>
</g>
</g>
<defs>

<radialGradient id="paint0_radial" cx="0.5" cy="0.5" r="0.5" gradientUnits="userSpaceOnUse" gradientTransform="matrix(0 181630 -266.601 0 132.835 -90512.6)">
<stop stop-color="#F5F7F8"/>
<stop offset="1" stop-color="#E7EBEF"/>
</radialGradient>

</defs>
</svg>

