<svg width="315" height="338" viewBox="0 0 315 338" version="1.1" xmlns="http://www.w3.org/2000/svg" xmlns:xlink="http://www.w3.org/1999/xlink">
<g id="Canvas" fill="none">
<g id="Group 3">
<g id="Vector">
<path d="M 315 0L 0 0L 0 338L 315 338L 315 0Z" fill="white"/>
</g>
<g id="Group">
<g id="Group_2">
<g id="Group_3">
<g id="Tablet">
<path d="M 6.31104 3.02832L 3.79736 3.02832L 3.79736 10L 2.77148 10L 2.77148 3.02832L 0.263184 3.02832L 0.263184 2.17969L 6.31104 2.17969L 6.31104 3.02832ZM 10.291 10C 10.2337 9.88542 10.1872 9.68132 10.1514 9.3877C 9.68945 9.86751 9.13802 10.1074 8.49707 10.1074C 7.92415 10.1074 7.45329 9.94629 7.08447 9.62402C 6.71924 9.29818 6.53662 8.88639 6.53662 8.38867C 6.53662 7.78353 6.76579 7.31445 7.22412 6.98145C 7.68604 6.64486 8.33415 6.47656 9.16846 6.47656L 10.1353 6.47656L 10.1353 6.02002C 10.1353 5.67269 10.0314 5.39697 9.82373 5.19287C 9.61605 4.98519 9.3099 4.88135 8.90527 4.88135C 8.55078 4.88135 8.25358 4.97087 8.01367 5.1499C 7.77376 5.32894 7.65381 5.54557 7.65381 5.7998L 6.65479 5.7998C 6.65479 5.50977 6.75684 5.23047 6.96094 4.96191C 7.16862 4.68978 7.44792 4.47493 7.79883 4.31738C 8.15332 4.15983 8.54183 4.08105 8.96436 4.08105C 9.63395 4.08105 10.1585 4.24935 10.5381 4.58594C 10.9176 4.91895 11.1146 5.37907 11.1289 5.96631L 11.1289 8.64111C 11.1289 9.17464 11.1969 9.59896 11.333 9.91406L 11.333 10L 10.291 10ZM 8.64209 9.24268C 8.95361 9.24268 9.24902 9.16211 9.52832 9.00098C 9.80762 8.83984 10.0099 8.63037 10.1353 8.37256L 10.1353 7.18018L 9.35645 7.18018C 8.139 7.18018 7.53027 7.53646 7.53027 8.24902C 7.53027 8.56055 7.63411 8.80404 7.8418 8.97949C 8.04948 9.15495 8.31624 9.24268 8.64209 9.24268ZM 17.6064 7.15869C 17.6064 8.04671 17.4023 8.76107 16.9941 9.30176C 16.5859 9.83887 16.0381 10.1074 15.3506 10.1074C 14.6165 10.1074 14.049 9.84782 13.6479 9.32861L 13.5996 10L 12.6865 10L 12.6865 1.75L 13.6802 1.75L 13.6802 4.82764C 14.0812 4.32992 14.6344 4.08105 15.3398 4.08105C 16.0452 4.08105 16.5985 4.34782 16.9995 4.88135C 17.4041 5.41488 17.6064 6.14535 17.6064 7.07275L 17.6064 7.15869ZM 16.6128 7.0459C 16.6128 6.36914 16.4821 5.84635 16.2207 5.47754C 15.9593 5.10872 15.5833 4.92432 15.0928 4.92432C 14.4375 4.92432 13.9666 5.22868 13.6802 5.8374L 13.6802 8.35107C 13.9845 8.9598 14.459 9.26416 15.1035 9.26416C 15.5798 9.26416 15.9504 9.07975 16.2153 8.71094C 16.4803 8.34212 16.6128 7.78711 16.6128 7.0459ZM 19.9429 10L 18.9492 10L 18.9492 1.75L 19.9429 1.75L 19.9429 10ZM 23.9497 10.1074C 23.1619 10.1074 22.521 9.84961 22.0269 9.33398C 21.5327 8.81478 21.2856 8.12191 21.2856 7.25537L 21.2856 7.07275C 21.2856 6.49626 21.3949 5.98242 21.6133 5.53125C 21.8353 5.0765 22.1432 4.72201 22.5371 4.46777C 22.9346 4.20996 23.3643 4.08105 23.8262 4.08105C 24.5817 4.08105 25.1689 4.32992 25.5879 4.82764C 26.0068 5.32536 26.2163 6.03792 26.2163 6.96533L 26.2163 7.37891L 22.2793 7.37891C 22.2936 7.95182 22.4601 8.41553 22.7788 8.77002C 23.1011 9.12093 23.5093 9.29639 24.0034 9.29639C 24.3543 9.29639 24.6515 9.22477 24.895 9.08154C 25.1385 8.93831 25.3516 8.74854 25.5342 8.51221L 26.1411 8.98486C 25.6541 9.73324 24.9237 10.1074 23.9497 10.1074ZM 23.8262 4.89746C 23.4251 4.89746 23.0885 5.04427 22.8164 5.33789C 22.5443 5.62793 22.376 6.03613 22.3115 6.5625L 25.2227 6.5625L 25.2227 6.4873C 25.194 5.98242 25.0579 5.59212 24.8145 5.31641C 24.571 5.03711 24.2415 4.89746 23.8262 4.89746ZM 28.7192 2.78125L 28.7192 4.18848L 29.8042 4.18848L 29.8042 4.95654L 28.7192 4.95654L 28.7192 8.56055C 28.7192 8.79329 28.7676 8.96875 28.8643 9.08691C 28.9609 9.2015 29.1257 9.25879 29.3584 9.25879C 29.473 9.25879 29.6305 9.2373 29.8311 9.19434L 29.8311 10C 29.5697 10.0716 29.3154 10.1074 29.0684 10.1074C 28.6243 10.1074 28.2896 9.97314 28.064 9.70459C 27.8384 9.43604 27.7256 9.05469 27.7256 8.56055L 27.7256 4.95654L 26.6675 4.95654L 26.6675 4.18848L 27.7256 4.18848L 27.7256 2.78125L 28.7192 2.78125Z" transform="translate(259.918 282.5)" fill="#1F3F49"/>
</g>
<g id="Vector_2">
<path d="M 3.906 8.08C 6.06322 8.08 7.812 6.27123 7.812 4.04C 7.812 1.80877 6.06322 0 3.906 0C 1.74878 0 0 1.80877 0 4.04C 0 6.27123 1.74878 8.08 3.906 8.08Z" transform="translate(249 286)" fill="#4F4F4F"/>
</g>
</g>
<g id="Group_4">
<g id="Mobile">
<path d="M 2.23975 2.17969L 4.79639 8.56055L 7.35303 2.17969L 8.69043 2.17969L 8.69043 10L 7.65918 10L 7.65918 6.95459L 7.75586 3.66748L 5.18848 10L 4.39893 10L 1.83691 3.68359L 1.93896 6.95459L 1.93896 10L 0.907715 10L 0.907715 2.17969L 2.23975 2.17969ZM 10.0923 7.04053C 10.0923 6.47119 10.2033 5.95915 10.4253 5.50439C 10.6509 5.04964 10.9624 4.69873 11.3599 4.45166C 11.7609 4.20459 12.2174 4.08105 12.7295 4.08105C 13.5208 4.08105 14.16 4.35498 14.647 4.90283C 15.1375 5.45068 15.3828 6.17936 15.3828 7.08887L 15.3828 7.15869C 15.3828 7.72445 15.2736 8.23291 15.0552 8.68408C 14.8403 9.13167 14.5306 9.48079 14.126 9.73145C 13.7249 9.9821 13.263 10.1074 12.7402 10.1074C 11.9525 10.1074 11.3133 9.8335 10.8228 9.28564C 10.3358 8.73779 10.0923 8.0127 10.0923 7.11035L 10.0923 7.04053ZM 11.0913 7.15869C 11.0913 7.80322 11.2399 8.32064 11.5371 8.71094C 11.8379 9.10124 12.2389 9.29639 12.7402 9.29639C 13.2451 9.29639 13.6462 9.09945 13.9434 8.70557C 14.2406 8.30811 14.3892 7.75309 14.3892 7.04053C 14.3892 6.40316 14.237 5.88753 13.9326 5.49365C 13.6318 5.09619 13.2308 4.89746 12.7295 4.89746C 12.2389 4.89746 11.8433 5.09261 11.5425 5.48291C 11.2417 5.87321 11.0913 6.4318 11.0913 7.15869ZM 21.5488 7.15869C 21.5488 8.04671 21.3447 8.76107 20.9365 9.30176C 20.5283 9.83887 19.9805 10.1074 19.293 10.1074C 18.5589 10.1074 17.9914 9.84782 17.5903 9.32861L 17.542 10L 16.6289 10L 16.6289 1.75L 17.6226 1.75L 17.6226 4.82764C 18.0236 4.32992 18.5768 4.08105 19.2822 4.08105C 19.9876 4.08105 20.5409 4.34782 20.9419 4.88135C 21.3465 5.41488 21.5488 6.14535 21.5488 7.07275L 21.5488 7.15869ZM 20.5552 7.0459C 20.5552 6.36914 20.4245 5.84635 20.1631 5.47754C 19.9017 5.10872 19.5257 4.92432 19.0352 4.92432C 18.3799 4.92432 17.909 5.22868 17.6226 5.8374L 17.6226 8.35107C 17.9269 8.9598 18.4014 9.26416 19.0459 9.26416C 19.5221 9.26416 19.8927 9.07975 20.1577 8.71094C 20.4227 8.34212 20.5552 7.78711 20.5552 7.0459ZM 23.8853 10L 22.8916 10L 22.8916 4.18848L 23.8853 4.18848L 23.8853 10ZM 22.811 2.64697C 22.811 2.48584 22.8594 2.34977 22.9561 2.23877C 23.0563 2.12777 23.2031 2.07227 23.3965 2.07227C 23.5898 2.07227 23.7367 2.12777 23.8369 2.23877C 23.9372 2.34977 23.9873 2.48584 23.9873 2.64697C 23.9873 2.80811 23.9372 2.94238 23.8369 3.0498C 23.7367 3.15723 23.5898 3.21094 23.3965 3.21094C 23.2031 3.21094 23.0563 3.15723 22.9561 3.0498C 22.8594 2.94238 22.811 2.80811 22.811 2.64697ZM 26.5601 10L 25.5664 10L 25.5664 1.75L 26.5601 1.75L 26.5601 10ZM 30.5669 10.1074C 29.7791 10.1074 29.1382 9.84961 28.644 9.33398C 28.1499 8.81478 27.9028 8.12191 27.9028 7.25537L 27.9028 7.07275C 27.9028 6.49626 28.012 5.98242 28.2305 5.53125C 28.4525 5.0765 28.7604 4.72201 29.1543 4.46777C 29.5518 4.20996 29.9814 4.08105 30.4434 4.08105C 31.1989 4.08105 31.7861 4.32992 32.2051 4.82764C 32.624 5.32536 32.8335 6.03792 32.8335 6.96533L 32.8335 7.37891L 28.8965 7.37891C 28.9108 7.95182 29.0773 8.41553 29.396 8.77002C 29.7183 9.12093 30.1265 9.29639 30.6206 9.29639C 30.9715 9.29639 31.2687 9.22477 31.5122 9.08154C 31.7557 8.93831 31.9688 8.74854 32.1514 8.51221L 32.7583 8.98486C 32.2713 9.73324 31.5409 10.1074 30.5669 10.1074ZM 30.4434 4.89746C 30.0423 4.89746 29.7057 5.04427 29.4336 5.33789C 29.1615 5.62793 28.9932 6.03613 28.9287 6.5625L 31.8398 6.5625L 31.8398 6.4873C 31.8112 5.98242 31.6751 5.59212 31.4316 5.31641C 31.1882 5.03711 30.8587 4.89746 30.4434 4.89746Z" transform="translate(151.449 282.5)" fill="#1F3F49"/>
</g>
<g id="Vector_3">
<path d="M 3.906 8.08C 6.06322 8.08 7.812 6.27123 7.812 4.04C 7.812 1.80877 6.06322 0 3.906 0C 1.74878 0 0 1.80877 0 4.04C 0 6.27123 1.74878 8.08 3.906 8.08Z" transform="translate(138.779 286)" fill="#CED2CC"/>
</g>
</g>
<g id="Desktop">
<path d="M 0.907715 10L 0.907715 2.17969L 3.11523 2.17969C 3.79557 2.17969 4.39714 2.33008 4.91992 2.63086C 5.44271 2.93164 5.84554 3.35954 6.12842 3.91455C 6.41488 4.46956 6.5599 5.10693 6.56348 5.82666L 6.56348 6.32617C 6.56348 7.0638 6.42025 7.71012 6.13379 8.26514C 5.85091 8.82015 5.4445 9.24626 4.91455 9.54346C 4.38818 9.84066 3.77409 9.99284 3.07227 10L 0.907715 10ZM 1.93896 3.02832L 1.93896 9.15674L 3.02393 9.15674C 3.81885 9.15674 4.43652 8.90967 4.87695 8.41553C 5.32096 7.92139 5.54297 7.21777 5.54297 6.30469L 5.54297 5.84814C 5.54297 4.96012 5.3335 4.27083 4.91455 3.78027C 4.49919 3.28613 3.90837 3.03548 3.14209 3.02832L 1.93896 3.02832ZM 10.3823 10.1074C 9.59456 10.1074 8.95361 9.84961 8.45947 9.33398C 7.96533 8.81478 7.71826 8.12191 7.71826 7.25537L 7.71826 7.07275C 7.71826 6.49626 7.82747 5.98242 8.0459 5.53125C 8.2679 5.0765 8.57585 4.72201 8.96973 4.46777C 9.36719 4.20996 9.79688 4.08105 10.2588 4.08105C 11.0143 4.08105 11.6016 4.32992 12.0205 4.82764C 12.4395 5.32536 12.6489 6.03792 12.6489 6.96533L 12.6489 7.37891L 8.71191 7.37891C 8.72624 7.95182 8.89274 8.41553 9.21143 8.77002C 9.53369 9.12093 9.94189 9.29639 10.436 9.29639C 10.7869 9.29639 11.0841 9.22477 11.3276 9.08154C 11.5711 8.93831 11.7842 8.74854 11.9668 8.51221L 12.5737 8.98486C 12.0868 9.73324 11.3563 10.1074 10.3823 10.1074ZM 10.2588 4.89746C 9.85775 4.89746 9.52116 5.04427 9.24902 5.33789C 8.97689 5.62793 8.80859 6.03613 8.74414 6.5625L 11.6553 6.5625L 11.6553 6.4873C 11.6266 5.98242 11.4906 5.59212 11.2471 5.31641C 11.0036 5.03711 10.6742 4.89746 10.2588 4.89746ZM 17.1875 8.4585C 17.1875 8.18994 17.0854 7.98226 16.8813 7.83545C 16.6808 7.68506 16.3281 7.55615 15.8232 7.44873C 15.3219 7.34131 14.9227 7.2124 14.6255 7.06201C 14.3319 6.91162 14.1134 6.73258 13.9702 6.5249C 13.8306 6.31722 13.7607 6.07015 13.7607 5.78369C 13.7607 5.30745 13.9613 4.90462 14.3623 4.5752C 14.7669 4.24577 15.2826 4.08105 15.9092 4.08105C 16.568 4.08105 17.1016 4.25114 17.5098 4.59131C 17.9215 4.93148 18.1274 5.36654 18.1274 5.89648L 17.1284 5.89648C 17.1284 5.62435 17.012 5.38981 16.7793 5.19287C 16.5501 4.99593 16.2601 4.89746 15.9092 4.89746C 15.5475 4.89746 15.2646 4.97624 15.0605 5.13379C 14.8564 5.29134 14.7544 5.49723 14.7544 5.75146C 14.7544 5.99137 14.8493 6.1722 15.0391 6.29395C 15.2288 6.41569 15.5708 6.53206 16.0649 6.64307C 16.5627 6.75407 16.9655 6.88656 17.2734 7.04053C 17.5814 7.1945 17.8088 7.3807 17.9556 7.59912C 18.106 7.81396 18.1812 8.07715 18.1812 8.38867C 18.1812 8.90788 17.9735 9.32503 17.5581 9.64014C 17.1427 9.95166 16.6038 10.1074 15.9414 10.1074C 15.4759 10.1074 15.0641 10.0251 14.7061 9.86035C 14.348 9.69564 14.0669 9.46647 13.8628 9.17285C 13.6623 8.87565 13.562 8.55518 13.562 8.21143L 14.5557 8.21143C 14.5736 8.54443 14.7061 8.80941 14.9531 9.00635C 15.2038 9.19971 15.5332 9.29639 15.9414 9.29639C 16.3174 9.29639 16.6182 9.22119 16.8438 9.0708C 17.0729 8.91683 17.1875 8.71273 17.1875 8.4585ZM 21.0977 7.30908L 20.4746 7.95898L 20.4746 10L 19.481 10L 19.481 1.75L 20.4746 1.75L 20.4746 6.73975L 21.0063 6.10059L 22.8164 4.18848L 24.0249 4.18848L 21.7637 6.61621L 24.2881 10L 23.1226 10L 21.0977 7.30908ZM 26.3989 2.78125L 26.3989 4.18848L 27.4839 4.18848L 27.4839 4.95654L 26.3989 4.95654L 26.3989 8.56055C 26.3989 8.79329 26.4473 8.96875 26.5439 9.08691C 26.6406 9.2015 26.8053 9.25879 27.0381 9.25879C 27.1527 9.25879 27.3102 9.2373 27.5107 9.19434L 27.5107 10C 27.2493 10.0716 26.9951 10.1074 26.748 10.1074C 26.304 10.1074 25.9692 9.97314 25.7437 9.70459C 25.5181 9.43604 25.4053 9.05469 25.4053 8.56055L 25.4053 4.95654L 24.3472 4.95654L 24.3472 4.18848L 25.4053 4.18848L 25.4053 2.78125L 26.3989 2.78125ZM 28.2788 7.04053C 28.2788 6.47119 28.3898 5.95915 28.6118 5.50439C 28.8374 5.04964 29.1489 4.69873 29.5464 4.45166C 29.9474 4.20459 30.404 4.08105 30.916 4.08105C 31.7074 4.08105 32.3465 4.35498 32.8335 4.90283C 33.3241 5.45068 33.5693 6.17936 33.5693 7.08887L 33.5693 7.15869C 33.5693 7.72445 33.4601 8.23291 33.2417 8.68408C 33.0269 9.13167 32.7171 9.48079 32.3125 9.73145C 31.9115 9.9821 31.4495 10.1074 30.9268 10.1074C 30.139 10.1074 29.4998 9.8335 29.0093 9.28564C 28.5223 8.73779 28.2788 8.0127 28.2788 7.11035L 28.2788 7.04053ZM 29.2778 7.15869C 29.2778 7.80322 29.4264 8.32064 29.7236 8.71094C 30.0244 9.10124 30.4255 9.29639 30.9268 9.29639C 31.4316 9.29639 31.8327 9.09945 32.1299 8.70557C 32.4271 8.30811 32.5757 7.75309 32.5757 7.04053C 32.5757 6.40316 32.4235 5.88753 32.1191 5.49365C 31.8184 5.09619 31.4173 4.89746 30.916 4.89746C 30.4255 4.89746 30.0298 5.09261 29.729 5.48291C 29.4282 5.87321 29.2778 6.4318 29.2778 7.15869ZM 39.7246 7.15869C 39.7246 8.04313 39.5223 8.7557 39.1177 9.29639C 38.7131 9.83708 38.1652 10.1074 37.4741 10.1074C 36.7687 10.1074 36.2137 9.88363 35.8091 9.43604L 35.8091 12.2344L 34.8154 12.2344L 34.8154 4.18848L 35.7231 4.18848L 35.7715 4.83301C 36.1761 4.33171 36.7383 4.08105 37.458 4.08105C 38.1562 4.08105 38.7077 4.34424 39.1123 4.87061C 39.5205 5.39697 39.7246 6.12923 39.7246 7.06738L 39.7246 7.15869ZM 38.731 7.0459C 38.731 6.39062 38.5913 5.87321 38.312 5.49365C 38.0327 5.1141 37.6496 4.92432 37.1626 4.92432C 36.561 4.92432 36.1099 5.19108 35.8091 5.72461L 35.8091 8.50146C 36.1063 9.03141 36.561 9.29639 37.1733 9.29639C 37.6496 9.29639 38.0273 9.1084 38.3066 8.73242C 38.5895 8.35286 38.731 7.79069 38.731 7.0459Z" transform="translate(39.1172 282.5)" fill="#1F3F49"/>
</g>
<g id="Vector_4">
<path d="M 3.906 8.08C 6.06322 8.08 7.812 6.27123 7.812 4.04C 7.812 1.80877 6.06322 0 3.906 0C 1.74878 0 0 1.80877 0 4.04C 0 6.27123 1.74878 8.08 3.906 8.08Z" transform="translate(26.4473 286)" fill="#757DE8"/>
</g>
</g>
<g id="Group_5">
<g id="Vector_5">
<path fill-rule="evenodd" clip-rule="evenodd" d="M -6.04004e-08 66.6796C 17.7937 28.2559 56.1735 1.31088 100.984 -5.0167e-10L 100.984 17.4301C 63.1404 18.7318 30.7529 41.5182 15.6387 73.9721L -6.04004e-08 66.6796Z" transform="translate(54.5898 26.05)" fill="#CED2CC"/>
</g>
<g id="Vector_6">
<path fill-rule="evenodd" clip-rule="evenodd" d="M -1.3355e-06 215.564C 16.5315 224.761 35.5673 230 55.8267 230C 119.339 230 170.827 178.513 170.827 115C 170.827 51.4873 119.339 0 55.8267 0C 55.0091 0 54.1935 0.00853271 53.3799 0.0255139L 53.3799 17.4513C 54.1931 17.4313 55.0087 17.4213 55.8267 17.4213C 109.88 17.4213 153.699 61.2402 153.699 115.294C 153.699 169.347 109.88 213.166 55.8267 213.166C 39.057 213.166 23.2724 208.948 9.47574 201.516L -1.3355e-06 215.564Z" transform="translate(103.174 26)" fill="#757DE8"/>
</g>
<g id="Vector_7">
<path fill-rule="evenodd" clip-rule="evenodd" d="M 58.3172 147.464C 23.4935 127.699 0 90.2832 0 47.3805C 0 30.489 3.6418 14.448 10.1831 2.39473e-06L 25.8206 7.29189C 20.2369 19.6032 17.1277 33.2756 17.1277 47.6741C 17.1277 84.607 37.5847 116.762 67.7859 133.426L 58.3172 147.464Z" transform="translate(44 93.6195)" fill="#4F4F4F"/>
</g>
</g>
</g>
</g>
</g>
</svg>

