<svg width="378" height="279" viewBox="0 0 378 279" version="1.1" xmlns="http://www.w3.org/2000/svg" xmlns:xlink="http://www.w3.org/1999/xlink">
<g id="Canvas" fill="none">
<g id="Group 2">
<g id="Vector">
<path d="M 378 0L 0 0L 0 279L 378 279L 378 0Z" fill="white"/>
</g>
<g id="Group">
<mask id="mask0" mask-type="alpha" maskUnits="userSpaceOnUse" x="2" y="9" width="373" height="259">
<g id="dashboard formatted with a professional color combination 2 e">
<g id="Vector_2">
<path d="M 369 0L 4 0C 1.79086 0 0 1.79086 0 4L 0 255C 0 257.209 1.79086 259 4 259L 369 259C 371.209 259 373 257.209 373 255L 373 4C 373 1.79086 371.209 0 369 0Z" transform="translate(2 9)" fill="white"/>
</g>
</g>
</mask>
<g mask="url(#mask0)">
<g id="Vector_3">
<path d="M 369 0L 4 0C 1.79086 0 0 1.79086 0 4L 0 255C 0 257.209 1.79086 259 4 259L 369 259C 371.209 259 373 257.209 373 255L 373 4C 373 1.79086 371.209 0 369 0Z" transform="translate(2 9)" fill="white"/>
</g>
<g id="Group_2">
<g id="Group_3">
<g id="Group_4">
<g id="Vector_4">
<path d="M 8.65749e-10 141.075L 318.893 141.075M 8.65749e-10 5.56798e-09L 318.893 5.56798e-09L 8.65749e-10 5.56798e-09ZM 8.65749e-10 28.2151L 318.893 28.2151L 8.65749e-10 28.2151ZM 8.65749e-10 56.4302L 318.893 56.4302L 8.65749e-10 56.4302ZM 8.65749e-10 84.6452L 318.893 84.6452L 8.65749e-10 84.6452ZM 8.65749e-10 112.86L 318.893 112.86L 8.65749e-10 112.86Z" stroke-width="0.6" stroke-linecap="square" transform="translate(45.1914 93.8667)" stroke="url(#paint0_radial)"/>
</g>
</g>
<g id="Group_5">
<g id="0">
<path d="M 5.04883 5.96777C 5.04883 7.02572 4.86816 7.81185 4.50684 8.32617C 4.14551 8.84049 3.58073 9.09766 2.8125 9.09766C 2.05404 9.09766 1.49251 8.84701 1.12793 8.3457C 0.763346 7.84115 0.574544 7.08919 0.561523 6.08984L 0.561523 4.88379C 0.561523 3.83887 0.742188 3.0625 1.10352 2.55469C 1.46484 2.04688 2.03125 1.79297 2.80273 1.79297C 3.56771 1.79297 4.13086 2.03874 4.49219 2.53027C 4.85352 3.01855 5.03906 3.77376 5.04883 4.7959L 5.04883 5.96777ZM 4.14551 4.73242C 4.14551 3.96745 4.03809 3.41081 3.82324 3.0625C 3.6084 2.71094 3.26823 2.53516 2.80273 2.53516C 2.34049 2.53516 2.00358 2.70931 1.79199 3.05762C 1.5804 3.40592 1.47135 3.94141 1.46484 4.66406L 1.46484 6.10938C 1.46484 6.8776 1.57552 7.44564 1.79688 7.81348C 2.02148 8.17806 2.36003 8.36035 2.8125 8.36035C 3.25846 8.36035 3.58887 8.18783 3.80371 7.84277C 4.02181 7.49772 4.13574 6.9541 4.14551 6.21191L 4.14551 4.73242Z" transform="translate(35.8789 228.08)" fill="#1F3F49"/>
</g>
<g id="500K">
<path d="M 1.00586 5.43555L 1.36719 1.89062L 5.00977 1.89062L 5.00977 2.72559L 2.13379 2.72559L 1.91895 4.66406C 2.26725 4.45898 2.66276 4.35645 3.10547 4.35645C 3.75326 4.35645 4.26758 4.57129 4.64844 5.00098C 5.0293 5.42741 5.21973 6.00521 5.21973 6.73438C 5.21973 7.4668 5.02116 8.0446 4.62402 8.46777C 4.23014 8.8877 3.67839 9.09766 2.96875 9.09766C 2.34049 9.09766 1.8278 8.9235 1.43066 8.5752C 1.03353 8.22689 0.807292 7.74512 0.751953 7.12988L 1.60645 7.12988C 1.66178 7.53678 1.80664 7.8444 2.04102 8.05273C 2.27539 8.25781 2.58464 8.36035 2.96875 8.36035C 3.38867 8.36035 3.71745 8.21712 3.95508 7.93066C 4.19596 7.64421 4.31641 7.2487 4.31641 6.74414C 4.31641 6.26888 4.1862 5.88802 3.92578 5.60156C 3.66862 5.31185 3.3252 5.16699 2.89551 5.16699C 2.50163 5.16699 2.19238 5.25326 1.96777 5.42578L 1.72852 5.62109L 1.00586 5.43555ZM 10.6641 5.96777C 10.6641 7.02572 10.4834 7.81185 10.1221 8.32617C 9.76074 8.84049 9.19596 9.09766 8.42773 9.09766C 7.66927 9.09766 7.10775 8.84701 6.74316 8.3457C 6.37858 7.84115 6.18978 7.08919 6.17676 6.08984L 6.17676 4.88379C 6.17676 3.83887 6.35742 3.0625 6.71875 2.55469C 7.08008 2.04688 7.64648 1.79297 8.41797 1.79297C 9.18294 1.79297 9.74609 2.03874 10.1074 2.53027C 10.4688 3.01855 10.6543 3.77376 10.6641 4.7959L 10.6641 5.96777ZM 9.76074 4.73242C 9.76074 3.96745 9.65332 3.41081 9.43848 3.0625C 9.22363 2.71094 8.88346 2.53516 8.41797 2.53516C 7.95573 2.53516 7.61882 2.70931 7.40723 3.05762C 7.19564 3.40592 7.08659 3.94141 7.08008 4.66406L 7.08008 6.10938C 7.08008 6.8776 7.19076 7.44564 7.41211 7.81348C 7.63672 8.17806 7.97526 8.36035 8.42773 8.36035C 8.8737 8.36035 9.2041 8.18783 9.41895 7.84277C 9.63704 7.49772 9.75098 6.9541 9.76074 6.21191L 9.76074 4.73242ZM 16.2793 5.96777C 16.2793 7.02572 16.0986 7.81185 15.7373 8.32617C 15.376 8.84049 14.8112 9.09766 14.043 9.09766C 13.2845 9.09766 12.723 8.84701 12.3584 8.3457C 11.9938 7.84115 11.805 7.08919 11.792 6.08984L 11.792 4.88379C 11.792 3.83887 11.9727 3.0625 12.334 2.55469C 12.6953 2.04688 13.2617 1.79297 14.0332 1.79297C 14.7982 1.79297 15.3613 2.03874 15.7227 2.53027C 16.084 3.01855 16.2695 3.77376 16.2793 4.7959L 16.2793 5.96777ZM 15.376 4.73242C 15.376 3.96745 15.2686 3.41081 15.0537 3.0625C 14.8389 2.71094 14.4987 2.53516 14.0332 2.53516C 13.571 2.53516 13.234 2.70931 13.0225 3.05762C 12.8109 3.40592 12.7018 3.94141 12.6953 4.66406L 12.6953 6.10938C 12.6953 6.8776 12.806 7.44564 13.0273 7.81348C 13.252 8.17806 13.5905 8.36035 14.043 8.36035C 14.4889 8.36035 14.8193 8.18783 15.0342 7.84277C 15.2523 7.49772 15.3662 6.9541 15.376 6.21191L 15.376 4.73242ZM 19.4775 5.69434L 18.6084 6.59766L 18.6084 9L 17.6709 9L 17.6709 1.89062L 18.6084 1.89062L 18.6084 5.40625L 21.7676 1.89062L 22.9004 1.89062L 20.1025 5.03027L 23.1201 9L 21.9971 9L 19.4775 5.69434Z" transform="translate(17.7266 199.86)" fill="#1F3F49"/>
</g>
<g id="1.0M">
<path d="M 3.55957 9L 2.65137 9L 2.65137 2.97949L 0.830078 3.64844L 0.830078 2.82812L 3.41797 1.85645L 3.55957 1.85645L 3.55957 9ZM 6.31836 8.52637C 6.31836 8.37012 6.36393 8.23991 6.45508 8.13574C 6.54948 8.03158 6.68945 7.97949 6.875 7.97949C 7.06055 7.97949 7.20052 8.03158 7.29492 8.13574C 7.39258 8.23991 7.44141 8.37012 7.44141 8.52637C 7.44141 8.67611 7.39258 8.80143 7.29492 8.90234C 7.20052 9.00326 7.06055 9.05371 6.875 9.05371C 6.68945 9.05371 6.54948 9.00326 6.45508 8.90234C 6.36393 8.80143 6.31836 8.67611 6.31836 8.52637ZM 13.3008 5.96777C 13.3008 7.02572 13.1201 7.81185 12.7588 8.32617C 12.3975 8.84049 11.8327 9.09766 11.0645 9.09766C 10.306 9.09766 9.74447 8.84701 9.37988 8.3457C 9.0153 7.84115 8.8265 7.08919 8.81348 6.08984L 8.81348 4.88379C 8.81348 3.83887 8.99414 3.0625 9.35547 2.55469C 9.7168 2.04688 10.2832 1.79297 11.0547 1.79297C 11.8197 1.79297 12.3828 2.03874 12.7441 2.53027C 13.1055 3.01855 13.291 3.77376 13.3008 4.7959L 13.3008 5.96777ZM 12.3975 4.73242C 12.3975 3.96745 12.29 3.41081 12.0752 3.0625C 11.8604 2.71094 11.5202 2.53516 11.0547 2.53516C 10.5924 2.53516 10.2555 2.70931 10.0439 3.05762C 9.83236 3.40592 9.72331 3.94141 9.7168 4.66406L 9.7168 6.10938C 9.7168 6.8776 9.82747 7.44564 10.0488 7.81348C 10.2734 8.17806 10.612 8.36035 11.0645 8.36035C 11.5104 8.36035 11.8408 8.18783 12.0557 7.84277C 12.2738 7.49772 12.3877 6.9541 12.3975 6.21191L 12.3975 4.73242ZM 15.9033 1.89062L 18.2275 7.69141L 20.5518 1.89062L 21.7676 1.89062L 21.7676 9L 20.8301 9L 20.8301 6.23145L 20.918 3.24316L 18.584 9L 17.8662 9L 15.5371 3.25781L 15.6299 6.23145L 15.6299 9L 14.6924 9L 14.6924 1.89062L 15.9033 1.89062Z" transform="translate(18.8496 171.645)" fill="#1F3F49"/>
</g>
<g id="1.5M">
<path d="M 3.55957 9L 2.65137 9L 2.65137 2.97949L 0.830078 3.64844L 0.830078 2.82812L 3.41797 1.85645L 3.55957 1.85645L 3.55957 9ZM 6.31836 8.52637C 6.31836 8.37012 6.36393 8.23991 6.45508 8.13574C 6.54948 8.03158 6.68945 7.97949 6.875 7.97949C 7.06055 7.97949 7.20052 8.03158 7.29492 8.13574C 7.39258 8.23991 7.44141 8.37012 7.44141 8.52637C 7.44141 8.67611 7.39258 8.80143 7.29492 8.90234C 7.20052 9.00326 7.06055 9.05371 6.875 9.05371C 6.68945 9.05371 6.54948 9.00326 6.45508 8.90234C 6.36393 8.80143 6.31836 8.67611 6.31836 8.52637ZM 9.25781 5.43555L 9.61914 1.89062L 13.2617 1.89062L 13.2617 2.72559L 10.3857 2.72559L 10.1709 4.66406C 10.5192 4.45898 10.9147 4.35645 11.3574 4.35645C 12.0052 4.35645 12.5195 4.57129 12.9004 5.00098C 13.2812 5.42741 13.4717 6.00521 13.4717 6.73438C 13.4717 7.4668 13.2731 8.0446 12.876 8.46777C 12.4821 8.8877 11.9303 9.09766 11.2207 9.09766C 10.5924 9.09766 10.0798 8.9235 9.68262 8.5752C 9.28548 8.22689 9.05924 7.74512 9.00391 7.12988L 9.8584 7.12988C 9.91374 7.53678 10.0586 7.8444 10.293 8.05273C 10.5273 8.25781 10.8366 8.36035 11.2207 8.36035C 11.6406 8.36035 11.9694 8.21712 12.207 7.93066C 12.4479 7.64421 12.5684 7.2487 12.5684 6.74414C 12.5684 6.26888 12.4382 5.88802 12.1777 5.60156C 11.9206 5.31185 11.5771 5.16699 11.1475 5.16699C 10.7536 5.16699 10.4443 5.25326 10.2197 5.42578L 9.98047 5.62109L 9.25781 5.43555ZM 15.9033 1.89062L 18.2275 7.69141L 20.5518 1.89062L 21.7676 1.89062L 21.7676 9L 20.8301 9L 20.8301 6.23145L 20.918 3.24316L 18.584 9L 17.8662 9L 15.5371 3.25781L 15.6299 6.23145L 15.6299 9L 14.6924 9L 14.6924 1.89062L 15.9033 1.89062Z" transform="translate(18.8496 143.43)" fill="#1F3F49"/>
</g>
<g id="2.0M">
<path d="M 5.24902 9L 0.59082 9L 0.59082 8.35059L 3.05176 5.61621C 3.41634 5.2028 3.66699 4.86751 3.80371 4.61035C 3.94368 4.34993 4.01367 4.08138 4.01367 3.80469C 4.01367 3.43359 3.90137 3.12923 3.67676 2.8916C 3.45215 2.65397 3.15267 2.53516 2.77832 2.53516C 2.3291 2.53516 1.97917 2.66374 1.72852 2.9209C 1.48112 3.1748 1.35742 3.52962 1.35742 3.98535L 0.454102 3.98535C 0.454102 3.33105 0.664062 2.80208 1.08398 2.39844C 1.50716 1.99479 2.07194 1.79297 2.77832 1.79297C 3.43913 1.79297 3.96159 1.96712 4.3457 2.31543C 4.72982 2.66048 4.92188 3.12109 4.92188 3.69727C 4.92188 4.39714 4.47591 5.23047 3.58398 6.19727L 1.67969 8.2627L 5.24902 8.2627L 5.24902 9ZM 6.31836 8.52637C 6.31836 8.37012 6.36393 8.23991 6.45508 8.13574C 6.54948 8.03158 6.68945 7.97949 6.875 7.97949C 7.06055 7.97949 7.20052 8.03158 7.29492 8.13574C 7.39258 8.23991 7.44141 8.37012 7.44141 8.52637C 7.44141 8.67611 7.39258 8.80143 7.29492 8.90234C 7.20052 9.00326 7.06055 9.05371 6.875 9.05371C 6.68945 9.05371 6.54948 9.00326 6.45508 8.90234C 6.36393 8.80143 6.31836 8.67611 6.31836 8.52637ZM 13.3008 5.96777C 13.3008 7.02572 13.1201 7.81185 12.7588 8.32617C 12.3975 8.84049 11.8327 9.09766 11.0645 9.09766C 10.306 9.09766 9.74447 8.84701 9.37988 8.3457C 9.0153 7.84115 8.8265 7.08919 8.81348 6.08984L 8.81348 4.88379C 8.81348 3.83887 8.99414 3.0625 9.35547 2.55469C 9.7168 2.04688 10.2832 1.79297 11.0547 1.79297C 11.8197 1.79297 12.3828 2.03874 12.7441 2.53027C 13.1055 3.01855 13.291 3.77376 13.3008 4.7959L 13.3008 5.96777ZM 12.3975 4.73242C 12.3975 3.96745 12.29 3.41081 12.0752 3.0625C 11.8604 2.71094 11.5202 2.53516 11.0547 2.53516C 10.5924 2.53516 10.2555 2.70931 10.0439 3.05762C 9.83236 3.40592 9.72331 3.94141 9.7168 4.66406L 9.7168 6.10938C 9.7168 6.8776 9.82747 7.44564 10.0488 7.81348C 10.2734 8.17806 10.612 8.36035 11.0645 8.36035C 11.5104 8.36035 11.8408 8.18783 12.0557 7.84277C 12.2738 7.49772 12.3877 6.9541 12.3975 6.21191L 12.3975 4.73242ZM 15.9033 1.89062L 18.2275 7.69141L 20.5518 1.89062L 21.7676 1.89062L 21.7676 9L 20.8301 9L 20.8301 6.23145L 20.918 3.24316L 18.584 9L 17.8662 9L 15.5371 3.25781L 15.6299 6.23145L 15.6299 9L 14.6924 9L 14.6924 1.89062L 15.9033 1.89062Z" transform="translate(18.8496 115.215)" fill="#1F3F49"/>
</g>
<g id="2.5M">
<path d="M 5.24902 9L 0.59082 9L 0.59082 8.35059L 3.05176 5.61621C 3.41634 5.2028 3.66699 4.86751 3.80371 4.61035C 3.94368 4.34993 4.01367 4.08138 4.01367 3.80469C 4.01367 3.43359 3.90137 3.12923 3.67676 2.8916C 3.45215 2.65397 3.15267 2.53516 2.77832 2.53516C 2.3291 2.53516 1.97917 2.66374 1.72852 2.9209C 1.48112 3.1748 1.35742 3.52962 1.35742 3.98535L 0.454102 3.98535C 0.454102 3.33105 0.664062 2.80208 1.08398 2.39844C 1.50716 1.99479 2.07194 1.79297 2.77832 1.79297C 3.43913 1.79297 3.96159 1.96712 4.3457 2.31543C 4.72982 2.66048 4.92188 3.12109 4.92188 3.69727C 4.92188 4.39714 4.47591 5.23047 3.58398 6.19727L 1.67969 8.2627L 5.24902 8.2627L 5.24902 9ZM 6.31836 8.52637C 6.31836 8.37012 6.36393 8.23991 6.45508 8.13574C 6.54948 8.03158 6.68945 7.97949 6.875 7.97949C 7.06055 7.97949 7.20052 8.03158 7.29492 8.13574C 7.39258 8.23991 7.44141 8.37012 7.44141 8.52637C 7.44141 8.67611 7.39258 8.80143 7.29492 8.90234C 7.20052 9.00326 7.06055 9.05371 6.875 9.05371C 6.68945 9.05371 6.54948 9.00326 6.45508 8.90234C 6.36393 8.80143 6.31836 8.67611 6.31836 8.52637ZM 9.25781 5.43555L 9.61914 1.89062L 13.2617 1.89062L 13.2617 2.72559L 10.3857 2.72559L 10.1709 4.66406C 10.5192 4.45898 10.9147 4.35645 11.3574 4.35645C 12.0052 4.35645 12.5195 4.57129 12.9004 5.00098C 13.2812 5.42741 13.4717 6.00521 13.4717 6.73438C 13.4717 7.4668 13.2731 8.0446 12.876 8.46777C 12.4821 8.8877 11.9303 9.09766 11.2207 9.09766C 10.5924 9.09766 10.0798 8.9235 9.68262 8.5752C 9.28548 8.22689 9.05924 7.74512 9.00391 7.12988L 9.8584 7.12988C 9.91374 7.53678 10.0586 7.8444 10.293 8.05273C 10.5273 8.25781 10.8366 8.36035 11.2207 8.36035C 11.6406 8.36035 11.9694 8.21712 12.207 7.93066C 12.4479 7.64421 12.5684 7.2487 12.5684 6.74414C 12.5684 6.26888 12.4382 5.88802 12.1777 5.60156C 11.9206 5.31185 11.5771 5.16699 11.1475 5.16699C 10.7536 5.16699 10.4443 5.25326 10.2197 5.42578L 9.98047 5.62109L 9.25781 5.43555ZM 15.9033 1.89062L 18.2275 7.69141L 20.5518 1.89062L 21.7676 1.89062L 21.7676 9L 20.8301 9L 20.8301 6.23145L 20.918 3.24316L 18.584 9L 17.8662 9L 15.5371 3.25781L 15.6299 6.23145L 15.6299 9L 14.6924 9L 14.6924 1.89062L 15.9033 1.89062Z" transform="translate(18.8496 87)" fill="#1F3F49"/>
</g>
</g>
<g id="Group_6">
<g id="Group_7">
<g id="Social Media">
<path d="M 2.91992 5.83105C 2.11589 5.59993 1.52995 5.31673 1.16211 4.98145C 0.797526 4.6429 0.615234 4.22624 0.615234 3.73145C 0.615234 3.17155 0.838216 2.70931 1.28418 2.34473C 1.7334 1.97689 2.31608 1.79297 3.03223 1.79297C 3.52051 1.79297 3.95508 1.88737 4.33594 2.07617C 4.72005 2.26497 5.01628 2.52539 5.22461 2.85742C 5.4362 3.18945 5.54199 3.55241 5.54199 3.94629L 4.59961 3.94629C 4.59961 3.5166 4.46289 3.17969 4.18945 2.93555C 3.91602 2.68815 3.53027 2.56445 3.03223 2.56445C 2.56999 2.56445 2.20866 2.66699 1.94824 2.87207C 1.69108 3.07389 1.5625 3.35547 1.5625 3.7168C 1.5625 4.00651 1.68457 4.25228 1.92871 4.4541C 2.17611 4.65267 2.5944 4.83496 3.18359 5.00098C 3.77604 5.16699 4.23828 5.35091 4.57031 5.55273C 4.9056 5.7513 5.15299 5.98405 5.3125 6.25098C 5.47526 6.5179 5.55664 6.83203 5.55664 7.19336C 5.55664 7.76953 5.33203 8.23177 4.88281 8.58008C 4.43359 8.92513 3.83301 9.09766 3.08105 9.09766C 2.59277 9.09766 2.13704 9.00488 1.71387 8.81934C 1.29069 8.63053 0.963542 8.37337 0.732422 8.04785C 0.504557 7.72233 0.390625 7.35286 0.390625 6.93945L 1.33301 6.93945C 1.33301 7.36914 1.49089 7.70931 1.80664 7.95996C 2.12565 8.20736 2.55046 8.33105 3.08105 8.33105C 3.57585 8.33105 3.95508 8.23014 4.21875 8.02832C 4.48242 7.8265 4.61426 7.55143 4.61426 7.20312C 4.61426 6.85482 4.49219 6.58626 4.24805 6.39746C 4.00391 6.2054 3.5612 6.0166 2.91992 5.83105ZM 6.38184 6.30957C 6.38184 5.79199 6.48275 5.3265 6.68457 4.91309C 6.88965 4.49967 7.17285 4.18066 7.53418 3.95605C 7.89876 3.73145 8.3138 3.61914 8.7793 3.61914C 9.4987 3.61914 10.0798 3.86816 10.5225 4.36621C 10.9684 4.86426 11.1914 5.52669 11.1914 6.35352L 11.1914 6.41699C 11.1914 6.93132 11.0921 7.39355 10.8936 7.80371C 10.6982 8.21061 10.4167 8.52799 10.0488 8.75586C 9.68424 8.98372 9.26432 9.09766 8.78906 9.09766C 8.07292 9.09766 7.49186 8.84863 7.0459 8.35059C 6.60319 7.85254 6.38184 7.19336 6.38184 6.37305L 6.38184 6.30957ZM 7.29004 6.41699C 7.29004 7.00293 7.42513 7.47331 7.69531 7.82812C 7.96875 8.18294 8.33333 8.36035 8.78906 8.36035C 9.24805 8.36035 9.61263 8.18132 9.88281 7.82324C 10.153 7.46191 10.2881 6.95736 10.2881 6.30957C 10.2881 5.73014 10.1497 5.26139 9.87305 4.90332C 9.59961 4.54199 9.23503 4.36133 8.7793 4.36133C 8.33333 4.36133 7.97363 4.53874 7.7002 4.89355C 7.42676 5.24837 7.29004 5.75618 7.29004 6.41699ZM 14.4434 8.36035C 14.7656 8.36035 15.0472 8.2627 15.2881 8.06738C 15.529 7.87207 15.6624 7.62793 15.6885 7.33496L 16.543 7.33496C 16.5267 7.6377 16.4225 7.92578 16.2305 8.19922C 16.0384 8.47266 15.7812 8.69076 15.459 8.85352C 15.14 9.01628 14.8014 9.09766 14.4434 9.09766C 13.724 9.09766 13.151 8.8584 12.7246 8.37988C 12.3014 7.89811 12.0898 7.24056 12.0898 6.40723L 12.0898 6.25586C 12.0898 5.74154 12.1842 5.28418 12.373 4.88379C 12.5618 4.4834 12.832 4.17253 13.1836 3.95117C 13.5384 3.72982 13.9567 3.61914 14.4385 3.61914C 15.0309 3.61914 15.5225 3.79655 15.9131 4.15137C 16.307 4.50618 16.5169 4.9668 16.543 5.5332L 15.6885 5.5332C 15.6624 5.19141 15.5322 4.91146 15.2979 4.69336C 15.0667 4.47201 14.7803 4.36133 14.4385 4.36133C 13.9795 4.36133 13.623 4.52734 13.3691 4.85938C 13.1185 5.18815 12.9932 5.66504 12.9932 6.29004L 12.9932 6.46094C 12.9932 7.06966 13.1185 7.53841 13.3691 7.86719C 13.6198 8.19596 13.9779 8.36035 14.4434 8.36035ZM 18.54 9L 17.6367 9L 17.6367 3.7168L 18.54 3.7168L 18.54 9ZM 17.5635 2.31543C 17.5635 2.16895 17.6074 2.04525 17.6953 1.94434C 17.7865 1.84342 17.9199 1.79297 18.0957 1.79297C 18.2715 1.79297 18.4049 1.84342 18.4961 1.94434C 18.5872 2.04525 18.6328 2.16895 18.6328 2.31543C 18.6328 2.46191 18.5872 2.58398 18.4961 2.68164C 18.4049 2.7793 18.2715 2.82812 18.0957 2.82812C 17.9199 2.82812 17.7865 2.7793 17.6953 2.68164C 17.6074 2.58398 17.5635 2.46191 17.5635 2.31543ZM 23.252 9C 23.1999 8.89583 23.1576 8.71029 23.125 8.44336C 22.7051 8.87956 22.2038 9.09766 21.6211 9.09766C 21.1003 9.09766 20.6722 8.95117 20.3369 8.6582C 20.0049 8.36198 19.8389 7.98763 19.8389 7.53516C 19.8389 6.98503 20.0472 6.55859 20.4639 6.25586C 20.8838 5.94987 21.473 5.79688 22.2314 5.79688L 23.1104 5.79688L 23.1104 5.38184C 23.1104 5.06608 23.016 4.81543 22.8271 4.62988C 22.6383 4.44108 22.36 4.34668 21.9922 4.34668C 21.6699 4.34668 21.3997 4.42806 21.1816 4.59082C 20.9635 4.75358 20.8545 4.95052 20.8545 5.18164L 19.9463 5.18164C 19.9463 4.91797 20.0391 4.66406 20.2246 4.41992C 20.4134 4.17253 20.6673 3.97721 20.9863 3.83398C 21.3086 3.69076 21.6618 3.61914 22.0459 3.61914C 22.6546 3.61914 23.1315 3.77214 23.4766 4.07812C 23.8216 4.38086 24.0007 4.79915 24.0137 5.33301L 24.0137 7.76465C 24.0137 8.24967 24.0755 8.63542 24.1992 8.92188L 24.1992 9L 23.252 9ZM 21.7529 8.31152C 22.0361 8.31152 22.3047 8.23828 22.5586 8.0918C 22.8125 7.94531 22.9964 7.75488 23.1104 7.52051L 23.1104 6.43652L 22.4023 6.43652C 21.2956 6.43652 20.7422 6.76042 20.7422 7.4082C 20.7422 7.69141 20.8366 7.91276 21.0254 8.07227C 21.2142 8.23177 21.4567 8.31152 21.7529 8.31152ZM 26.4111 9L 25.5078 9L 25.5078 1.5L 26.4111 1.5L 26.4111 9ZM 31.6943 1.89062L 34.0186 7.69141L 36.3428 1.89062L 37.5586 1.89062L 37.5586 9L 36.6211 9L 36.6211 6.23145L 36.709 3.24316L 34.375 9L 33.6572 9L 31.3281 3.25781L 31.4209 6.23145L 31.4209 9L 30.4834 9L 30.4834 1.89062L 31.6943 1.89062ZM 41.2646 9.09766C 40.5485 9.09766 39.9658 8.86328 39.5166 8.39453C 39.0674 7.92253 38.8428 7.29264 38.8428 6.50488L 38.8428 6.33887C 38.8428 5.81478 38.9421 5.34766 39.1406 4.9375C 39.3424 4.52409 39.6224 4.20182 39.9805 3.9707C 40.3418 3.73633 40.7324 3.61914 41.1523 3.61914C 41.8392 3.61914 42.373 3.84538 42.7539 4.29785C 43.1348 4.75033 43.3252 5.39811 43.3252 6.24121L 43.3252 6.61719L 39.7461 6.61719C 39.7591 7.13802 39.9105 7.55957 40.2002 7.88184C 40.4932 8.20085 40.8643 8.36035 41.3135 8.36035C 41.6325 8.36035 41.9027 8.29525 42.124 8.16504C 42.3454 8.03483 42.5391 7.8623 42.7051 7.64746L 43.2568 8.07715C 42.8141 8.75749 42.1501 9.09766 41.2646 9.09766ZM 41.1523 4.36133C 40.7878 4.36133 40.4818 4.49479 40.2344 4.76172C 39.987 5.02539 39.834 5.39648 39.7754 5.875L 42.4219 5.875L 42.4219 5.80664C 42.3958 5.34766 42.2721 4.99284 42.0508 4.74219C 41.8294 4.48828 41.5299 4.36133 41.1523 4.36133ZM 44.1553 6.31445C 44.1553 5.50391 44.3473 4.85286 44.7314 4.36133C 45.1156 3.86654 45.6185 3.61914 46.2402 3.61914C 46.8587 3.61914 47.3486 3.83073 47.71 4.25391L 47.71 1.5L 48.6133 1.5L 48.6133 9L 47.7832 9L 47.7393 8.43359C 47.3779 8.8763 46.875 9.09766 46.2305 9.09766C 45.6185 9.09766 45.1188 8.84701 44.7314 8.3457C 44.3473 7.8444 44.1553 7.1901 44.1553 6.38281L 44.1553 6.31445ZM 45.0586 6.41699C 45.0586 7.01595 45.1823 7.4847 45.4297 7.82324C 45.6771 8.16178 46.0189 8.33105 46.4551 8.33105C 47.028 8.33105 47.4463 8.07389 47.71 7.55957L 47.71 5.13281C 47.4398 4.63477 47.0247 4.38574 46.4648 4.38574C 46.0221 4.38574 45.6771 4.55664 45.4297 4.89844C 45.1823 5.24023 45.0586 5.74642 45.0586 6.41699ZM 51.001 9L 50.0977 9L 50.0977 3.7168L 51.001 3.7168L 51.001 9ZM 50.0244 2.31543C 50.0244 2.16895 50.0684 2.04525 50.1562 1.94434C 50.2474 1.84342 50.3809 1.79297 50.5566 1.79297C 50.7324 1.79297 50.8659 1.84342 50.957 1.94434C 51.0482 2.04525 51.0938 2.16895 51.0938 2.31543C 51.0938 2.46191 51.0482 2.58398 50.957 2.68164C 50.8659 2.7793 50.7324 2.82812 50.5566 2.82812C 50.3809 2.82812 50.2474 2.7793 50.1562 2.68164C 50.0684 2.58398 50.0244 2.46191 50.0244 2.31543ZM 55.7129 9C 55.6608 8.89583 55.6185 8.71029 55.5859 8.44336C 55.166 8.87956 54.6647 9.09766 54.082 9.09766C 53.5612 9.09766 53.1331 8.95117 52.7979 8.6582C 52.4658 8.36198 52.2998 7.98763 52.2998 7.53516C 52.2998 6.98503 52.5081 6.55859 52.9248 6.25586C 53.3447 5.94987 53.9339 5.79688 54.6924 5.79688L 55.5713 5.79688L 55.5713 5.38184C 55.5713 5.06608 55.4769 4.81543 55.2881 4.62988C 55.0993 4.44108 54.821 4.34668 54.4531 4.34668C 54.1309 4.34668 53.8607 4.42806 53.6426 4.59082C 53.4245 4.75358 53.3154 4.95052 53.3154 5.18164L 52.4072 5.18164C 52.4072 4.91797 52.5 4.66406 52.6855 4.41992C 52.8743 4.17253 53.1283 3.97721 53.4473 3.83398C 53.7695 3.69076 54.1227 3.61914 54.5068 3.61914C 55.1156 3.61914 55.5924 3.77214 55.9375 4.07812C 56.2826 4.38086 56.4616 4.79915 56.4746 5.33301L 56.4746 7.76465C 56.4746 8.24967 56.5365 8.63542 56.6602 8.92188L 56.6602 9L 55.7129 9ZM 54.2139 8.31152C 54.4971 8.31152 54.7656 8.23828 55.0195 8.0918C 55.2734 7.94531 55.4574 7.75488 55.5713 7.52051L 55.5713 6.43652L 54.8633 6.43652C 53.7565 6.43652 53.2031 6.76042 53.2031 7.4082C 53.2031 7.69141 53.2975 7.91276 53.4863 8.07227C 53.6751 8.23177 53.9176 8.31152 54.2139 8.31152Z" transform="translate(67.2949 242.623)" fill="#1F3F49"/>
</g>
<g id="Referral">
<path d="M 3.43262 6.12402L 1.7627 6.12402L 1.7627 9L 0.820312 9L 0.820312 1.89062L 3.17383 1.89062C 3.97461 1.89062 4.58984 2.07292 5.01953 2.4375C 5.45247 2.80208 5.66895 3.33268 5.66895 4.0293C 5.66895 4.47201 5.5485 4.85775 5.30762 5.18652C 5.06999 5.5153 4.73796 5.76107 4.31152 5.92383L 5.98145 8.94141L 5.98145 9L 4.97559 9L 3.43262 6.12402ZM 1.7627 5.35742L 3.20312 5.35742C 3.66862 5.35742 4.03809 5.23698 4.31152 4.99609C 4.58822 4.75521 4.72656 4.43294 4.72656 4.0293C 4.72656 3.58984 4.59473 3.25293 4.33105 3.01855C 4.07064 2.78418 3.69303 2.66536 3.19824 2.66211L 1.7627 2.66211L 1.7627 5.35742ZM 9.03809 9.09766C 8.32194 9.09766 7.73926 8.86328 7.29004 8.39453C 6.84082 7.92253 6.61621 7.29264 6.61621 6.50488L 6.61621 6.33887C 6.61621 5.81478 6.71549 5.34766 6.91406 4.9375C 7.11589 4.52409 7.39583 4.20182 7.75391 3.9707C 8.11523 3.73633 8.50586 3.61914 8.92578 3.61914C 9.61263 3.61914 10.1465 3.84538 10.5273 4.29785C 10.9082 4.75033 11.0986 5.39811 11.0986 6.24121L 11.0986 6.61719L 7.51953 6.61719C 7.53255 7.13802 7.68392 7.55957 7.97363 7.88184C 8.2666 8.20085 8.6377 8.36035 9.08691 8.36035C 9.40592 8.36035 9.67611 8.29525 9.89746 8.16504C 10.1188 8.03483 10.3125 7.8623 10.4785 7.64746L 11.0303 8.07715C 10.5876 8.75749 9.9235 9.09766 9.03809 9.09766ZM 8.92578 4.36133C 8.5612 4.36133 8.25521 4.49479 8.00781 4.76172C 7.76042 5.02539 7.60742 5.39648 7.54883 5.875L 10.1953 5.875L 10.1953 5.80664C 10.1693 5.34766 10.0456 4.99284 9.82422 4.74219C 9.60286 4.48828 9.30339 4.36133 8.92578 4.36133ZM 12.5928 9L 12.5928 4.41504L 11.7578 4.41504L 11.7578 3.7168L 12.5928 3.7168L 12.5928 3.1748C 12.5928 2.6084 12.7441 2.17057 13.0469 1.86133C 13.3496 1.55208 13.7777 1.39746 14.3311 1.39746C 14.5394 1.39746 14.7461 1.42513 14.9512 1.48047L 14.9023 2.21289C 14.7493 2.18359 14.5866 2.16895 14.4141 2.16895C 14.1211 2.16895 13.8949 2.25521 13.7354 2.42773C 13.5758 2.59701 13.4961 2.84115 13.4961 3.16016L 13.4961 3.7168L 14.624 3.7168L 14.624 4.41504L 13.4961 4.41504L 13.4961 9L 12.5928 9ZM 17.7002 9.09766C 16.984 9.09766 16.4014 8.86328 15.9521 8.39453C 15.5029 7.92253 15.2783 7.29264 15.2783 6.50488L 15.2783 6.33887C 15.2783 5.81478 15.3776 5.34766 15.5762 4.9375C 15.778 4.52409 16.0579 4.20182 16.416 3.9707C 16.7773 3.73633 17.168 3.61914 17.5879 3.61914C 18.2747 3.61914 18.8086 3.84538 19.1895 4.29785C 19.5703 4.75033 19.7607 5.39811 19.7607 6.24121L 19.7607 6.61719L 16.1816 6.61719C 16.1947 7.13802 16.346 7.55957 16.6357 7.88184C 16.9287 8.20085 17.2998 8.36035 17.749 8.36035C 18.068 8.36035 18.3382 8.29525 18.5596 8.16504C 18.7809 8.03483 18.9746 7.8623 19.1406 7.64746L 19.6924 8.07715C 19.2497 8.75749 18.5856 9.09766 17.7002 9.09766ZM 17.5879 4.36133C 17.2233 4.36133 16.9173 4.49479 16.6699 4.76172C 16.4225 5.02539 16.2695 5.39648 16.2109 5.875L 18.8574 5.875L 18.8574 5.80664C 18.8314 5.34766 18.7077 4.99284 18.4863 4.74219C 18.265 4.48828 17.9655 4.36133 17.5879 4.36133ZM 23.3643 4.52734C 23.2275 4.50456 23.0794 4.49316 22.9199 4.49316C 22.3275 4.49316 21.9255 4.74544 21.7139 5.25L 21.7139 9L 20.8105 9L 20.8105 3.7168L 21.6895 3.7168L 21.7041 4.32715C 22.0003 3.85514 22.4202 3.61914 22.9639 3.61914C 23.1396 3.61914 23.2731 3.64193 23.3643 3.6875L 23.3643 4.52734ZM 26.7529 4.52734C 26.6162 4.50456 26.4681 4.49316 26.3086 4.49316C 25.7161 4.49316 25.3141 4.74544 25.1025 5.25L 25.1025 9L 24.1992 9L 24.1992 3.7168L 25.0781 3.7168L 25.0928 4.32715C 25.389 3.85514 25.8089 3.61914 26.3525 3.61914C 26.5283 3.61914 26.6618 3.64193 26.7529 3.6875L 26.7529 4.52734ZM 30.6543 9C 30.6022 8.89583 30.5599 8.71029 30.5273 8.44336C 30.1074 8.87956 29.6061 9.09766 29.0234 9.09766C 28.5026 9.09766 28.0745 8.95117 27.7393 8.6582C 27.4072 8.36198 27.2412 7.98763 27.2412 7.53516C 27.2412 6.98503 27.4495 6.55859 27.8662 6.25586C 28.2861 5.94987 28.8753 5.79688 29.6338 5.79688L 30.5127 5.79688L 30.5127 5.38184C 30.5127 5.06608 30.4183 4.81543 30.2295 4.62988C 30.0407 4.44108 29.7624 4.34668 29.3945 4.34668C 29.0723 4.34668 28.8021 4.42806 28.584 4.59082C 28.3659 4.75358 28.2568 4.95052 28.2568 5.18164L 27.3486 5.18164C 27.3486 4.91797 27.4414 4.66406 27.627 4.41992C 27.8158 4.17253 28.0697 3.97721 28.3887 3.83398C 28.7109 3.69076 29.0641 3.61914 29.4482 3.61914C 30.057 3.61914 30.5339 3.77214 30.8789 4.07812C 31.224 4.38086 31.403 4.79915 31.416 5.33301L 31.416 7.76465C 31.416 8.24967 31.4779 8.63542 31.6016 8.92188L 31.6016 9L 30.6543 9ZM 29.1553 8.31152C 29.4385 8.31152 29.707 8.23828 29.9609 8.0918C 30.2148 7.94531 30.3988 7.75488 30.5127 7.52051L 30.5127 6.43652L 29.8047 6.43652C 28.6979 6.43652 28.1445 6.76042 28.1445 7.4082C 28.1445 7.69141 28.2389 7.91276 28.4277 8.07227C 28.6165 8.23177 28.859 8.31152 29.1553 8.31152ZM 33.8135 9L 32.9102 9L 32.9102 1.5L 33.8135 1.5L 33.8135 9Z" transform="translate(121.807 242.623)" fill="#1F3F49"/>
</g>
<g id="Direct">
<path d="M 0.825195 9L 0.825195 1.89062L 2.83203 1.89062C 3.45052 1.89062 3.9974 2.02734 4.47266 2.30078C 4.94792 2.57422 5.31413 2.96322 5.57129 3.46777C 5.83171 3.97233 5.96354 4.55176 5.9668 5.20605L 5.9668 5.66016C 5.9668 6.33073 5.83659 6.91829 5.57617 7.42285C 5.31901 7.92741 4.94954 8.31478 4.46777 8.58496C 3.98926 8.85514 3.43099 8.99349 2.79297 9L 0.825195 9ZM 1.7627 2.66211L 1.7627 8.2334L 2.74902 8.2334C 3.47168 8.2334 4.0332 8.00879 4.43359 7.55957C 4.83724 7.11035 5.03906 6.4707 5.03906 5.64062L 5.03906 5.22559C 5.03906 4.41829 4.84863 3.79167 4.46777 3.3457C 4.09017 2.89648 3.55306 2.66862 2.85645 2.66211L 1.7627 2.66211ZM 8.22754 9L 7.32422 9L 7.32422 3.7168L 8.22754 3.7168L 8.22754 9ZM 7.25098 2.31543C 7.25098 2.16895 7.29492 2.04525 7.38281 1.94434C 7.47396 1.84342 7.60742 1.79297 7.7832 1.79297C 7.95898 1.79297 8.09245 1.84342 8.18359 1.94434C 8.27474 2.04525 8.32031 2.16895 8.32031 2.31543C 8.32031 2.46191 8.27474 2.58398 8.18359 2.68164C 8.09245 2.7793 7.95898 2.82812 7.7832 2.82812C 7.60742 2.82812 7.47396 2.7793 7.38281 2.68164C 7.29492 2.58398 7.25098 2.46191 7.25098 2.31543ZM 12.2314 4.52734C 12.0947 4.50456 11.9466 4.49316 11.7871 4.49316C 11.1947 4.49316 10.7926 4.74544 10.5811 5.25L 10.5811 9L 9.67773 9L 9.67773 3.7168L 10.5566 3.7168L 10.5713 4.32715C 10.8675 3.85514 11.2874 3.61914 11.8311 3.61914C 12.0068 3.61914 12.1403 3.64193 12.2314 3.6875L 12.2314 4.52734ZM 15.1611 9.09766C 14.445 9.09766 13.8623 8.86328 13.4131 8.39453C 12.9639 7.92253 12.7393 7.29264 12.7393 6.50488L 12.7393 6.33887C 12.7393 5.81478 12.8385 5.34766 13.0371 4.9375C 13.2389 4.52409 13.5189 4.20182 13.877 3.9707C 14.2383 3.73633 14.6289 3.61914 15.0488 3.61914C 15.7357 3.61914 16.2695 3.84538 16.6504 4.29785C 17.0312 4.75033 17.2217 5.39811 17.2217 6.24121L 17.2217 6.61719L 13.6426 6.61719C 13.6556 7.13802 13.807 7.55957 14.0967 7.88184C 14.3896 8.20085 14.7607 8.36035 15.21 8.36035C 15.529 8.36035 15.7992 8.29525 16.0205 8.16504C 16.2419 8.03483 16.4355 7.8623 16.6016 7.64746L 17.1533 8.07715C 16.7106 8.75749 16.0465 9.09766 15.1611 9.09766ZM 15.0488 4.36133C 14.6842 4.36133 14.3783 4.49479 14.1309 4.76172C 13.8835 5.02539 13.7305 5.39648 13.6719 5.875L 16.3184 5.875L 16.3184 5.80664C 16.2923 5.34766 16.1686 4.99284 15.9473 4.74219C 15.7259 4.48828 15.4264 4.36133 15.0488 4.36133ZM 20.3906 8.36035C 20.7129 8.36035 20.9945 8.2627 21.2354 8.06738C 21.4762 7.87207 21.6097 7.62793 21.6357 7.33496L 22.4902 7.33496C 22.474 7.6377 22.3698 7.92578 22.1777 8.19922C 21.9857 8.47266 21.7285 8.69076 21.4062 8.85352C 21.0872 9.01628 20.7487 9.09766 20.3906 9.09766C 19.6712 9.09766 19.0983 8.8584 18.6719 8.37988C 18.2487 7.89811 18.0371 7.24056 18.0371 6.40723L 18.0371 6.25586C 18.0371 5.74154 18.1315 5.28418 18.3203 4.88379C 18.5091 4.4834 18.7793 4.17253 19.1309 3.95117C 19.4857 3.72982 19.904 3.61914 20.3857 3.61914C 20.9782 3.61914 21.4697 3.79655 21.8604 4.15137C 22.2542 4.50618 22.4642 4.9668 22.4902 5.5332L 21.6357 5.5332C 21.6097 5.19141 21.4795 4.91146 21.2451 4.69336C 21.014 4.47201 20.7275 4.36133 20.3857 4.36133C 19.9268 4.36133 19.5703 4.52734 19.3164 4.85938C 19.0658 5.18815 18.9404 5.66504 18.9404 6.29004L 18.9404 6.46094C 18.9404 7.06966 19.0658 7.53841 19.3164 7.86719C 19.5671 8.19596 19.9251 8.36035 20.3906 8.36035ZM 24.7314 2.4375L 24.7314 3.7168L 25.7178 3.7168L 25.7178 4.41504L 24.7314 4.41504L 24.7314 7.69141C 24.7314 7.90299 24.7754 8.0625 24.8633 8.16992C 24.9512 8.27409 25.1009 8.32617 25.3125 8.32617C 25.4167 8.32617 25.5599 8.30664 25.7422 8.26758L 25.7422 9C 25.5046 9.0651 25.2734 9.09766 25.0488 9.09766C 24.6452 9.09766 24.3408 8.97559 24.1357 8.73145C 23.9307 8.4873 23.8281 8.14062 23.8281 7.69141L 23.8281 4.41504L 22.8662 4.41504L 22.8662 3.7168L 23.8281 3.7168L 23.8281 2.4375L 24.7314 2.4375Z" transform="translate(188.299 242.623)" fill="#1F3F49"/>
</g>
<g id="Advertising">
<path d="M 4.75098 7.14453L 1.77246 7.14453L 1.10352 9L 0.136719 9L 2.85156 1.89062L 3.67188 1.89062L 6.3916 9L 5.42969 9L 4.75098 7.14453ZM 2.05566 6.37305L 4.47266 6.37305L 3.26172 3.04785L 2.05566 6.37305ZM 6.9873 6.31445C 6.9873 5.50391 7.17936 4.85286 7.56348 4.36133C 7.94759 3.86654 8.45052 3.61914 9.07227 3.61914C 9.69076 3.61914 10.1807 3.83073 10.542 4.25391L 10.542 1.5L 11.4453 1.5L 11.4453 9L 10.6152 9L 10.5713 8.43359C 10.21 8.8763 9.70703 9.09766 9.0625 9.09766C 8.45052 9.09766 7.95085 8.84701 7.56348 8.3457C 7.17936 7.8444 6.9873 7.1901 6.9873 6.38281L 6.9873 6.31445ZM 7.89062 6.41699C 7.89062 7.01595 8.01432 7.4847 8.26172 7.82324C 8.50911 8.16178 8.85091 8.33105 9.28711 8.33105C 9.86003 8.33105 10.2783 8.07389 10.542 7.55957L 10.542 5.13281C 10.2718 4.63477 9.85677 4.38574 9.29688 4.38574C 8.85417 4.38574 8.50911 4.55664 8.26172 4.89844C 8.01432 5.24023 7.89062 5.74642 7.89062 6.41699ZM 14.5947 7.77441L 15.9033 3.7168L 16.8262 3.7168L 14.9316 9L 14.2432 9L 12.3291 3.7168L 13.252 3.7168L 14.5947 7.77441ZM 19.8193 9.09766C 19.1032 9.09766 18.5205 8.86328 18.0713 8.39453C 17.6221 7.92253 17.3975 7.29264 17.3975 6.50488L 17.3975 6.33887C 17.3975 5.81478 17.4967 5.34766 17.6953 4.9375C 17.8971 4.52409 18.1771 4.20182 18.5352 3.9707C 18.8965 3.73633 19.2871 3.61914 19.707 3.61914C 20.3939 3.61914 20.9277 3.84538 21.3086 4.29785C 21.6895 4.75033 21.8799 5.39811 21.8799 6.24121L 21.8799 6.61719L 18.3008 6.61719C 18.3138 7.13802 18.4652 7.55957 18.7549 7.88184C 19.0479 8.20085 19.4189 8.36035 19.8682 8.36035C 20.1872 8.36035 20.4574 8.29525 20.6787 8.16504C 20.9001 8.03483 21.0938 7.8623 21.2598 7.64746L 21.8115 8.07715C 21.3688 8.75749 20.7048 9.09766 19.8193 9.09766ZM 19.707 4.36133C 19.3424 4.36133 19.0365 4.49479 18.7891 4.76172C 18.5417 5.02539 18.3887 5.39648 18.3301 5.875L 20.9766 5.875L 20.9766 5.80664C 20.9505 5.34766 20.8268 4.99284 20.6055 4.74219C 20.3841 4.48828 20.0846 4.36133 19.707 4.36133ZM 25.4834 4.52734C 25.3467 4.50456 25.1986 4.49316 25.0391 4.49316C 24.4466 4.49316 24.0446 4.74544 23.833 5.25L 23.833 9L 22.9297 9L 22.9297 3.7168L 23.8086 3.7168L 23.8232 4.32715C 24.1195 3.85514 24.5394 3.61914 25.083 3.61914C 25.2588 3.61914 25.3923 3.64193 25.4834 3.6875L 25.4834 4.52734ZM 27.7881 2.4375L 27.7881 3.7168L 28.7744 3.7168L 28.7744 4.41504L 27.7881 4.41504L 27.7881 7.69141C 27.7881 7.90299 27.832 8.0625 27.9199 8.16992C 28.0078 8.27409 28.1576 8.32617 28.3691 8.32617C 28.4733 8.32617 28.6165 8.30664 28.7988 8.26758L 28.7988 9C 28.5612 9.0651 28.3301 9.09766 28.1055 9.09766C 27.7018 9.09766 27.3975 8.97559 27.1924 8.73145C 26.9873 8.4873 26.8848 8.14062 26.8848 7.69141L 26.8848 4.41504L 25.9229 4.41504L 25.9229 3.7168L 26.8848 3.7168L 26.8848 2.4375L 27.7881 2.4375ZM 30.8154 9L 29.9121 9L 29.9121 3.7168L 30.8154 3.7168L 30.8154 9ZM 29.8389 2.31543C 29.8389 2.16895 29.8828 2.04525 29.9707 1.94434C 30.0618 1.84342 30.1953 1.79297 30.3711 1.79297C 30.5469 1.79297 30.6803 1.84342 30.7715 1.94434C 30.8626 2.04525 30.9082 2.16895 30.9082 2.31543C 30.9082 2.46191 30.8626 2.58398 30.7715 2.68164C 30.6803 2.7793 30.5469 2.82812 30.3711 2.82812C 30.1953 2.82812 30.0618 2.7793 29.9707 2.68164C 29.8828 2.58398 29.8389 2.46191 29.8389 2.31543ZM 35.3418 7.59863C 35.3418 7.35449 35.249 7.16569 35.0635 7.03223C 34.8812 6.89551 34.5605 6.77832 34.1016 6.68066C 33.6458 6.58301 33.2829 6.46582 33.0127 6.3291C 32.7458 6.19238 32.5472 6.02962 32.417 5.84082C 32.29 5.65202 32.2266 5.42741 32.2266 5.16699C 32.2266 4.73405 32.4089 4.36784 32.7734 4.06836C 33.1413 3.76888 33.61 3.61914 34.1797 3.61914C 34.7786 3.61914 35.2637 3.77376 35.6348 4.08301C 36.0091 4.39225 36.1963 4.78776 36.1963 5.26953L 35.2881 5.26953C 35.2881 5.02214 35.1823 4.80892 34.9707 4.62988C 34.7624 4.45085 34.4987 4.36133 34.1797 4.36133C 33.8509 4.36133 33.5938 4.43294 33.4082 4.57617C 33.2227 4.7194 33.1299 4.90658 33.1299 5.1377C 33.1299 5.35579 33.2161 5.52018 33.3887 5.63086C 33.5612 5.74154 33.8721 5.84733 34.3213 5.94824C 34.7738 6.04915 35.14 6.1696 35.4199 6.30957C 35.6999 6.44954 35.9066 6.61882 36.04 6.81738C 36.1768 7.0127 36.2451 7.25195 36.2451 7.53516C 36.2451 8.00716 36.0563 8.38639 35.6787 8.67285C 35.3011 8.95605 34.8112 9.09766 34.209 9.09766C 33.7858 9.09766 33.4115 9.02279 33.0859 8.87305C 32.7604 8.72331 32.5049 8.51497 32.3193 8.24805C 32.137 7.97786 32.0459 7.68652 32.0459 7.37402L 32.9492 7.37402C 32.9655 7.67676 33.0859 7.91764 33.3105 8.09668C 33.5384 8.27246 33.8379 8.36035 34.209 8.36035C 34.5508 8.36035 34.8242 8.29199 35.0293 8.15527C 35.2376 8.0153 35.3418 7.82975 35.3418 7.59863ZM 38.4033 9L 37.5 9L 37.5 3.7168L 38.4033 3.7168L 38.4033 9ZM 37.4268 2.31543C 37.4268 2.16895 37.4707 2.04525 37.5586 1.94434C 37.6497 1.84342 37.7832 1.79297 37.959 1.79297C 38.1348 1.79297 38.2682 1.84342 38.3594 1.94434C 38.4505 2.04525 38.4961 2.16895 38.4961 2.31543C 38.4961 2.46191 38.4505 2.58398 38.3594 2.68164C 38.2682 2.7793 38.1348 2.82812 37.959 2.82812C 37.7832 2.82812 37.6497 2.7793 37.5586 2.68164C 37.4707 2.58398 37.4268 2.46191 37.4268 2.31543ZM 40.708 3.7168L 40.7373 4.38086C 41.141 3.87305 41.6683 3.61914 42.3193 3.61914C 43.4359 3.61914 43.999 4.24902 44.0088 5.50879L 44.0088 9L 43.1055 9L 43.1055 5.50391C 43.1022 5.12305 43.0143 4.84147 42.8418 4.65918C 42.6725 4.47689 42.4072 4.38574 42.0459 4.38574C 41.7529 4.38574 41.4958 4.46387 41.2744 4.62012C 41.0531 4.77637 40.8805 4.98145 40.7568 5.23535L 40.7568 9L 39.8535 9L 39.8535 3.7168L 40.708 3.7168ZM 45.1562 6.31445C 45.1562 5.49089 45.3467 4.83659 45.7275 4.35156C 46.1084 3.86328 46.613 3.61914 47.2412 3.61914C 47.8857 3.61914 48.3887 3.84701 48.75 4.30273L 48.7939 3.7168L 49.6191 3.7168L 49.6191 8.87305C 49.6191 9.55664 49.4157 10.0954 49.0088 10.4893C 48.6051 10.8831 48.0615 11.0801 47.3779 11.0801C 46.9971 11.0801 46.6243 10.9987 46.2598 10.8359C 45.8952 10.6732 45.6169 10.4502 45.4248 10.167L 45.8936 9.625C 46.2809 10.1035 46.7546 10.3428 47.3145 10.3428C 47.7539 10.3428 48.0957 10.2191 48.3398 9.97168C 48.5872 9.72428 48.7109 9.37598 48.7109 8.92676L 48.7109 8.47266C 48.3496 8.88932 47.8564 9.09766 47.2314 9.09766C 46.613 9.09766 46.1117 8.84863 45.7275 8.35059C 45.3467 7.85254 45.1562 7.17383 45.1562 6.31445ZM 46.0645 6.41699C 46.0645 7.0127 46.1865 7.48145 46.4307 7.82324C 46.6748 8.16178 47.0166 8.33105 47.4561 8.33105C 48.0257 8.33105 48.444 8.07227 48.7109 7.55469L 48.7109 5.14258C 48.4342 4.63802 48.0192 4.38574 47.4658 4.38574C 47.0264 4.38574 46.6829 4.55664 46.4355 4.89844C 46.1882 5.24023 46.0645 5.74642 46.0645 6.41699Z" transform="translate(236.324 242.623)" fill="#1F3F49"/>
</g>
<g id="Search">
<path d="M 2.91992 5.83105C 2.11589 5.59993 1.52995 5.31673 1.16211 4.98145C 0.797526 4.6429 0.615234 4.22624 0.615234 3.73145C 0.615234 3.17155 0.838216 2.70931 1.28418 2.34473C 1.7334 1.97689 2.31608 1.79297 3.03223 1.79297C 3.52051 1.79297 3.95508 1.88737 4.33594 2.07617C 4.72005 2.26497 5.01628 2.52539 5.22461 2.85742C 5.4362 3.18945 5.54199 3.55241 5.54199 3.94629L 4.59961 3.94629C 4.59961 3.5166 4.46289 3.17969 4.18945 2.93555C 3.91602 2.68815 3.53027 2.56445 3.03223 2.56445C 2.56999 2.56445 2.20866 2.66699 1.94824 2.87207C 1.69108 3.07389 1.5625 3.35547 1.5625 3.7168C 1.5625 4.00651 1.68457 4.25228 1.92871 4.4541C 2.17611 4.65267 2.5944 4.83496 3.18359 5.00098C 3.77604 5.16699 4.23828 5.35091 4.57031 5.55273C 4.9056 5.7513 5.15299 5.98405 5.3125 6.25098C 5.47526 6.5179 5.55664 6.83203 5.55664 7.19336C 5.55664 7.76953 5.33203 8.23177 4.88281 8.58008C 4.43359 8.92513 3.83301 9.09766 3.08105 9.09766C 2.59277 9.09766 2.13704 9.00488 1.71387 8.81934C 1.29069 8.63053 0.963542 8.37337 0.732422 8.04785C 0.504557 7.72233 0.390625 7.35286 0.390625 6.93945L 1.33301 6.93945C 1.33301 7.36914 1.49089 7.70931 1.80664 7.95996C 2.12565 8.20736 2.55046 8.33105 3.08105 8.33105C 3.57585 8.33105 3.95508 8.23014 4.21875 8.02832C 4.48242 7.8265 4.61426 7.55143 4.61426 7.20312C 4.61426 6.85482 4.49219 6.58626 4.24805 6.39746C 4.00391 6.2054 3.5612 6.0166 2.91992 5.83105ZM 8.81348 9.09766C 8.09733 9.09766 7.51465 8.86328 7.06543 8.39453C 6.61621 7.92253 6.3916 7.29264 6.3916 6.50488L 6.3916 6.33887C 6.3916 5.81478 6.49089 5.34766 6.68945 4.9375C 6.89128 4.52409 7.17122 4.20182 7.5293 3.9707C 7.89062 3.73633 8.28125 3.61914 8.70117 3.61914C 9.38802 3.61914 9.92188 3.84538 10.3027 4.29785C 10.6836 4.75033 10.874 5.39811 10.874 6.24121L 10.874 6.61719L 7.29492 6.61719C 7.30794 7.13802 7.45931 7.55957 7.74902 7.88184C 8.04199 8.20085 8.41309 8.36035 8.8623 8.36035C 9.18132 8.36035 9.4515 8.29525 9.67285 8.16504C 9.89421 8.03483 10.0879 7.8623 10.2539 7.64746L 10.8057 8.07715C 10.363 8.75749 9.69889 9.09766 8.81348 9.09766ZM 8.70117 4.36133C 8.33659 4.36133 8.0306 4.49479 7.7832 4.76172C 7.53581 5.02539 7.38281 5.39648 7.32422 5.875L 9.9707 5.875L 9.9707 5.80664C 9.94466 5.34766 9.82096 4.99284 9.59961 4.74219C 9.37826 4.48828 9.07878 4.36133 8.70117 4.36133ZM 15.1855 9C 15.1335 8.89583 15.0911 8.71029 15.0586 8.44336C 14.6387 8.87956 14.1374 9.09766 13.5547 9.09766C 13.0339 9.09766 12.6058 8.95117 12.2705 8.6582C 11.9385 8.36198 11.7725 7.98763 11.7725 7.53516C 11.7725 6.98503 11.9808 6.55859 12.3975 6.25586C 12.8174 5.94987 13.4066 5.79688 14.165 5.79688L 15.0439 5.79688L 15.0439 5.38184C 15.0439 5.06608 14.9495 4.81543 14.7607 4.62988C 14.5719 4.44108 14.2936 4.34668 13.9258 4.34668C 13.6035 4.34668 13.3333 4.42806 13.1152 4.59082C 12.8971 4.75358 12.7881 4.95052 12.7881 5.18164L 11.8799 5.18164C 11.8799 4.91797 11.9727 4.66406 12.1582 4.41992C 12.347 4.17253 12.6009 3.97721 12.9199 3.83398C 13.2422 3.69076 13.5954 3.61914 13.9795 3.61914C 14.5882 3.61914 15.0651 3.77214 15.4102 4.07812C 15.7552 4.38086 15.9342 4.79915 15.9473 5.33301L 15.9473 7.76465C 15.9473 8.24967 16.0091 8.63542 16.1328 8.92188L 16.1328 9L 15.1855 9ZM 13.6865 8.31152C 13.9697 8.31152 14.2383 8.23828 14.4922 8.0918C 14.7461 7.94531 14.93 7.75488 15.0439 7.52051L 15.0439 6.43652L 14.3359 6.43652C 13.2292 6.43652 12.6758 6.76042 12.6758 7.4082C 12.6758 7.69141 12.7702 7.91276 12.959 8.07227C 13.1478 8.23177 13.3903 8.31152 13.6865 8.31152ZM 19.917 4.52734C 19.7803 4.50456 19.6322 4.49316 19.4727 4.49316C 18.8802 4.49316 18.4782 4.74544 18.2666 5.25L 18.2666 9L 17.3633 9L 17.3633 3.7168L 18.2422 3.7168L 18.2568 4.32715C 18.5531 3.85514 18.973 3.61914 19.5166 3.61914C 19.6924 3.61914 19.8258 3.64193 19.917 3.6875L 19.917 4.52734ZM 22.7734 8.36035C 23.0957 8.36035 23.3773 8.2627 23.6182 8.06738C 23.859 7.87207 23.9925 7.62793 24.0186 7.33496L 24.873 7.33496C 24.8568 7.6377 24.7526 7.92578 24.5605 8.19922C 24.3685 8.47266 24.1113 8.69076 23.7891 8.85352C 23.4701 9.01628 23.1315 9.09766 22.7734 9.09766C 22.054 9.09766 21.4811 8.8584 21.0547 8.37988C 20.6315 7.89811 20.4199 7.24056 20.4199 6.40723L 20.4199 6.25586C 20.4199 5.74154 20.5143 5.28418 20.7031 4.88379C 20.8919 4.4834 21.1621 4.17253 21.5137 3.95117C 21.8685 3.72982 22.2868 3.61914 22.7686 3.61914C 23.361 3.61914 23.8525 3.79655 24.2432 4.15137C 24.637 4.50618 24.847 4.9668 24.873 5.5332L 24.0186 5.5332C 23.9925 5.19141 23.8623 4.91146 23.6279 4.69336C 23.3968 4.47201 23.1104 4.36133 22.7686 4.36133C 22.3096 4.36133 21.9531 4.52734 21.6992 4.85938C 21.4486 5.18815 21.3232 5.66504 21.3232 6.29004L 21.3232 6.46094C 21.3232 7.06966 21.4486 7.53841 21.6992 7.86719C 21.9499 8.19596 22.3079 8.36035 22.7734 8.36035ZM 26.792 4.35645C 27.1924 3.86491 27.7132 3.61914 28.3545 3.61914C 29.471 3.61914 30.0342 4.24902 30.0439 5.50879L 30.0439 9L 29.1406 9L 29.1406 5.50391C 29.1374 5.12305 29.0495 4.84147 28.877 4.65918C 28.7077 4.47689 28.4424 4.38574 28.0811 4.38574C 27.7881 4.38574 27.5309 4.46387 27.3096 4.62012C 27.0882 4.77637 26.9157 4.98145 26.792 5.23535L 26.792 9L 25.8887 9L 25.8887 1.5L 26.792 1.5L 26.792 4.35645Z" transform="translate(314.068 242.623)" fill="#1F3F49"/>
</g>
</g>
<g id="Group_8">
<g id="Vector_5">
<path fill-rule="evenodd" clip-rule="evenodd" d="M -3.96729e-07 -1.2207e-07L 131 -1.2207e-07L 131 14L -3.96729e-07 14L -3.96729e-07 -1.2207e-07Z" transform="matrix(0 1 -1 0 80.9297 103.701)" fill="#757DE8"/>
</g>
<g id="Vector_6" opacity="0.9">
<path fill-rule="evenodd" clip-rule="evenodd" d="M 9.15527e-08 -2.80762e-06L 70.209 -2.80762e-06L 70.209 14L 9.15527e-08 14L 9.15527e-08 -2.80762e-06Z" transform="matrix(0 1 -1 0 97.0488 164.586)" fill="#CED2CC"/>
</g>
<g id="Vector_7">
<path fill-rule="evenodd" clip-rule="evenodd" d="M -1.86157e-06 2.99072e-06L 62.311 2.99072e-06L 62.311 14L -1.86157e-06 14L -1.86157e-06 2.99072e-06Z" transform="matrix(0 1 -1 0 140.047 172.33)" fill="#757DE8"/>
</g>
<g id="Vector_8" opacity="0.9">
<path fill-rule="evenodd" clip-rule="evenodd" d="M -6.10352e-08 2.44141e-07L 35.982 2.44141e-07L 35.982 14L -6.10352e-08 14L -6.10352e-08 2.44141e-07Z" transform="matrix(0 1 -1 0 155.844 199)" fill="#CED2CC"/>
</g>
<g id="Vector_9">
<path fill-rule="evenodd" clip-rule="evenodd" d="M -4.27246e-07 1.09863e-06L 53.535 1.09863e-06L 53.535 14L -4.27246e-07 14L -4.27246e-07 1.09863e-06Z" transform="matrix(0 1 -1 0 199.83 181.278)" fill="#757DE8"/>
</g>
<g id="Vector_10" opacity="0.9">
<path fill-rule="evenodd" clip-rule="evenodd" d="M 2.80762e-06 2.13623e-06L 79.863 2.13623e-06L 79.863 14L 2.80762e-06 14L 2.80762e-06 2.13623e-06Z" transform="matrix(0 1 -1 0 215.627 155.001)" fill="#CED2CC"/>
</g>
<g id="Vector_11">
<path fill-rule="evenodd" clip-rule="evenodd" d="M 2.68555e-06 -3.11279e-06L 91 -3.11279e-06L 91 14L 2.68555e-06 14L 2.68555e-06 -3.11279e-06Z" transform="matrix(0 1 -1 0 259.475 144.137)" fill="#757DE8"/>
</g>
<g id="Vector_12" opacity="0.9">
<path fill-rule="evenodd" clip-rule="evenodd" d="M 6.71387e-06 3.54004e-06L 73 3.54004e-06L 73 14L 6.71387e-06 14L 6.71387e-06 3.54004e-06Z" transform="matrix(0 1 -1 0 275.049 162.36)" fill="#CED2CC"/>
</g>
<g id="Vector_13">
<path fill-rule="evenodd" clip-rule="evenodd" d="M 4.5166e-06 -2.62451e-06L 149.195 -2.62451e-06L 149.195 14L 4.5166e-06 14L 4.5166e-06 -2.62451e-06Z" transform="matrix(0 1 -1 0 328.277 85.426)" fill="#757DE8"/>
</g>
<g id="Vector_14" opacity="0.9">
<path fill-rule="evenodd" clip-rule="evenodd" d="M 1.70898e-06 -1.2207e-07L 35.5 -1.2207e-07L 35.5 14L 1.70898e-06 14L 1.70898e-06 -1.2207e-07Z" transform="matrix(0 1 -1 0 344.197 199.2)" fill="#CED2CC"/>
</g>
</g>
</g>
</g>
</g>
<g id="Group_9">
<g id="Group_10">
<g id="Group_11">
<g id="Prior">
<path d="M 1.93896 6.93848L 1.93896 10L 0.907715 10L 0.907715 2.17969L 3.79199 2.17969C 4.64779 2.17969 5.31738 2.39811 5.80078 2.83496C 6.28776 3.27181 6.53125 3.8501 6.53125 4.56982C 6.53125 5.32894 6.29313 5.91439 5.81689 6.32617C 5.34424 6.73438 4.66569 6.93848 3.78125 6.93848L 1.93896 6.93848ZM 1.93896 6.09521L 3.79199 6.09521C 4.34342 6.09521 4.76595 5.96631 5.05957 5.7085C 5.35319 5.4471 5.5 5.07113 5.5 4.58057C 5.5 4.11507 5.35319 3.74268 5.05957 3.46338C 4.76595 3.18408 4.36312 3.03906 3.85107 3.02832L 1.93896 3.02832L 1.93896 6.09521ZM 10.5005 5.08008C 10.3501 5.05501 10.1872 5.04248 10.0117 5.04248C 9.36003 5.04248 8.91781 5.31999 8.68506 5.875L 8.68506 10L 7.69141 10L 7.69141 4.18848L 8.6582 4.18848L 8.67432 4.85986C 9.00016 4.34066 9.46208 4.08105 10.0601 4.08105C 10.2534 4.08105 10.4002 4.10612 10.5005 4.15625L 10.5005 5.08008ZM 12.4985 10L 11.5049 10L 11.5049 4.18848L 12.4985 4.18848L 12.4985 10ZM 11.4243 2.64697C 11.4243 2.48584 11.4727 2.34977 11.5693 2.23877C 11.6696 2.12777 11.8164 2.07227 12.0098 2.07227C 12.2031 2.07227 12.3499 2.12777 12.4502 2.23877C 12.5505 2.34977 12.6006 2.48584 12.6006 2.64697C 12.6006 2.80811 12.5505 2.94238 12.4502 3.0498C 12.3499 3.15723 12.2031 3.21094 12.0098 3.21094C 11.8164 3.21094 11.6696 3.15723 11.5693 3.0498C 11.4727 2.94238 11.4243 2.80811 11.4243 2.64697ZM 13.8306 7.04053C 13.8306 6.47119 13.9416 5.95915 14.1636 5.50439C 14.3892 5.04964 14.7007 4.69873 15.0981 4.45166C 15.4992 4.20459 15.9557 4.08105 16.4678 4.08105C 17.2591 4.08105 17.8983 4.35498 18.3853 4.90283C 18.8758 5.45068 19.1211 6.17936 19.1211 7.08887L 19.1211 7.15869C 19.1211 7.72445 19.0119 8.23291 18.7935 8.68408C 18.5786 9.13167 18.2689 9.48079 17.8643 9.73145C 17.4632 9.9821 17.0013 10.1074 16.4785 10.1074C 15.6908 10.1074 15.0516 9.8335 14.561 9.28564C 14.0741 8.73779 13.8306 8.0127 13.8306 7.11035L 13.8306 7.04053ZM 14.8296 7.15869C 14.8296 7.80322 14.9782 8.32064 15.2754 8.71094C 15.5762 9.10124 15.9772 9.29639 16.4785 9.29639C 16.9834 9.29639 17.3844 9.09945 17.6816 8.70557C 17.9788 8.30811 18.1274 7.75309 18.1274 7.04053C 18.1274 6.40316 17.9753 5.88753 17.6709 5.49365C 17.3701 5.09619 16.9691 4.89746 16.4678 4.89746C 15.9772 4.89746 15.5815 5.09261 15.2808 5.48291C 14.98 5.87321 14.8296 6.4318 14.8296 7.15869ZM 23.1763 5.08008C 23.0259 5.05501 22.863 5.04248 22.6875 5.04248C 22.0358 5.04248 21.5936 5.31999 21.3608 5.875L 21.3608 10L 20.3672 10L 20.3672 4.18848L 21.334 4.18848L 21.3501 4.85986C 21.6759 4.34066 22.1379 4.08105 22.7358 4.08105C 22.9292 4.08105 23.076 4.10612 23.1763 4.15625L 23.1763 5.08008Z" transform="translate(336.82 57.8579)" fill="#1F3F49"/>
</g>
<g id="Vector_15">
<path d="M 4 8C 6.20914 8 8 6.20914 8 4C 8 1.79086 6.20914 0 4 0C 1.79086 0 0 1.79086 0 4C 0 6.20914 1.79086 8 4 8Z" transform="translate(324.018 61.3049)" fill="#CED2CC"/>
</g>
</g>
<g id="Current">
<path d="M 6.66016 7.51855C 6.56348 8.3457 6.25732 8.98486 5.7417 9.43604C 5.22965 9.88363 4.54753 10.1074 3.69531 10.1074C 2.77148 10.1074 2.03027 9.7762 1.47168 9.11377C 0.916667 8.45133 0.63916 7.5651 0.63916 6.45508L 0.63916 5.70312C 0.63916 4.97624 0.768066 4.33708 1.02588 3.78564C 1.28727 3.23421 1.65609 2.81169 2.13232 2.51807C 2.60856 2.22087 3.15999 2.07227 3.78662 2.07227C 4.61735 2.07227 5.28337 2.30501 5.78467 2.77051C 6.28597 3.23242 6.5778 3.87337 6.66016 4.69336L 5.62354 4.69336C 5.53402 4.07031 5.33887 3.61914 5.03809 3.33984C 4.74089 3.06055 4.32373 2.9209 3.78662 2.9209C 3.12777 2.9209 2.61035 3.16439 2.23438 3.65137C 1.86198 4.13835 1.67578 4.83122 1.67578 5.72998L 1.67578 6.4873C 1.67578 7.33594 1.85303 8.0109 2.20752 8.51221C 2.56201 9.01351 3.05794 9.26416 3.69531 9.26416C 4.26823 9.26416 4.70687 9.13525 5.01123 8.87744C 5.31917 8.61605 5.52327 8.16309 5.62354 7.51855L 6.66016 7.51855ZM 11.5049 9.42529C 11.1182 9.88005 10.5506 10.1074 9.80225 10.1074C 9.18278 10.1074 8.71012 9.92839 8.38428 9.57031C 8.06201 9.20866 7.89909 8.67513 7.89551 7.96973L 7.89551 4.18848L 8.88916 4.18848L 8.88916 7.94287C 8.88916 8.82373 9.24723 9.26416 9.96338 9.26416C 10.7225 9.26416 11.2274 8.98128 11.478 8.41553L 11.478 4.18848L 12.4717 4.18848L 12.4717 10L 11.5264 10L 11.5049 9.42529ZM 16.7954 5.08008C 16.645 5.05501 16.4821 5.04248 16.3066 5.04248C 15.6549 5.04248 15.2127 5.31999 14.98 5.875L 14.98 10L 13.9863 10L 13.9863 4.18848L 14.9531 4.18848L 14.9692 4.85986C 15.2951 4.34066 15.757 4.08105 16.355 4.08105C 16.5483 4.08105 16.6951 4.10612 16.7954 4.15625L 16.7954 5.08008ZM 20.5229 5.08008C 20.3726 5.05501 20.2096 5.04248 20.0342 5.04248C 19.3825 5.04248 18.9403 5.31999 18.7075 5.875L 18.7075 10L 17.7139 10L 17.7139 4.18848L 18.6807 4.18848L 18.6968 4.85986C 19.0226 4.34066 19.4845 4.08105 20.0825 4.08105C 20.2759 4.08105 20.4227 4.10612 20.5229 4.15625L 20.5229 5.08008ZM 23.7456 10.1074C 22.9578 10.1074 22.3169 9.84961 21.8228 9.33398C 21.3286 8.81478 21.0815 8.12191 21.0815 7.25537L 21.0815 7.07275C 21.0815 6.49626 21.1908 5.98242 21.4092 5.53125C 21.6312 5.0765 21.9391 4.72201 22.333 4.46777C 22.7305 4.20996 23.1602 4.08105 23.6221 4.08105C 24.3776 4.08105 24.9648 4.32992 25.3838 4.82764C 25.8027 5.32536 26.0122 6.03792 26.0122 6.96533L 26.0122 7.37891L 22.0752 7.37891C 22.0895 7.95182 22.256 8.41553 22.5747 8.77002C 22.897 9.12093 23.3052 9.29639 23.7993 9.29639C 24.1502 9.29639 24.4474 9.22477 24.6909 9.08154C 24.9344 8.93831 25.1475 8.74854 25.3301 8.51221L 25.937 8.98486C 25.45 9.73324 24.7196 10.1074 23.7456 10.1074ZM 23.6221 4.89746C 23.221 4.89746 22.8844 5.04427 22.6123 5.33789C 22.3402 5.62793 22.1719 6.03613 22.1074 6.5625L 25.0186 6.5625L 25.0186 6.4873C 24.9899 5.98242 24.8538 5.59212 24.6104 5.31641C 24.3669 5.03711 24.0374 4.89746 23.6221 4.89746ZM 28.1069 4.18848L 28.1392 4.91895C 28.5832 4.36035 29.1632 4.08105 29.8794 4.08105C 31.1076 4.08105 31.7271 4.77393 31.7378 6.15967L 31.7378 10L 30.7441 10L 30.7441 6.1543C 30.7406 5.73535 30.6439 5.42562 30.4541 5.2251C 30.2679 5.02458 29.9761 4.92432 29.5786 4.92432C 29.2563 4.92432 28.9735 5.01025 28.73 5.18213C 28.4865 5.354 28.2967 5.57959 28.1606 5.85889L 28.1606 10L 27.167 10L 27.167 4.18848L 28.1069 4.18848ZM 34.5845 2.78125L 34.5845 4.18848L 35.6694 4.18848L 35.6694 4.95654L 34.5845 4.95654L 34.5845 8.56055C 34.5845 8.79329 34.6328 8.96875 34.7295 9.08691C 34.8262 9.2015 34.9909 9.25879 35.2236 9.25879C 35.3382 9.25879 35.4958 9.2373 35.6963 9.19434L 35.6963 10C 35.4349 10.0716 35.1807 10.1074 34.9336 10.1074C 34.4896 10.1074 34.1548 9.97314 33.9292 9.70459C 33.7036 9.43604 33.5908 9.05469 33.5908 8.56055L 33.5908 4.95654L 32.5327 4.95654L 32.5327 4.18848L 33.5908 4.18848L 33.5908 2.78125L 34.5845 2.78125Z" transform="translate(269.391 57.8579)" fill="#1F3F49"/>
</g>
<g id="Vector_16">
<path d="M 4 8C 6.20914 8 8 6.20914 8 4C 8 1.79086 6.20914 0 4 0C 1.79086 0 0 1.79086 0 4C 0 6.20914 1.79086 8 4 8Z" transform="translate(256.588 61.3049)" fill="#757DE8"/>
</g>
</g>
</g>
</g>
</g>
</g>
</g>
<defs>

<radialGradient id="paint0_radial" cx="0.5" cy="0.5" r="0.5" gradientUnits="userSpaceOnUse" gradientTransform="matrix(0 95406.4 -73.0179 0 36.8885 -47544.4)">
<stop stop-color="#F5F7F8"/>
<stop offset="1" stop-color="#E7EBEF"/>
</radialGradient>

</defs>
</svg>

